<svg xmlns="http://www.w3.org/2000/svg" viewBox="-530.8306325798367 -192.0 840 384"><rect x="-530.8306325798367" y="-192.0" width="100%" height="100%" fill="rgba(205, 165, 119, 1.0)" /><defs><mask x="-530.8306325798367" y="-192.0" width="100%" height="100%" id="full-mask" mask-type="luminance" maskUnits="userSpaceOnUse"><rect x="-530.8306325798367" y="-192.0" width="100%" height="100%" fill="rgba(255, 255, 255, 1.0)" /></mask></defs><g mask="url(#full-mask)"><line x1="-498.83063257983673" y1="192.0" x2="-609.6818842642449" y2="192.0" stroke="rgba(76, 64, 44, 1.0)" stroke-width="2.0" stroke-linecap="round" /><line x1="-526.5434455009388" y1="240.0" x2="-581.9690713431428" y2="144.0" stroke="rgba(76, 64, 44, 1.0)" stroke-width="2.0" stroke-linecap="round" /><line x1="-581.9690713431428" y1="240.0" x2="-526.5434455009388" y2="144.0" stroke="rgba(76, 64, 44, 1.0)" stroke-width="2.0" stroke-linecap="round" /><circle cx="-554.2562584220408" cy="192.0" fill="rgba(0, 0, 0, 0.0)" r="50.229473" /><line x1="-498.8306325798366" y1="0.0" x2="-609.6818842642448" y2="-5.329070518200751E-15" stroke="rgba(76, 64, 44, 1.0)" stroke-width="2.0" stroke-linecap="round" /><line x1="-526.5434455009387" y1="48.0" x2="-581.9690713431428" y2="-48.0" stroke="rgba(76, 64, 44, 1.0)" stroke-width="2.0" stroke-linecap="round" /><line x1="-581.9690713431428" y1="48.0" x2="-526.5434455009387" y2="-48.0" stroke="rgba(76, 64, 44, 1.0)" stroke-width="2.0" stroke-linecap="round" /><circle cx="-554.2562584220407" cy="0.0" fill="rgba(0, 0, 0, 0.0)" r="50.229473" /><line x1="-443.40500673763256" y1="96.0" x2="-554.2562584220407" y2="96.0" stroke="rgba(76, 64, 44, 1.0)" stroke-width="2.0" stroke-linecap="round" /><line x1="-471.11781965873456" y1="144.0" x2="-526.5434455009387" y2="48.0" stroke="rgba(76, 64, 44, 1.0)" stroke-width="2.0" stroke-linecap="round" /><line x1="-526.5434455009387" y1="144.0" x2="-471.11781965873456" y2="48.0" stroke="rgba(76, 64, 44, 1.0)" stroke-width="2.0" stroke-linecap="round" /><circle cx="-498.8306325798366" cy="96.0" fill="rgba(0, 0, 0, 0.0)" r="50.229473" /><line x1="-387.9793808954285" y1="192.0" x2="-498.8306325798366" y2="192.0" stroke="rgba(76, 64, 44, 1.0)" stroke-width="2.0" stroke-linecap="round" /><line x1="-415.69219381653056" y1="240.0" x2="-471.11781965873456" y2="144.0" stroke="rgba(76, 64, 44, 1.0)" stroke-width="2.0" stroke-linecap="round" /><line x1="-471.11781965873456" y1="240.0" x2="-415.69219381653056" y2="144.0" stroke="rgba(76, 64, 44, 1.0)" stroke-width="2.0" stroke-linecap="round" /><circle cx="-443.40500673763256" cy="192.0" fill="rgba(0, 0, 0, 0.0)" r="50.229473" /><line x1="-498.8306325798366" y1="-192.0" x2="-609.6818842642448" y2="-192.0" stroke="rgba(76, 64, 44, 1.0)" stroke-width="2.0" stroke-linecap="round" /><line x1="-526.5434455009387" y1="-144.0" x2="-581.9690713431428" y2="-240.0" stroke="rgba(76, 64, 44, 1.0)" stroke-width="2.0" stroke-linecap="round" /><line x1="-581.9690713431428" y1="-144.0" x2="-526.5434455009387" y2="-240.0" stroke="rgba(76, 64, 44, 1.0)" stroke-width="2.0" stroke-linecap="round" /><circle cx="-554.2562584220407" cy="-192.0" fill="rgba(0, 0, 0, 0.0)" r="50.229473" /><line x1="-443.40500673763256" y1="-96.0" x2="-554.2562584220407" y2="-96.0" stroke="rgba(76, 64, 44, 1.0)" stroke-width="2.0" stroke-linecap="round" /><line x1="-471.11781965873456" y1="-48.0" x2="-526.5434455009387" y2="-144.0" stroke="rgba(76, 64, 44, 1.0)" stroke-width="2.0" stroke-linecap="round" /><line x1="-526.5434455009387" y1="-48.0" x2="-471.11781965873456" y2="-144.0" stroke="rgba(76, 64, 44, 1.0)" stroke-width="2.0" stroke-linecap="round" /><circle cx="-498.8306325798366" cy="-96.0" fill="rgba(0, 0, 0, 0.0)" r="50.229473" /><line x1="-387.9793808954285" y1="0.0" x2="-498.8306325798366" y2="-5.329070518200751E-15" stroke="rgba(76, 64, 44, 1.0)" stroke-width="2.0" stroke-linecap="round" /><line x1="-415.69219381653056" y1="48.0" x2="-471.11781965873456" y2="-48.0" stroke="rgba(76, 64, 44, 1.0)" stroke-width="2.0" stroke-linecap="round" /><line x1="-471.11781965873456" y1="48.0" x2="-415.69219381653056" y2="-48.0" stroke="rgba(76, 64, 44, 1.0)" stroke-width="2.0" stroke-linecap="round" /><circle cx="-443.40500673763256" cy="0.0" fill="rgba(20, 20, 20, 1.0)" r="50.229473" /><circle cx="-443.40500673763256" cy="0.0" fill="rgba(0, 0, 0, 0.0)" stroke="rgba(236, 111, 177, 1.0)" stroke-width="3.0" r="51.729473" /><circle cx="-443.40500673763256" cy="0.0" fill="rgba(236, 111, 177, 0.5019607843137255)" r="50.229473" /><line x1="-332.55375505322445" y1="96.0" x2="-443.40500673763256" y2="96.0" stroke="rgba(76, 64, 44, 1.0)" stroke-width="2.0" stroke-linecap="round" /><line x1="-360.26656797432645" y1="144.0" x2="-415.69219381653056" y2="48.0" stroke="rgba(76, 64, 44, 1.0)" stroke-width="2.0" stroke-linecap="round" /><line x1="-415.69219381653056" y1="144.0" x2="-360.26656797432645" y2="48.0" stroke="rgba(76, 64, 44, 1.0)" stroke-width="2.0" stroke-linecap="round" /><circle cx="-387.9793808954285" cy="96.0" fill="rgba(0, 0, 0, 0.0)" r="50.229473" /><line x1="-277.1281292110204" y1="192.0" x2="-387.9793808954285" y2="192.0" stroke="rgba(76, 64, 44, 1.0)" stroke-width="2.0" stroke-linecap="round" /><line x1="-304.84094213212245" y1="240.0" x2="-360.26656797432645" y2="144.0" stroke="rgba(76, 64, 44, 1.0)" stroke-width="2.0" stroke-linecap="round" /><line x1="-360.26656797432645" y1="240.0" x2="-304.84094213212245" y2="144.0" stroke="rgba(76, 64, 44, 1.0)" stroke-width="2.0" stroke-linecap="round" /><circle cx="-332.55375505322445" cy="192.0" fill="rgba(0, 0, 0, 0.0)" r="50.229473" /><line x1="-387.9793808954285" y1="-192.0" x2="-498.8306325798366" y2="-192.0" stroke="rgba(76, 64, 44, 1.0)" stroke-width="2.0" stroke-linecap="round" /><line x1="-415.69219381653056" y1="-144.0" x2="-471.11781965873456" y2="-240.0" stroke="rgba(76, 64, 44, 1.0)" stroke-width="2.0" stroke-linecap="round" /><line x1="-471.11781965873456" y1="-144.0" x2="-415.69219381653056" y2="-240.0" stroke="rgba(76, 64, 44, 1.0)" stroke-width="2.0" stroke-linecap="round" /><circle cx="-443.40500673763256" cy="-192.0" fill="rgba(0, 0, 0, 0.0)" r="50.229473" /><line x1="-332.55375505322445" y1="-96.0" x2="-443.40500673763256" y2="-96.0" stroke="rgba(76, 64, 44, 1.0)" stroke-width="2.0" stroke-linecap="round" /><line x1="-360.26656797432645" y1="-48.0" x2="-415.69219381653056" y2="-144.0" stroke="rgba(76, 64, 44, 1.0)" stroke-width="2.0" stroke-linecap="round" /><line x1="-415.69219381653056" y1="-48.0" x2="-360.26656797432645" y2="-144.0" stroke="rgba(76, 64, 44, 1.0)" stroke-width="2.0" stroke-linecap="round" /><circle cx="-387.9793808954285" cy="-96.0" fill="rgba(0, 0, 0, 0.0)" r="50.229473" /><line x1="-277.1281292110204" y1="0.0" x2="-387.9793808954285" y2="-5.329070518200751E-15" stroke="rgba(76, 64, 44, 1.0)" stroke-width="2.0" stroke-linecap="round" /><line x1="-304.84094213212245" y1="48.0" x2="-360.26656797432645" y2="-48.0" stroke="rgba(76, 64, 44, 1.0)" stroke-width="2.0" stroke-linecap="round" /><line x1="-360.26656797432645" y1="48.0" x2="-304.84094213212245" y2="-48.0" stroke="rgba(76, 64, 44, 1.0)" stroke-width="2.0" stroke-linecap="round" /><circle cx="-332.55375505322445" cy="0.0" fill="rgba(0, 0, 0, 0.0)" r="50.229473" /><circle cx="-332.55375505322445" cy="0.0" fill="rgba(0, 0, 0, 0.0)" stroke="rgba(236, 111, 177, 1.0)" stroke-width="3.0" r="51.729473" /><circle cx="-332.55375505322445" cy="0.0" fill="rgba(236, 111, 177, 0.5019607843137255)" r="50.229473" /><line x1="-221.7025033688163" y1="96.0" x2="-332.55375505322445" y2="96.0" stroke="rgba(76, 64, 44, 1.0)" stroke-width="2.0" stroke-linecap="round" /><line x1="-249.41531628991834" y1="144.0" x2="-304.84094213212245" y2="48.0" stroke="rgba(76, 64, 44, 1.0)" stroke-width="2.0" stroke-linecap="round" /><line x1="-304.84094213212245" y1="144.0" x2="-249.41531628991834" y2="48.0" stroke="rgba(76, 64, 44, 1.0)" stroke-width="2.0" stroke-linecap="round" /><circle cx="-277.1281292110204" cy="96.0" fill="rgba(0, 0, 0, 0.0)" r="50.229473" /><line x1="-166.27687752661222" y1="192.0" x2="-277.1281292110204" y2="192.0" stroke="rgba(76, 64, 44, 1.0)" stroke-width="2.0" stroke-linecap="round" /><line x1="-193.98969044771428" y1="240.0" x2="-249.41531628991834" y2="144.0" stroke="rgba(76, 64, 44, 1.0)" stroke-width="2.0" stroke-linecap="round" /><line x1="-249.41531628991834" y1="240.0" x2="-193.98969044771428" y2="144.0" stroke="rgba(76, 64, 44, 1.0)" stroke-width="2.0" stroke-linecap="round" /><circle cx="-221.7025033688163" cy="192.0" fill="rgba(0, 0, 0, 0.0)" r="50.229473" /><line x1="-277.1281292110204" y1="-192.0" x2="-387.9793808954285" y2="-192.0" stroke="rgba(76, 64, 44, 1.0)" stroke-width="2.0" stroke-linecap="round" /><line x1="-304.84094213212245" y1="-144.0" x2="-360.26656797432645" y2="-240.0" stroke="rgba(76, 64, 44, 1.0)" stroke-width="2.0" stroke-linecap="round" /><line x1="-360.26656797432645" y1="-144.0" x2="-304.84094213212245" y2="-240.0" stroke="rgba(76, 64, 44, 1.0)" stroke-width="2.0" stroke-linecap="round" /><circle cx="-332.55375505322445" cy="-192.0" fill="rgba(0, 0, 0, 0.0)" r="50.229473" /><line x1="-221.70250336881625" y1="-96.0" x2="-332.5537550532244" y2="-96.0" stroke="rgba(76, 64, 44, 1.0)" stroke-width="2.0" stroke-linecap="round" /><line x1="-249.41531628991828" y1="-48.0" x2="-304.84094213212234" y2="-144.0" stroke="rgba(76, 64, 44, 1.0)" stroke-width="2.0" stroke-linecap="round" /><line x1="-304.84094213212234" y1="-48.0" x2="-249.41531628991828" y2="-144.0" stroke="rgba(76, 64, 44, 1.0)" stroke-width="2.0" stroke-linecap="round" /><circle cx="-277.12812921102034" cy="-96.0" fill="rgba(0, 0, 0, 0.0)" r="50.229473" /><line x1="-166.2768775266122" y1="0.0" x2="-277.12812921102034" y2="-5.329070518200751E-15" stroke="rgba(76, 64, 44, 1.0)" stroke-width="2.0" stroke-linecap="round" /><line x1="-193.98969044771422" y1="48.0" x2="-249.4153162899183" y2="-48.0" stroke="rgba(76, 64, 44, 1.0)" stroke-width="2.0" stroke-linecap="round" /><line x1="-249.4153162899183" y1="48.0" x2="-193.98969044771422" y2="-48.0" stroke="rgba(76, 64, 44, 1.0)" stroke-width="2.0" stroke-linecap="round" /><circle cx="-221.70250336881628" cy="0.0" fill="rgba(0, 0, 0, 0.0)" r="50.229473" /><line x1="-110.85125168440814" y1="96.0" x2="-221.70250336881628" y2="96.0" stroke="rgba(76, 64, 44, 1.0)" stroke-width="2.0" stroke-linecap="round" /><line x1="-138.56406460551017" y1="144.0" x2="-193.98969044771425" y2="48.0" stroke="rgba(76, 64, 44, 1.0)" stroke-width="2.0" stroke-linecap="round" /><line x1="-193.98969044771428" y1="144.0" x2="-138.56406460551017" y2="48.0" stroke="rgba(76, 64, 44, 1.0)" stroke-width="2.0" stroke-linecap="round" /><circle cx="-166.27687752661222" cy="96.0" fill="rgba(0, 0, 0, 0.0)" r="50.229473" /><line x1="-55.42562584220406" y1="192.0" x2="-166.27687752661222" y2="192.0" stroke="rgba(76, 64, 44, 1.0)" stroke-width="2.0" stroke-linecap="round" /><line x1="-83.1384387633061" y1="240.0" x2="-138.5640646055102" y2="144.0" stroke="rgba(76, 64, 44, 1.0)" stroke-width="2.0" stroke-linecap="round" /><line x1="-138.56406460551017" y1="240.0" x2="-83.13843876330611" y2="144.0" stroke="rgba(76, 64, 44, 1.0)" stroke-width="2.0" stroke-linecap="round" /><circle cx="-110.85125168440814" cy="192.0" fill="rgba(0, 0, 0, 0.0)" r="50.229473" /><line x1="-166.2768775266122" y1="-192.0" x2="-277.12812921102034" y2="-192.0" stroke="rgba(76, 64, 44, 1.0)" stroke-width="2.0" stroke-linecap="round" /><line x1="-193.98969044771422" y1="-144.0" x2="-249.4153162899183" y2="-240.0" stroke="rgba(76, 64, 44, 1.0)" stroke-width="2.0" stroke-linecap="round" /><line x1="-249.4153162899183" y1="-144.0" x2="-193.98969044771422" y2="-240.0" stroke="rgba(76, 64, 44, 1.0)" stroke-width="2.0" stroke-linecap="round" /><circle cx="-221.70250336881628" cy="-192.0" fill="rgba(0, 0, 0, 0.0)" r="50.229473" /><line x1="-110.85125168440814" y1="-96.0" x2="-221.70250336881628" y2="-96.0" stroke="rgba(76, 64, 44, 1.0)" stroke-width="2.0" stroke-linecap="round" /><line x1="-138.56406460551017" y1="-48.0" x2="-193.98969044771425" y2="-144.0" stroke="rgba(76, 64, 44, 1.0)" stroke-width="2.0" stroke-linecap="round" /><line x1="-193.98969044771428" y1="-48.0" x2="-138.56406460551017" y2="-144.0" stroke="rgba(76, 64, 44, 1.0)" stroke-width="2.0" stroke-linecap="round" /><circle cx="-166.27687752661222" cy="-96.0" fill="rgba(0, 0, 0, 0.0)" r="50.229473" /><line x1="-55.42562584220406" y1="0.0" x2="-166.27687752661222" y2="-5.329070518200751E-15" stroke="rgba(76, 64, 44, 1.0)" stroke-width="2.0" stroke-linecap="round" /><line x1="-83.1384387633061" y1="48.0" x2="-138.5640646055102" y2="-48.0" stroke="rgba(76, 64, 44, 1.0)" stroke-width="2.0" stroke-linecap="round" /><line x1="-138.56406460551017" y1="48.0" x2="-83.13843876330611" y2="-48.0" stroke="rgba(76, 64, 44, 1.0)" stroke-width="2.0" stroke-linecap="round" /><circle cx="-110.85125168440814" cy="0.0" fill="rgba(243, 243, 243, 1.0)" r="50.229473" /><line x1="7.105427357601002E-15" y1="96.0" x2="-110.85125168440814" y2="96.0" stroke="rgba(76, 64, 44, 1.0)" stroke-width="2.0" stroke-linecap="round" /><line x1="-27.712812921102028" y1="144.0" x2="-83.13843876330611" y2="48.0" stroke="rgba(76, 64, 44, 1.0)" stroke-width="2.0" stroke-linecap="round" /><line x1="-83.1384387633061" y1="144.0" x2="-27.71281292110204" y2="48.0" stroke="rgba(76, 64, 44, 1.0)" stroke-width="2.0" stroke-linecap="round" /><circle cx="-55.42562584220407" cy="96.0" fill="rgba(0, 0, 0, 0.0)" r="50.229473" /><line x1="55.42562584220408" y1="192.0" x2="-55.42562584220407" y2="192.0" stroke="rgba(76, 64, 44, 1.0)" stroke-width="2.0" stroke-linecap="round" /><line x1="27.712812921102042" y1="240.0" x2="-27.712812921102042" y2="144.0" stroke="rgba(76, 64, 44, 1.0)" stroke-width="2.0" stroke-linecap="round" /><line x1="-27.712812921102035" y1="240.0" x2="27.71281292110203" y2="144.0" stroke="rgba(76, 64, 44, 1.0)" stroke-width="2.0" stroke-linecap="round" /><circle cx="0.0" cy="192.0" fill="rgba(0, 0, 0, 0.0)" r="50.229473" /><line x1="-55.42562584220406" y1="-192.0" x2="-166.27687752661222" y2="-192.0" stroke="rgba(76, 64, 44, 1.0)" stroke-width="2.0" stroke-linecap="round" /><line x1="-83.1384387633061" y1="-144.0" x2="-138.5640646055102" y2="-240.0" stroke="rgba(76, 64, 44, 1.0)" stroke-width="2.0" stroke-linecap="round" /><line x1="-138.56406460551017" y1="-144.0" x2="-83.13843876330611" y2="-240.0" stroke="rgba(76, 64, 44, 1.0)" stroke-width="2.0" stroke-linecap="round" /><circle cx="-110.85125168440814" cy="-192.0" fill="rgba(0, 0, 0, 0.0)" r="50.229473" /><line x1="7.105427357601002E-15" y1="-96.0" x2="-110.85125168440814" y2="-96.0" stroke="rgba(76, 64, 44, 1.0)" stroke-width="2.0" stroke-linecap="round" /><line x1="-27.712812921102028" y1="-48.0" x2="-83.13843876330611" y2="-144.0" stroke="rgba(76, 64, 44, 1.0)" stroke-width="2.0" stroke-linecap="round" /><line x1="-83.1384387633061" y1="-48.0" x2="-27.71281292110204" y2="-144.0" stroke="rgba(76, 64, 44, 1.0)" stroke-width="2.0" stroke-linecap="round" /><circle cx="-55.42562584220407" cy="-96.0" fill="rgba(0, 0, 0, 0.0)" r="50.229473" /><line x1="55.42562584220408" y1="0.0" x2="-55.42562584220407" y2="-5.329070518200751E-15" stroke="rgba(76, 64, 44, 1.0)" stroke-width="2.0" stroke-linecap="round" /><line x1="27.712812921102042" y1="48.0" x2="-27.712812921102042" y2="-48.0" stroke="rgba(76, 64, 44, 1.0)" stroke-width="2.0" stroke-linecap="round" /><line x1="-27.712812921102035" y1="48.0" x2="27.71281292110203" y2="-48.0" stroke="rgba(76, 64, 44, 1.0)" stroke-width="2.0" stroke-linecap="round" /><circle cx="0.0" cy="0.0" fill="rgba(243, 243, 243, 1.0)" r="50.229473" /><line x1="110.85125168440814" y1="96.0" x2="-3.552713678800501E-15" y2="96.0" stroke="rgba(76, 64, 44, 1.0)" stroke-width="2.0" stroke-linecap="round" /><line x1="83.13843876330611" y1="144.0" x2="27.712812921102028" y2="48.0" stroke="rgba(76, 64, 44, 1.0)" stroke-width="2.0" stroke-linecap="round" /><line x1="27.712812921102035" y1="144.0" x2="83.1384387633061" y2="48.0" stroke="rgba(76, 64, 44, 1.0)" stroke-width="2.0" stroke-linecap="round" /><circle cx="55.42562584220407" cy="96.0" fill="rgba(20, 20, 20, 1.0)" r="50.229473" /><line x1="166.27687752661222" y1="192.0" x2="55.42562584220407" y2="192.0" stroke="rgba(76, 64, 44, 1.0)" stroke-width="2.0" stroke-linecap="round" /><line x1="138.56406460551017" y1="240.0" x2="83.1384387633061" y2="144.0" stroke="rgba(76, 64, 44, 1.0)" stroke-width="2.0" stroke-linecap="round" /><line x1="83.1384387633061" y1="240.0" x2="138.56406460551017" y2="144.0" stroke="rgba(76, 64, 44, 1.0)" stroke-width="2.0" stroke-linecap="round" /><circle cx="110.85125168440814" cy="192.0" fill="rgba(0, 0, 0, 0.0)" r="50.229473" /><line x1="55.42562584220408" y1="-192.0" x2="-55.42562584220407" y2="-192.0" stroke="rgba(76, 64, 44, 1.0)" stroke-width="2.0" stroke-linecap="round" /><line x1="27.712812921102042" y1="-144.0" x2="-27.712812921102042" y2="-240.0" stroke="rgba(76, 64, 44, 1.0)" stroke-width="2.0" stroke-linecap="round" /><line x1="-27.712812921102035" y1="-144.0" x2="27.71281292110203" y2="-240.0" stroke="rgba(76, 64, 44, 1.0)" stroke-width="2.0" stroke-linecap="round" /><circle cx="0.0" cy="-192.0" fill="rgba(0, 0, 0, 0.0)" r="50.229473" /><line x1="110.85125168440814" y1="-96.0" x2="-3.552713678800501E-15" y2="-96.0" stroke="rgba(76, 64, 44, 1.0)" stroke-width="2.0" stroke-linecap="round" /><line x1="83.13843876330611" y1="-48.0" x2="27.712812921102028" y2="-144.0" stroke="rgba(76, 64, 44, 1.0)" stroke-width="2.0" stroke-linecap="round" /><line x1="27.712812921102035" y1="-48.0" x2="83.1384387633061" y2="-144.0" stroke="rgba(76, 64, 44, 1.0)" stroke-width="2.0" stroke-linecap="round" /><circle cx="55.42562584220407" cy="-96.0" fill="rgba(20, 20, 20, 1.0)" r="50.229473" /><line x1="166.27687752661222" y1="0.0" x2="55.42562584220407" y2="-5.329070518200751E-15" stroke="rgba(76, 64, 44, 1.0)" stroke-width="2.0" stroke-linecap="round" /><line x1="138.56406460551017" y1="48.0" x2="83.1384387633061" y2="-48.0" stroke="rgba(76, 64, 44, 1.0)" stroke-width="2.0" stroke-linecap="round" /><line x1="83.1384387633061" y1="48.0" x2="138.56406460551017" y2="-48.0" stroke="rgba(76, 64, 44, 1.0)" stroke-width="2.0" stroke-linecap="round" /><circle cx="110.85125168440814" cy="0.0" fill="rgba(243, 243, 243, 1.0)" r="50.229473" /><line x1="221.7025033688163" y1="96.0" x2="110.85125168440814" y2="96.0" stroke="rgba(76, 64, 44, 1.0)" stroke-width="2.0" stroke-linecap="round" /><line x1="193.98969044771428" y1="144.0" x2="138.5640646055102" y2="48.0" stroke="rgba(76, 64, 44, 1.0)" stroke-width="2.0" stroke-linecap="round" /><line x1="138.56406460551017" y1="144.0" x2="193.98969044771428" y2="48.0" stroke="rgba(76, 64, 44, 1.0)" stroke-width="2.0" stroke-linecap="round" /><circle cx="166.27687752661222" cy="96.0" fill="rgba(0, 0, 0, 0.0)" r="50.229473" /><line x1="277.12812921102034" y1="192.0" x2="166.27687752661222" y2="192.0" stroke="rgba(76, 64, 44, 1.0)" stroke-width="2.0" stroke-linecap="round" /><line x1="249.4153162899183" y1="240.0" x2="193.98969044771425" y2="144.0" stroke="rgba(76, 64, 44, 1.0)" stroke-width="2.0" stroke-linecap="round" /><line x1="193.98969044771422" y1="240.0" x2="249.4153162899183" y2="144.0" stroke="rgba(76, 64, 44, 1.0)" stroke-width="2.0" stroke-linecap="round" /><circle cx="221.70250336881628" cy="192.0" fill="rgba(0, 0, 0, 0.0)" r="50.229473" /><line x1="166.27687752661222" y1="-192.0" x2="55.42562584220407" y2="-192.0" stroke="rgba(76, 64, 44, 1.0)" stroke-width="2.0" stroke-linecap="round" /><line x1="138.56406460551017" y1="-144.0" x2="83.1384387633061" y2="-240.0" stroke="rgba(76, 64, 44, 1.0)" stroke-width="2.0" stroke-linecap="round" /><line x1="83.1384387633061" y1="-144.0" x2="138.56406460551017" y2="-240.0" stroke="rgba(76, 64, 44, 1.0)" stroke-width="2.0" stroke-linecap="round" /><circle cx="110.85125168440814" cy="-192.0" fill="rgba(0, 0, 0, 0.0)" r="50.229473" /><line x1="221.7025033688163" y1="-96.0" x2="110.85125168440814" y2="-96.0" stroke="rgba(76, 64, 44, 1.0)" stroke-width="2.0" stroke-linecap="round" /><line x1="193.98969044771428" y1="-48.0" x2="138.5640646055102" y2="-144.0" stroke="rgba(76, 64, 44, 1.0)" stroke-width="2.0" stroke-linecap="round" /><line x1="138.56406460551017" y1="-48.0" x2="193.98969044771428" y2="-144.0" stroke="rgba(76, 64, 44, 1.0)" stroke-width="2.0" stroke-linecap="round" /><circle cx="166.27687752661222" cy="-96.0" fill="rgba(0, 0, 0, 0.0)" r="50.229473" /><line x1="277.12812921102034" y1="0.0" x2="166.27687752661222" y2="-5.329070518200751E-15" stroke="rgba(76, 64, 44, 1.0)" stroke-width="2.0" stroke-linecap="round" /><line x1="249.4153162899183" y1="48.0" x2="193.98969044771425" y2="-48.0" stroke="rgba(76, 64, 44, 1.0)" stroke-width="2.0" stroke-linecap="round" /><line x1="193.98969044771422" y1="48.0" x2="249.4153162899183" y2="-48.0" stroke="rgba(76, 64, 44, 1.0)" stroke-width="2.0" stroke-linecap="round" /><circle cx="221.70250336881628" cy="0.0" fill="rgba(20, 20, 20, 1.0)" r="50.229473" /><circle cx="221.70250336881628" cy="0.0" fill="rgba(0, 0, 0, 0.0)" stroke="rgba(255, 255, 255, 1.0)" stroke-width="3.0" r="51.729473" /><circle cx="221.70250336881628" cy="0.0" fill="rgba(255, 255, 255, 0.5019607843137255)" r="50.229473" /><line x1="332.5537550532244" y1="96.0" x2="221.70250336881628" y2="96.0" stroke="rgba(76, 64, 44, 1.0)" stroke-width="2.0" stroke-linecap="round" /><line x1="304.84094213212234" y1="144.0" x2="249.4153162899183" y2="48.0" stroke="rgba(76, 64, 44, 1.0)" stroke-width="2.0" stroke-linecap="round" /><line x1="249.41531628991828" y1="144.0" x2="304.84094213212234" y2="48.0" stroke="rgba(76, 64, 44, 1.0)" stroke-width="2.0" stroke-linecap="round" /><circle cx="277.12812921102034" cy="96.0" fill="rgba(0, 0, 0, 0.0)" r="50.229473" /><line x1="387.9793808954285" y1="192.0" x2="277.1281292110204" y2="192.0" stroke="rgba(76, 64, 44, 1.0)" stroke-width="2.0" stroke-linecap="round" /><line x1="360.26656797432645" y1="240.0" x2="304.84094213212245" y2="144.0" stroke="rgba(76, 64, 44, 1.0)" stroke-width="2.0" stroke-linecap="round" /><line x1="304.84094213212245" y1="240.0" x2="360.26656797432645" y2="144.0" stroke="rgba(76, 64, 44, 1.0)" stroke-width="2.0" stroke-linecap="round" /><circle cx="332.55375505322445" cy="192.0" fill="rgba(0, 0, 0, 0.0)" r="50.229473" /><line x1="277.1281292110204" y1="-192.0" x2="166.27687752661222" y2="-192.0" stroke="rgba(76, 64, 44, 1.0)" stroke-width="2.0" stroke-linecap="round" /><line x1="249.41531628991834" y1="-144.0" x2="193.98969044771428" y2="-240.0" stroke="rgba(76, 64, 44, 1.0)" stroke-width="2.0" stroke-linecap="round" /><line x1="193.98969044771428" y1="-144.0" x2="249.41531628991834" y2="-240.0" stroke="rgba(76, 64, 44, 1.0)" stroke-width="2.0" stroke-linecap="round" /><circle cx="221.7025033688163" cy="-192.0" fill="rgba(0, 0, 0, 0.0)" r="50.229473" /><line x1="332.55375505322445" y1="-96.0" x2="221.70250336881634" y2="-96.0" stroke="rgba(76, 64, 44, 1.0)" stroke-width="2.0" stroke-linecap="round" /><line x1="304.84094213212245" y1="-48.0" x2="249.41531628991837" y2="-144.0" stroke="rgba(76, 64, 44, 1.0)" stroke-width="2.0" stroke-linecap="round" /><line x1="249.41531628991834" y1="-48.0" x2="304.84094213212245" y2="-144.0" stroke="rgba(76, 64, 44, 1.0)" stroke-width="2.0" stroke-linecap="round" /><circle cx="277.1281292110204" cy="-96.0" fill="rgba(0, 0, 0, 0.0)" r="50.229473" /><line x1="387.9793808954285" y1="0.0" x2="277.1281292110204" y2="-5.329070518200751E-15" stroke="rgba(76, 64, 44, 1.0)" stroke-width="2.0" stroke-linecap="round" /><line x1="360.26656797432645" y1="48.0" x2="304.84094213212245" y2="-48.0" stroke="rgba(76, 64, 44, 1.0)" stroke-width="2.0" stroke-linecap="round" /><line x1="304.84094213212245" y1="48.0" x2="360.26656797432645" y2="-48.0" stroke="rgba(76, 64, 44, 1.0)" stroke-width="2.0" stroke-linecap="round" /><circle cx="332.55375505322445" cy="0.0" fill="rgba(0, 0, 0, 0.0)" r="50.229473" /><line x1="387.9793808954285" y1="-192.0" x2="277.1281292110204" y2="-192.0" stroke="rgba(76, 64, 44, 1.0)" stroke-width="2.0" stroke-linecap="round" /><line x1="360.26656797432645" y1="-144.0" x2="304.84094213212245" y2="-240.0" stroke="rgba(76, 64, 44, 1.0)" stroke-width="2.0" stroke-linecap="round" /><line x1="304.84094213212245" y1="-144.0" x2="360.26656797432645" y2="-240.0" stroke="rgba(76, 64, 44, 1.0)" stroke-width="2.0" stroke-linecap="round" /><circle cx="332.55375505322445" cy="-192.0" fill="rgba(0, 0, 0, 0.0)" r="50.229473" /></g></svg>