<svg xmlns="http://www.w3.org/2000/svg" viewBox="-253.7025033688163 -192.0 1007 1056"><rect x="-253.7025033688163" y="-192.0" width="100%" height="100%" fill="rgba(13, 15, 14, 1.0)" /><defs><mask x="-253.7025033688163" y="-192.0" width="100%" height="100%" id="full-mask" mask-type="luminance" maskUnits="userSpaceOnUse"><rect x="-253.7025033688163" y="-192.0" width="100%" height="100%" fill="rgba(255, 255, 255, 1.0)" /></mask><mask x="-253.7025033688163" y="-192.0" width="100%" height="100%" id="text-mask" mask-type="luminance" maskUnits="userSpaceOnUse"><rect x="-253.7025033688163" y="-192.0" width="100%" height="100%" fill="rgba(255, 255, 255, 1.0)" /></mask></defs><g mask="url(#full-mask)"><polygon points="-222.56852877260076,640.5 -222.56852877260076,703.5 -277.1281292110204,735.0 -331.68772964944003,703.5 -331.68772964944003,640.5 -277.1281292110204,609.0" fill="rgba(16, 18, 17, 1.0)" stroke="rgba(46, 42, 29, 1.0)" stroke-width="2.0" /><polygon points="-222.5685287726007,448.5 -222.5685287726007,511.5 -277.12812921102034,543.0 -331.68772964944,511.5 -331.68772964944,448.5 -277.12812921102034,417.0" fill="rgba(16, 18, 17, 1.0)" stroke="rgba(46, 42, 29, 1.0)" stroke-width="2.0" /><polygon points="-167.1429029303966,544.5 -167.1429029303966,607.5 -221.70250336881622,639.0 -276.26210380723586,607.5 -276.26210380723586,544.5 -221.70250336881622,513.0" fill="rgba(16, 18, 17, 1.0)" stroke="rgba(46, 42, 29, 1.0)" stroke-width="2.0" /><polygon points="-111.71727708819253,640.5 -111.71727708819253,703.5 -166.27687752661217,735.0 -220.8364779650318,703.5 -220.8364779650318,640.5 -166.27687752661217,609.0" fill="rgba(16, 18, 17, 1.0)" stroke="rgba(46, 42, 29, 1.0)" stroke-width="2.0" /><polygon points="-222.5685287726007,256.5 -222.5685287726007,319.5 -277.12812921102034,351.0 -331.68772964944,319.5 -331.68772964944,256.5 -277.12812921102034,225.0" fill="rgba(16, 18, 17, 1.0)" stroke="rgba(46, 42, 29, 1.0)" stroke-width="2.0" /><polygon points="-167.14290293039664,352.5 -167.14290293039664,415.5 -221.70250336881628,447.0 -276.2621038072359,415.5 -276.2621038072359,352.5 -221.70250336881628,321.0" fill="rgba(16, 18, 17, 1.0)" stroke="rgba(46, 42, 29, 1.0)" stroke-width="2.0" /><polygon points="-111.71727708819259,448.5 -111.71727708819259,511.5 -166.27687752661222,543.0 -220.83647796503186,511.5 -220.83647796503186,448.5 -166.27687752661222,417.0" fill="rgba(16, 18, 17, 1.0)" stroke="rgba(46, 42, 29, 1.0)" stroke-width="2.0" /><polygon points="-56.291651245988476,544.5 -56.291651245988476,607.5 -110.85125168440811,639.0 -165.41085212282775,607.5 -165.41085212282775,544.5 -110.85125168440813,513.0" fill="rgba(16, 18, 17, 1.0)" stroke="rgba(46, 42, 29, 1.0)" stroke-width="2.0" /><polygon points="-0.8660254037844197,640.5 -0.8660254037844197,703.5 -55.42562584220405,735.0 -109.98522628062369,703.5 -109.98522628062369,640.5 -55.42562584220407,609.0" fill="rgba(16, 18, 17, 1.0)" stroke="rgba(46, 42, 29, 1.0)" stroke-width="2.0" /><polygon points="-222.56852877260076,64.5 -222.56852877260076,127.5 -277.1281292110204,159.0 -331.68772964944003,127.5 -331.68772964944003,64.5 -277.1281292110204,33.0" fill="rgba(16, 18, 17, 1.0)" stroke="rgba(46, 42, 29, 1.0)" stroke-width="2.0" /><polygon points="-167.14290293039667,160.5 -167.14290293039667,223.5 -221.7025033688163,255.0 -276.2621038072359,223.5 -276.2621038072359,160.5 -221.7025033688163,129.0" fill="rgba(16, 18, 17, 1.0)" stroke="rgba(46, 42, 29, 1.0)" stroke-width="2.0" /><polygon points="-111.71727708819259,256.5 -111.71727708819259,319.5 -166.27687752661222,351.0 -220.83647796503186,319.5 -220.83647796503186,256.5 -166.27687752661222,225.0" fill="rgba(240, 138, 60, 1.0)" stroke="rgba(46, 42, 29, 1.0)" stroke-width="2.0" /><polygon points="-56.29165124598853,352.5 -56.29165124598853,415.5 -110.85125168440817,447.0 -165.4108521228278,415.5 -165.4108521228278,352.5 -110.85125168440818,321.0" fill="rgba(16, 18, 17, 1.0)" stroke="rgba(46, 42, 29, 1.0)" stroke-width="2.0" /><polygon points="-0.8660254037844766,448.5 -0.8660254037844766,511.5 -55.425625842204106,543.0 -109.98522628062375,511.5 -109.98522628062375,448.5 -55.42562584220413,417.0" fill="rgba(16, 18, 17, 1.0)" stroke="rgba(46, 42, 29, 1.0)" stroke-width="2.0" /><polygon points="54.559600438419636,544.5 54.559600438419636,607.5 3.857637417314163E-15,639.0 -54.559600438419636,607.5 -54.55960043841963,544.5 -1.1572912251942487E-14,513.0" fill="rgba(16, 18, 17, 1.0)" stroke="rgba(46, 42, 29, 1.0)" stroke-width="2.0" /><polygon points="109.98522628062369,640.5 109.98522628062369,703.5 55.42562584220406,735.0 0.8660254037844197,703.5 0.8660254037844268,640.5 55.42562584220404,609.0" fill="rgba(16, 18, 17, 1.0)" stroke="rgba(46, 42, 29, 1.0)" stroke-width="2.0" /><polygon points="-222.5685287726007,-127.5 -222.5685287726007,-64.5 -277.12812921102034,-33.0 -331.68772964944,-64.5 -331.68772964944,-127.5 -277.12812921102034,-159.0" fill="rgba(16, 18, 17, 1.0)" stroke="rgba(46, 42, 29, 1.0)" stroke-width="2.0" /><polygon points="-167.14290293039664,-31.499999999999996 -167.14290293039664,31.499999999999996 -221.70250336881628,63.0 -276.2621038072359,31.499999999999996 -276.2621038072359,-31.500000000000007 -221.70250336881628,-63.0" fill="rgba(16, 18, 17, 1.0)" stroke="rgba(46, 42, 29, 1.0)" stroke-width="2.0" /><polygon points="-111.71727708819259,64.5 -111.71727708819259,127.5 -166.27687752661222,159.0 -220.83647796503186,127.5 -220.83647796503186,64.5 -166.27687752661222,33.0" fill="rgba(16, 18, 17, 1.0)" stroke="rgba(46, 42, 29, 1.0)" stroke-width="2.0" /><polygon points="-56.291651245988504,160.5 -56.291651245988504,223.5 -110.85125168440814,255.0 -165.41085212282778,223.5 -165.41085212282778,160.5 -110.85125168440815,129.0" fill="rgba(16, 18, 17, 1.0)" stroke="rgba(46, 42, 29, 1.0)" stroke-width="2.0" /><polygon points="-0.8660254037844197,256.5 -0.8660254037844197,319.5 -55.42562584220405,351.0 -109.98522628062369,319.5 -109.98522628062369,256.5 -55.42562584220407,225.0" fill="rgba(16, 18, 17, 1.0)" stroke="rgba(46, 42, 29, 1.0)" stroke-width="2.0" /><polygon points="54.559600438419636,352.5 54.559600438419636,415.5 3.857637417314163E-15,447.0 -54.559600438419636,415.5 -54.55960043841963,352.5 -1.1572912251942487E-14,321.0" fill="rgba(16, 18, 17, 1.0)" stroke="rgba(46, 42, 29, 1.0)" stroke-width="2.0" /><polygon points="109.98522628062369,448.5 109.98522628062369,511.5 55.42562584220406,543.0 0.8660254037844197,511.5 0.8660254037844268,448.5 55.42562584220404,417.0" fill="rgba(16, 18, 17, 1.0)" stroke="rgba(46, 42, 29, 1.0)" stroke-width="2.0" /><polygon points="165.4108521228278,544.5 165.4108521228278,607.5 110.85125168440817,639.0 56.29165124598853,607.5 56.29165124598854,544.5 110.85125168440815,513.0" fill="rgba(16, 18, 17, 1.0)" stroke="rgba(46, 42, 29, 1.0)" stroke-width="2.0" /><polygon points="220.83647796503186,640.5 220.83647796503186,703.5 166.27687752661222,735.0 111.71727708819259,703.5 111.71727708819259,640.5 166.27687752661222,609.0" fill="rgba(16, 18, 17, 1.0)" stroke="rgba(46, 42, 29, 1.0)" stroke-width="2.0" /><polygon points="-167.14290293039664,-223.5 -167.14290293039664,-160.5 -221.70250336881628,-129.0 -276.2621038072359,-160.5 -276.2621038072359,-223.5 -221.70250336881628,-255.0" fill="rgba(16, 18, 17, 1.0)" stroke="rgba(46, 42, 29, 1.0)" stroke-width="2.0" /><polygon points="-111.71727708819259,-127.5 -111.71727708819259,-64.5 -166.27687752661222,-33.0 -220.83647796503186,-64.5 -220.83647796503186,-127.5 -166.27687752661222,-159.0" fill="rgba(16, 18, 17, 1.0)" stroke="rgba(46, 42, 29, 1.0)" stroke-width="2.0" /><polygon points="-56.291651245988504,-31.499999999999996 -56.291651245988504,31.499999999999996 -110.85125168440814,63.0 -165.41085212282778,31.499999999999996 -165.41085212282778,-31.500000000000007 -110.85125168440815,-63.0" fill="rgba(16, 18, 17, 1.0)" stroke="rgba(46, 42, 29, 1.0)" stroke-width="2.0" /><polygon points="-0.8660254037844339,64.5 -0.8660254037844339,127.5 -55.42562584220406,159.0 -109.9852262806237,127.5 -109.98522628062369,64.5 -55.425625842204084,33.0" fill="rgba(16, 18, 17, 1.0)" stroke="rgba(46, 42, 29, 1.0)" stroke-width="2.0" /><polygon points="54.559600438419636,160.5 54.559600438419636,223.5 3.857637417314163E-15,255.0 -54.559600438419636,223.5 -54.55960043841963,160.5 -1.1572912251942487E-14,129.0" fill="rgba(240, 138, 60, 1.0)" stroke="rgba(46, 42, 29, 1.0)" stroke-width="2.0" /><polygon points="109.98522628062372,256.5 109.98522628062372,319.5 55.42562584220409,351.0 0.8660254037844481,319.5 0.8660254037844552,256.5 55.42562584220407,225.0" fill="rgba(240, 138, 60, 1.0)" stroke="rgba(46, 42, 29, 1.0)" stroke-width="2.0" /><polygon points="96.34532617101881,264.375 96.34532617101881,311.625 55.425625842204084,335.25 14.505925513389357,311.625 14.505925513389357,264.375 55.42562584220408,240.75" fill="rgba(0, 0, 0, 0.0)" stroke="rgba(255, 255, 171, 0.7686274509803922)" stroke-width="6.0" /><polygon points="165.41085212282778,352.5 165.41085212282778,415.5 110.85125168440814,447.0 56.291651245988504,415.5 56.29165124598851,352.5 110.85125168440813,321.0" fill="rgba(16, 18, 17, 1.0)" stroke="rgba(46, 42, 29, 1.0)" stroke-width="2.0" /><polygon points="220.83647796503183,448.5 220.83647796503183,511.5 166.2768775266122,543.0 111.71727708819256,511.5 111.71727708819256,448.5 166.2768775266122,417.0" fill="rgba(16, 18, 17, 1.0)" stroke="rgba(46, 42, 29, 1.0)" stroke-width="2.0" /><polygon points="276.2621038072359,544.5 276.2621038072359,607.5 221.7025033688163,639.0 167.14290293039667,607.5 167.14290293039667,544.5 221.7025033688163,513.0" fill="rgba(240, 138, 60, 1.0)" stroke="rgba(46, 42, 29, 1.0)" stroke-width="2.0" /><polygon points="262.62220369763105,552.375 262.62220369763105,599.625 221.7025033688163,623.25 180.78280304000157,599.625 180.78280304000157,552.375 221.7025033688163,528.75" fill="rgba(0, 0, 0, 0.0)" stroke="rgba(255, 255, 171, 0.7686274509803922)" stroke-width="6.0" /><polygon points="331.68772964944,640.5 331.68772964944,703.5 277.12812921102034,735.0 222.5685287726007,703.5 222.5685287726007,640.5 277.12812921102034,609.0" fill="rgba(240, 138, 60, 1.0)" stroke="rgba(46, 42, 29, 1.0)" stroke-width="2.0" /><polygon points="-56.291651245988504,-223.5 -56.291651245988504,-160.5 -110.85125168440814,-129.0 -165.41085212282778,-160.5 -165.41085212282778,-223.5 -110.85125168440815,-255.0" fill="rgba(16, 18, 17, 1.0)" stroke="rgba(46, 42, 29, 1.0)" stroke-width="2.0" /><polygon points="-0.8660254037844339,-127.5 -0.8660254037844339,-64.5 -55.42562584220406,-33.0 -109.9852262806237,-64.5 -109.98522628062369,-127.5 -55.425625842204084,-159.0" fill="rgba(16, 18, 17, 1.0)" stroke="rgba(46, 42, 29, 1.0)" stroke-width="2.0" /><polygon points="54.559600438419636,-31.499999999999996 54.559600438419636,31.499999999999996 3.857637417314163E-15,63.0 -54.559600438419636,31.499999999999996 -54.55960043841963,-31.500000000000007 -1.1572912251942487E-14,-63.0" fill="rgba(240, 138, 60, 1.0)" stroke="rgba(46, 42, 29, 1.0)" stroke-width="2.0" /><polygon points="109.9852262806237,64.5 109.9852262806237,127.5 55.42562584220408,159.0 0.8660254037844339,127.5 0.866025403784441,64.5 55.425625842204056,33.0" fill="rgba(16, 18, 17, 1.0)" stroke="rgba(46, 42, 29, 1.0)" stroke-width="2.0" /><polygon points="165.41085212282778,160.5 165.41085212282778,223.5 110.85125168440814,255.0 56.291651245988504,223.5 56.29165124598851,160.5 110.85125168440813,129.0" fill="rgba(16, 18, 17, 1.0)" stroke="rgba(46, 42, 29, 1.0)" stroke-width="2.0" /><polygon points="220.83647796503186,256.5 220.83647796503186,319.5 166.27687752661222,351.0 111.71727708819259,319.5 111.71727708819259,256.5 166.27687752661222,225.0" fill="rgba(16, 18, 17, 1.0)" stroke="rgba(46, 42, 29, 1.0)" stroke-width="2.0" /><polygon points="276.2621038072359,352.5 276.2621038072359,415.5 221.70250336881628,447.0 167.14290293039664,415.5 167.14290293039664,352.5 221.70250336881628,321.0" fill="rgba(16, 18, 17, 1.0)" stroke="rgba(46, 42, 29, 1.0)" stroke-width="2.0" /><polygon points="331.68772964944,448.5 331.68772964944,511.5 277.12812921102034,543.0 222.5685287726007,511.5 222.5685287726007,448.5 277.12812921102034,417.0" fill="rgba(16, 18, 17, 1.0)" stroke="rgba(46, 42, 29, 1.0)" stroke-width="2.0" /><polygon points="387.1133554916441,544.5 387.1133554916441,607.5 332.55375505322445,639.0 277.9941546148048,607.5 277.9941546148048,544.5 332.55375505322445,513.0" fill="rgba(16, 18, 17, 1.0)" stroke="rgba(46, 42, 29, 1.0)" stroke-width="2.0" /><polygon points="442.53898133384814,640.5 442.53898133384814,703.5 387.9793808954285,735.0 333.41978045700887,703.5 333.41978045700887,640.5 387.9793808954285,609.0" fill="rgba(16, 18, 17, 1.0)" stroke="rgba(46, 42, 29, 1.0)" stroke-width="2.0" /><polygon points="54.559600438419636,-223.5 54.559600438419636,-160.5 3.857637417314163E-15,-129.0 -54.559600438419636,-160.5 -54.55960043841963,-223.5 -1.1572912251942487E-14,-255.0" fill="rgba(16, 18, 17, 1.0)" stroke="rgba(46, 42, 29, 1.0)" stroke-width="2.0" /><polygon points="109.9852262806237,-127.5 109.9852262806237,-64.5 55.42562584220408,-33.0 0.8660254037844339,-64.5 0.866025403784441,-127.5 55.425625842204056,-159.0" fill="rgba(16, 18, 17, 1.0)" stroke="rgba(46, 42, 29, 1.0)" stroke-width="2.0" /><polygon points="165.41085212282778,-31.499999999999996 165.41085212282778,31.499999999999996 110.85125168440814,63.0 56.291651245988504,31.499999999999996 56.29165124598851,-31.500000000000007 110.85125168440813,-63.0" fill="rgba(240, 138, 60, 1.0)" stroke="rgba(46, 42, 29, 1.0)" stroke-width="2.0" /><polygon points="220.83647796503186,64.5 220.83647796503186,127.5 166.27687752661222,159.0 111.71727708819259,127.5 111.71727708819259,64.5 166.27687752661222,33.0" fill="rgba(16, 18, 17, 1.0)" stroke="rgba(46, 42, 29, 1.0)" stroke-width="2.0" /><polygon points="276.2621038072359,160.5 276.2621038072359,223.5 221.70250336881628,255.0 167.14290293039664,223.5 167.14290293039664,160.5 221.70250336881628,129.0" fill="rgba(63, 182, 217, 1.0)" stroke="rgba(46, 42, 29, 1.0)" stroke-width="2.0" /><polygon points="331.68772964944,256.5 331.68772964944,319.5 277.12812921102034,351.0 222.5685287726007,319.5 222.5685287726007,256.5 277.12812921102034,225.0" fill="rgba(63, 182, 217, 1.0)" stroke="rgba(46, 42, 29, 1.0)" stroke-width="2.0" /><polygon points="387.1133554916441,352.5 387.1133554916441,415.5 332.55375505322445,447.0 277.9941546148048,415.5 277.9941546148048,352.5 332.55375505322445,321.0" fill="rgba(63, 182, 217, 1.0)" stroke="rgba(46, 42, 29, 1.0)" stroke-width="2.0" /><polygon points="442.5389813338481,448.5 442.5389813338481,511.5 387.97938089542845,543.0 333.4197804570088,511.5 333.4197804570088,448.5 387.97938089542845,417.0" fill="rgba(63, 182, 217, 1.0)" stroke="rgba(46, 42, 29, 1.0)" stroke-width="2.0" /><polygon points="497.9646071760522,544.5 497.9646071760522,607.5 443.40500673763256,639.0 388.8454062992129,607.5 388.8454062992129,544.5 443.40500673763256,513.0" fill="rgba(240, 138, 60, 1.0)" stroke="rgba(46, 42, 29, 1.0)" stroke-width="2.0" /><polygon points="165.41085212282778,-223.5 165.41085212282778,-160.5 110.85125168440814,-129.0 56.291651245988504,-160.5 56.29165124598851,-223.5 110.85125168440813,-255.0" fill="rgba(16, 18, 17, 1.0)" stroke="rgba(46, 42, 29, 1.0)" stroke-width="2.0" /><polygon points="220.83647796503186,-127.5 220.83647796503186,-64.5 166.27687752661222,-33.0 111.71727708819259,-64.5 111.71727708819259,-127.5 166.27687752661222,-159.0" fill="rgba(16, 18, 17, 1.0)" stroke="rgba(46, 42, 29, 1.0)" stroke-width="2.0" /><polygon points="276.2621038072359,-31.499999999999996 276.2621038072359,31.499999999999996 221.70250336881628,63.0 167.14290293039664,31.499999999999996 167.14290293039664,-31.500000000000007 221.70250336881628,-63.0" fill="rgba(16, 18, 17, 1.0)" stroke="rgba(46, 42, 29, 1.0)" stroke-width="2.0" /><polygon points="331.68772964944,64.5 331.68772964944,127.5 277.12812921102034,159.0 222.5685287726007,127.5 222.5685287726007,64.5 277.12812921102034,33.0" fill="rgba(240, 138, 60, 1.0)" stroke="rgba(46, 42, 29, 1.0)" stroke-width="2.0" /><polygon points="387.1133554916441,160.5 387.1133554916441,223.5 332.55375505322445,255.0 277.9941546148048,223.5 277.9941546148048,160.5 332.55375505322445,129.0" fill="rgba(63, 182, 217, 1.0)" stroke="rgba(46, 42, 29, 1.0)" stroke-width="2.0" /><polygon points="442.53898133384814,256.5 442.53898133384814,319.5 387.9793808954285,351.0 333.41978045700887,319.5 333.41978045700887,256.5 387.9793808954285,225.0" fill="rgba(63, 182, 217, 1.0)" stroke="rgba(46, 42, 29, 1.0)" stroke-width="2.0" /><polygon points="497.9646071760522,352.5 497.9646071760522,415.5 443.40500673763256,447.0 388.8454062992129,415.5 388.8454062992129,352.5 443.40500673763256,321.0" fill="rgba(63, 182, 217, 1.0)" stroke="rgba(46, 42, 29, 1.0)" stroke-width="2.0" /><polygon points="553.3902330182563,448.5 553.3902330182563,511.5 498.8306325798366,543.0 444.271032141417,511.5 444.271032141417,448.5 498.8306325798366,417.0" fill="rgba(16, 18, 17, 1.0)" stroke="rgba(46, 42, 29, 1.0)" stroke-width="2.0" /><polygon points="276.2621038072359,-223.5 276.2621038072359,-160.5 221.7025033688163,-129.0 167.14290293039667,-160.5 167.14290293039667,-223.5 221.7025033688163,-255.0" fill="rgba(16, 18, 17, 1.0)" stroke="rgba(46, 42, 29, 1.0)" stroke-width="2.0" /><polygon points="331.68772964944003,-127.5 331.68772964944003,-64.5 277.1281292110204,-33.0 222.56852877260076,-64.5 222.56852877260076,-127.5 277.1281292110204,-159.0" fill="rgba(240, 138, 60, 1.0)" stroke="rgba(46, 42, 29, 1.0)" stroke-width="2.0" /><polygon points="387.1133554916441,-31.499999999999996 387.1133554916441,31.499999999999996 332.55375505322445,63.0 277.9941546148048,31.499999999999996 277.9941546148048,-31.500000000000007 332.55375505322445,-63.0" fill="rgba(16, 18, 17, 1.0)" stroke="rgba(46, 42, 29, 1.0)" stroke-width="2.0" /><polygon points="442.53898133384814,64.5 442.53898133384814,127.5 387.9793808954285,159.0 333.41978045700887,127.5 333.41978045700887,64.5 387.9793808954285,33.0" fill="rgba(16, 18, 17, 1.0)" stroke="rgba(46, 42, 29, 1.0)" stroke-width="2.0" /><polygon points="497.9646071760522,160.5 497.9646071760522,223.5 443.40500673763256,255.0 388.8454062992129,223.5 388.8454062992129,160.5 443.40500673763256,129.0" fill="rgba(63, 182, 217, 1.0)" stroke="rgba(46, 42, 29, 1.0)" stroke-width="2.0" /><polygon points="553.3902330182564,256.5 553.3902330182564,319.5 498.8306325798367,351.0 444.27103214141704,319.5 444.27103214141704,256.5 498.8306325798367,225.0" fill="rgba(63, 182, 217, 1.0)" stroke="rgba(46, 42, 29, 1.0)" stroke-width="2.0" /><polygon points="608.8158588604604,352.5 608.8158588604604,415.5 554.2562584220407,447.0 499.69665798362104,415.5 499.69665798362104,352.5 554.2562584220407,321.0" fill="rgba(16, 18, 17, 1.0)" stroke="rgba(46, 42, 29, 1.0)" stroke-width="2.0" /><polygon points="387.1133554916441,-223.5 387.1133554916441,-160.5 332.55375505322445,-129.0 277.9941546148048,-160.5 277.9941546148048,-223.5 332.55375505322445,-255.0" fill="rgba(16, 18, 17, 1.0)" stroke="rgba(46, 42, 29, 1.0)" stroke-width="2.0" /><polygon points="442.53898133384814,-127.5 442.53898133384814,-64.5 387.9793808954285,-33.0 333.41978045700887,-64.5 333.41978045700887,-127.5 387.9793808954285,-159.0" fill="rgba(16, 18, 17, 1.0)" stroke="rgba(46, 42, 29, 1.0)" stroke-width="2.0" /><polygon points="497.9646071760522,-31.499999999999996 497.9646071760522,31.499999999999996 443.40500673763256,63.0 388.8454062992129,31.499999999999996 388.8454062992129,-31.500000000000007 443.40500673763256,-63.0" fill="rgba(16, 18, 17, 1.0)" stroke="rgba(46, 42, 29, 1.0)" stroke-width="2.0" /><polygon points="553.3902330182563,64.5 553.3902330182563,127.5 498.8306325798366,159.0 444.271032141417,127.5 444.271032141417,64.5 498.8306325798366,33.0" fill="rgba(63, 182, 217, 1.0)" stroke="rgba(46, 42, 29, 1.0)" stroke-width="2.0" /><polygon points="608.8158588604604,160.5 608.8158588604604,223.5 554.2562584220407,255.0 499.69665798362104,223.5 499.69665798362104,160.5 554.2562584220407,129.0" fill="rgba(63, 182, 217, 1.0)" stroke="rgba(46, 42, 29, 1.0)" stroke-width="2.0" /><polygon points="664.2414847026644,256.5 664.2414847026644,319.5 609.6818842642448,351.0 555.1222838258252,319.5 555.1222838258252,256.5 609.6818842642448,225.0" fill="rgba(63, 182, 217, 1.0)" stroke="rgba(46, 42, 29, 1.0)" stroke-width="2.0" /><polygon points="497.9646071760522,-223.5 497.9646071760522,-160.5 443.40500673763256,-129.0 388.8454062992129,-160.5 388.8454062992129,-223.5 443.40500673763256,-255.0" fill="rgba(16, 18, 17, 1.0)" stroke="rgba(46, 42, 29, 1.0)" stroke-width="2.0" /><polygon points="553.3902330182563,-127.5 553.3902330182563,-64.5 498.8306325798366,-33.0 444.271032141417,-64.5 444.271032141417,-127.5 498.8306325798366,-159.0" fill="rgba(16, 18, 17, 1.0)" stroke="rgba(46, 42, 29, 1.0)" stroke-width="2.0" /><polygon points="608.8158588604604,-31.499999999999996 608.8158588604604,31.499999999999996 554.2562584220407,63.0 499.69665798362104,31.499999999999996 499.69665798362104,-31.500000000000007 554.2562584220407,-63.0" fill="rgba(63, 182, 217, 1.0)" stroke="rgba(46, 42, 29, 1.0)" stroke-width="2.0" /><polygon points="595.1759587508554,-23.624999999999996 595.1759587508554,23.624999999999996 554.2562584220407,47.25 513.3365580932259,23.624999999999996 513.3365580932259,-23.625000000000004 554.2562584220407,-47.25" fill="rgba(0, 0, 0, 0.0)" stroke="rgba(179, 255, 255, 0.7686274509803922)" stroke-width="6.0" /><polygon points="664.2414847026644,64.5 664.2414847026644,127.5 609.6818842642448,159.0 555.1222838258252,127.5 555.1222838258252,64.5 609.6818842642448,33.0" fill="rgba(240, 138, 60, 1.0)" stroke="rgba(46, 42, 29, 1.0)" stroke-width="2.0" /><polygon points="719.6671105448684,160.5 719.6671105448684,223.5 665.1075101064488,255.0 610.5479096680292,223.5 610.5479096680292,160.5 665.1075101064488,129.0" fill="rgba(240, 138, 60, 1.0)" stroke="rgba(46, 42, 29, 1.0)" stroke-width="2.0" /><polygon points="608.8158588604604,-223.5 608.8158588604604,-160.5 554.2562584220408,-129.0 499.69665798362115,-160.5 499.69665798362115,-223.5 554.2562584220408,-255.0" fill="rgba(16, 18, 17, 1.0)" stroke="rgba(46, 42, 29, 1.0)" stroke-width="2.0" /><polygon points="664.2414847026644,-127.5 664.2414847026644,-64.5 609.6818842642448,-33.0 555.1222838258252,-64.5 555.1222838258252,-127.5 609.6818842642448,-159.0" fill="rgba(63, 182, 217, 1.0)" stroke="rgba(46, 42, 29, 1.0)" stroke-width="2.0" /><polygon points="650.6015845930596,-119.625 650.6015845930596,-72.375 609.6818842642448,-48.75 568.76218393543,-72.375 568.76218393543,-119.625 609.6818842642448,-143.25" fill="rgba(0, 0, 0, 0.0)" stroke="rgba(179, 255, 255, 0.7686274509803922)" stroke-width="6.0" /><polygon points="719.6671105448686,-31.499999999999996 719.6671105448686,31.499999999999996 665.1075101064489,63.0 610.5479096680292,31.499999999999996 610.5479096680293,-31.500000000000007 665.1075101064489,-63.0" fill="rgba(16, 18, 17, 1.0)" stroke="rgba(46, 42, 29, 1.0)" stroke-width="2.0" /><polygon points="775.0927363870726,64.5 775.0927363870726,127.5 720.533135948653,159.0 665.9735355102334,127.5 665.9735355102334,64.5 720.533135948653,33.0" fill="rgba(16, 18, 17, 1.0)" stroke="rgba(46, 42, 29, 1.0)" stroke-width="2.0" /><polygon points="719.6671105448686,-223.5 719.6671105448686,-160.5 665.1075101064489,-129.0 610.5479096680292,-160.5 610.5479096680293,-223.5 665.1075101064489,-255.0" fill="rgba(16, 18, 17, 1.0)" stroke="rgba(46, 42, 29, 1.0)" stroke-width="2.0" /><polygon points="775.0927363870726,-127.5 775.0927363870726,-64.5 720.5331359486529,-33.0 665.9735355102332,-64.5 665.9735355102333,-127.5 720.5331359486529,-159.0" fill="rgba(16, 18, 17, 1.0)" stroke="rgba(46, 42, 29, 1.0)" stroke-width="2.0" /><polygon points="830.5183622292766,-31.499999999999996 830.5183622292766,31.499999999999996 775.958761790857,63.0 721.3991613524374,31.499999999999996 721.3991613524374,-31.500000000000007 775.958761790857,-63.0" fill="rgba(16, 18, 17, 1.0)" stroke="rgba(46, 42, 29, 1.0)" stroke-width="2.0" /><polygon points="-167.1429029303967,736.5 -167.1429029303967,799.5 -221.70250336881634,831.0 -276.262103807236,799.5 -276.262103807236,736.5 -221.70250336881634,705.0" fill="rgba(16, 18, 17, 1.0)" stroke="rgba(46, 42, 29, 1.0)" stroke-width="2.0" /><polygon points="-111.71727708819265,832.5 -111.71727708819265,895.5 -166.27687752661228,927.0 -220.83647796503192,895.5 -220.83647796503192,832.5 -166.27687752661228,801.0" fill="rgba(16, 18, 17, 1.0)" stroke="rgba(46, 42, 29, 1.0)" stroke-width="2.0" /><polygon points="-56.291651245988476,736.5 -56.291651245988476,799.5 -110.85125168440811,831.0 -165.41085212282775,799.5 -165.41085212282775,736.5 -110.85125168440813,705.0" fill="rgba(16, 18, 17, 1.0)" stroke="rgba(46, 42, 29, 1.0)" stroke-width="2.0" /><polygon points="-0.8660254037844197,832.5 -0.8660254037844197,895.5 -55.42562584220405,927.0 -109.98522628062369,895.5 -109.98522628062369,832.5 -55.42562584220407,801.0" fill="rgba(16, 18, 17, 1.0)" stroke="rgba(46, 42, 29, 1.0)" stroke-width="2.0" /><polygon points="54.559600438419636,736.5 54.559600438419636,799.5 3.857637417314163E-15,831.0 -54.559600438419636,799.5 -54.55960043841963,736.5 -1.1572912251942487E-14,705.0" fill="rgba(16, 18, 17, 1.0)" stroke="rgba(46, 42, 29, 1.0)" stroke-width="2.0" /><polygon points="109.98522628062369,832.5 109.98522628062369,895.5 55.42562584220406,927.0 0.8660254037844197,895.5 0.8660254037844268,832.5 55.42562584220404,801.0" fill="rgba(16, 18, 17, 1.0)" stroke="rgba(46, 42, 29, 1.0)" stroke-width="2.0" /><polygon points="165.41085212282775,736.5 165.41085212282775,799.5 110.85125168440811,831.0 56.291651245988476,799.5 56.29165124598848,736.5 110.8512516844081,705.0" fill="rgba(240, 138, 60, 1.0)" stroke="rgba(46, 42, 29, 1.0)" stroke-width="2.0" /><polygon points="220.8364779650318,832.5 220.8364779650318,895.5 166.27687752661217,927.0 111.71727708819253,895.5 111.71727708819253,832.5 166.27687752661217,801.0" fill="rgba(16, 18, 17, 1.0)" stroke="rgba(46, 42, 29, 1.0)" stroke-width="2.0" /><polygon points="276.2621038072359,736.5 276.2621038072359,799.5 221.70250336881628,831.0 167.14290293039664,799.5 167.14290293039664,736.5 221.70250336881628,705.0" fill="rgba(16, 18, 17, 1.0)" stroke="rgba(46, 42, 29, 1.0)" stroke-width="2.0" /><polygon points="331.68772964944,832.5 331.68772964944,895.5 277.12812921102034,927.0 222.5685287726007,895.5 222.5685287726007,832.5 277.12812921102034,801.0" fill="rgba(16, 18, 17, 1.0)" stroke="rgba(46, 42, 29, 1.0)" stroke-width="2.0" /><polygon points="387.1133554916441,736.5 387.1133554916441,799.5 332.55375505322445,831.0 277.9941546148048,799.5 277.9941546148048,736.5 332.55375505322445,705.0" fill="rgba(16, 18, 17, 1.0)" stroke="rgba(46, 42, 29, 1.0)" stroke-width="2.0" /><polygon points="442.5389813338481,832.5 442.5389813338481,895.5 387.97938089542845,927.0 333.4197804570088,895.5 333.4197804570088,832.5 387.97938089542845,801.0" fill="rgba(16, 18, 17, 1.0)" stroke="rgba(46, 42, 29, 1.0)" stroke-width="2.0" /><polygon points="497.9646071760522,736.5 497.9646071760522,799.5 443.40500673763256,831.0 388.8454062992129,799.5 388.8454062992129,736.5 443.40500673763256,705.0" fill="rgba(16, 18, 17, 1.0)" stroke="rgba(46, 42, 29, 1.0)" stroke-width="2.0" /><polygon points="553.3902330182563,832.5 553.3902330182563,895.5 498.8306325798366,927.0 444.271032141417,895.5 444.271032141417,832.5 498.8306325798366,801.0" fill="rgba(16, 18, 17, 1.0)" stroke="rgba(46, 42, 29, 1.0)" stroke-width="2.0" /><polygon points="553.3902330182564,640.5 553.3902330182564,703.5 498.8306325798367,735.0 444.27103214141704,703.5 444.27103214141704,640.5 498.8306325798367,609.0" fill="rgba(16, 18, 17, 1.0)" stroke="rgba(46, 42, 29, 1.0)" stroke-width="2.0" /><polygon points="608.8158588604604,736.5 608.8158588604604,799.5 554.2562584220407,831.0 499.69665798362104,799.5 499.69665798362104,736.5 554.2562584220407,705.0" fill="rgba(16, 18, 17, 1.0)" stroke="rgba(46, 42, 29, 1.0)" stroke-width="2.0" /><polygon points="664.2414847026644,832.5 664.2414847026644,895.5 609.6818842642448,927.0 555.1222838258252,895.5 555.1222838258252,832.5 609.6818842642448,801.0" fill="rgba(16, 18, 17, 1.0)" stroke="rgba(46, 42, 29, 1.0)" stroke-width="2.0" /><polygon points="608.8158588604604,544.5 608.8158588604604,607.5 554.2562584220407,639.0 499.69665798362104,607.5 499.69665798362104,544.5 554.2562584220407,513.0" fill="rgba(16, 18, 17, 1.0)" stroke="rgba(46, 42, 29, 1.0)" stroke-width="2.0" /><polygon points="664.2414847026644,640.5 664.2414847026644,703.5 609.6818842642448,735.0 555.1222838258252,703.5 555.1222838258252,640.5 609.6818842642448,609.0" fill="rgba(16, 18, 17, 1.0)" stroke="rgba(46, 42, 29, 1.0)" stroke-width="2.0" /><polygon points="719.6671105448686,736.5 719.6671105448686,799.5 665.1075101064489,831.0 610.5479096680292,799.5 610.5479096680293,736.5 665.1075101064489,705.0" fill="rgba(16, 18, 17, 1.0)" stroke="rgba(46, 42, 29, 1.0)" stroke-width="2.0" /><polygon points="664.2414847026644,448.5 664.2414847026644,511.5 609.6818842642448,543.0 555.1222838258252,511.5 555.1222838258252,448.5 609.6818842642448,417.0" fill="rgba(16, 18, 17, 1.0)" stroke="rgba(46, 42, 29, 1.0)" stroke-width="2.0" /><polygon points="719.6671105448686,544.5 719.6671105448686,607.5 665.1075101064489,639.0 610.5479096680292,607.5 610.5479096680293,544.5 665.1075101064489,513.0" fill="rgba(16, 18, 17, 1.0)" stroke="rgba(46, 42, 29, 1.0)" stroke-width="2.0" /><polygon points="775.0927363870726,640.5 775.0927363870726,703.5 720.5331359486529,735.0 665.9735355102332,703.5 665.9735355102333,640.5 720.5331359486529,609.0" fill="rgba(16, 18, 17, 1.0)" stroke="rgba(46, 42, 29, 1.0)" stroke-width="2.0" /><polygon points="719.6671105448686,352.5 719.6671105448686,415.5 665.1075101064489,447.0 610.5479096680292,415.5 610.5479096680293,352.5 665.1075101064489,321.0" fill="rgba(16, 18, 17, 1.0)" stroke="rgba(46, 42, 29, 1.0)" stroke-width="2.0" /><polygon points="775.0927363870726,448.5 775.0927363870726,511.5 720.5331359486529,543.0 665.9735355102332,511.5 665.9735355102333,448.5 720.5331359486529,417.0" fill="rgba(16, 18, 17, 1.0)" stroke="rgba(46, 42, 29, 1.0)" stroke-width="2.0" /><polygon points="830.5183622292766,544.5 830.5183622292766,607.5 775.958761790857,639.0 721.3991613524374,607.5 721.3991613524374,544.5 775.958761790857,513.0" fill="rgba(16, 18, 17, 1.0)" stroke="rgba(46, 42, 29, 1.0)" stroke-width="2.0" /><polygon points="775.0927363870726,256.5 775.0927363870726,319.5 720.5331359486529,351.0 665.9735355102332,319.5 665.9735355102333,256.5 720.5331359486529,225.0" fill="rgba(16, 18, 17, 1.0)" stroke="rgba(46, 42, 29, 1.0)" stroke-width="2.0" /><polygon points="830.5183622292766,352.5 830.5183622292766,415.5 775.9587617908569,447.0 721.3991613524372,415.5 721.3991613524373,352.5 775.9587617908569,321.0" fill="rgba(16, 18, 17, 1.0)" stroke="rgba(46, 42, 29, 1.0)" stroke-width="2.0" /><polygon points="830.5183622292766,160.5 830.5183622292766,223.5 775.958761790857,255.0 721.3991613524374,223.5 721.3991613524374,160.5 775.958761790857,129.0" fill="rgba(16, 18, 17, 1.0)" stroke="rgba(46, 42, 29, 1.0)" stroke-width="2.0" /><polygon points="830.5183622292766,-223.5 830.5183622292766,-160.5 775.958761790857,-129.0 721.3991613524374,-160.5 721.3991613524374,-223.5 775.958761790857,-255.0" fill="rgba(16, 18, 17, 1.0)" stroke="rgba(46, 42, 29, 1.0)" stroke-width="2.0" /><polygon points="775.0927363870726,832.5 775.0927363870726,895.5 720.5331359486529,927.0 665.9735355102332,895.5 665.9735355102333,832.5 720.5331359486529,801.0" fill="rgba(16, 18, 17, 1.0)" stroke="rgba(46, 42, 29, 1.0)" stroke-width="2.0" /><polygon points="830.5183622292766,736.5 830.5183622292766,799.5 775.958761790857,831.0 721.3991613524374,799.5 721.3991613524374,736.5 775.958761790857,705.0" fill="rgba(16, 18, 17, 1.0)" stroke="rgba(46, 42, 29, 1.0)" stroke-width="2.0" /><polygon points="-222.56852877260076,832.5 -222.56852877260076,895.5 -277.1281292110204,927.0 -331.68772964944003,895.5 -331.68772964944003,832.5 -277.1281292110204,801.0" fill="rgba(16, 18, 17, 1.0)" stroke="rgba(46, 42, 29, 1.0)" stroke-width="2.0" /><polygon points="-111.71727708819259,256.5 -111.71727708819259,319.5 -166.27687752661222,351.0 -220.83647796503186,319.5 -220.83647796503186,256.5 -166.27687752661222,225.0" fill="rgba(0, 0, 0, 0.0)" stroke="rgba(58, 66, 63, 1.0)" stroke-width="4.0" /><polygon points="54.559600438419636,160.5 54.559600438419636,223.5 3.857637417314163E-15,255.0 -54.559600438419636,223.5 -54.55960043841963,160.5 -1.1572912251942487E-14,129.0" fill="rgba(0, 0, 0, 0.0)" stroke="rgba(58, 66, 63, 1.0)" stroke-width="4.0" /><polygon points="109.98522628062372,256.5 109.98522628062372,319.5 55.42562584220409,351.0 0.8660254037844481,319.5 0.8660254037844552,256.5 55.42562584220407,225.0" fill="rgba(0, 0, 0, 0.0)" stroke="rgba(58, 66, 63, 1.0)" stroke-width="4.0" /><polygon points="276.2621038072359,544.5 276.2621038072359,607.5 221.7025033688163,639.0 167.14290293039667,607.5 167.14290293039667,544.5 221.7025033688163,513.0" fill="rgba(0, 0, 0, 0.0)" stroke="rgba(58, 66, 63, 1.0)" stroke-width="4.0" /><polygon points="331.68772964944,640.5 331.68772964944,703.5 277.12812921102034,735.0 222.5685287726007,703.5 222.5685287726007,640.5 277.12812921102034,609.0" fill="rgba(0, 0, 0, 0.0)" stroke="rgba(58, 66, 63, 1.0)" stroke-width="4.0" /><polygon points="54.559600438419636,-31.499999999999996 54.559600438419636,31.499999999999996 3.857637417314163E-15,63.0 -54.559600438419636,31.499999999999996 -54.55960043841963,-31.500000000000007 -1.1572912251942487E-14,-63.0" fill="rgba(0, 0, 0, 0.0)" stroke="rgba(58, 66, 63, 1.0)" stroke-width="4.0" /><polygon points="165.41085212282778,-31.499999999999996 165.41085212282778,31.499999999999996 110.85125168440814,63.0 56.291651245988504,31.499999999999996 56.29165124598851,-31.500000000000007 110.85125168440813,-63.0" fill="rgba(0, 0, 0, 0.0)" stroke="rgba(58, 66, 63, 1.0)" stroke-width="4.0" /><polygon points="276.2621038072359,160.5 276.2621038072359,223.5 221.70250336881628,255.0 167.14290293039664,223.5 167.14290293039664,160.5 221.70250336881628,129.0" fill="rgba(0, 0, 0, 0.0)" stroke="rgba(58, 66, 63, 1.0)" stroke-width="4.0" /><polygon points="331.68772964944,256.5 331.68772964944,319.5 277.12812921102034,351.0 222.5685287726007,319.5 222.5685287726007,256.5 277.12812921102034,225.0" fill="rgba(0, 0, 0, 0.0)" stroke="rgba(58, 66, 63, 1.0)" stroke-width="4.0" /><polygon points="442.5389813338481,448.5 442.5389813338481,511.5 387.97938089542845,543.0 333.4197804570088,511.5 333.4197804570088,448.5 387.97938089542845,417.0" fill="rgba(0, 0, 0, 0.0)" stroke="rgba(58, 66, 63, 1.0)" stroke-width="4.0" /><polygon points="497.9646071760522,544.5 497.9646071760522,607.5 443.40500673763256,639.0 388.8454062992129,607.5 388.8454062992129,544.5 443.40500673763256,513.0" fill="rgba(0, 0, 0, 0.0)" stroke="rgba(58, 66, 63, 1.0)" stroke-width="4.0" /><polygon points="331.68772964944,64.5 331.68772964944,127.5 277.12812921102034,159.0 222.5685287726007,127.5 222.5685287726007,64.5 277.12812921102034,33.0" fill="rgba(0, 0, 0, 0.0)" stroke="rgba(58, 66, 63, 1.0)" stroke-width="4.0" /><polygon points="387.1133554916441,160.5 387.1133554916441,223.5 332.55375505322445,255.0 277.9941546148048,223.5 277.9941546148048,160.5 332.55375505322445,129.0" fill="rgba(0, 0, 0, 0.0)" stroke="rgba(58, 66, 63, 1.0)" stroke-width="4.0" /><polygon points="497.9646071760522,352.5 497.9646071760522,415.5 443.40500673763256,447.0 388.8454062992129,415.5 388.8454062992129,352.5 443.40500673763256,321.0" fill="rgba(0, 0, 0, 0.0)" stroke="rgba(58, 66, 63, 1.0)" stroke-width="4.0" /><polygon points="331.68772964944003,-127.5 331.68772964944003,-64.5 277.1281292110204,-33.0 222.56852877260076,-64.5 222.56852877260076,-127.5 277.1281292110204,-159.0" fill="rgba(0, 0, 0, 0.0)" stroke="rgba(58, 66, 63, 1.0)" stroke-width="4.0" /><polygon points="553.3902330182564,256.5 553.3902330182564,319.5 498.8306325798367,351.0 444.27103214141704,319.5 444.27103214141704,256.5 498.8306325798367,225.0" fill="rgba(0, 0, 0, 0.0)" stroke="rgba(58, 66, 63, 1.0)" stroke-width="4.0" /><polygon points="608.8158588604604,160.5 608.8158588604604,223.5 554.2562584220407,255.0 499.69665798362104,223.5 499.69665798362104,160.5 554.2562584220407,129.0" fill="rgba(0, 0, 0, 0.0)" stroke="rgba(58, 66, 63, 1.0)" stroke-width="4.0" /><polygon points="664.2414847026644,256.5 664.2414847026644,319.5 609.6818842642448,351.0 555.1222838258252,319.5 555.1222838258252,256.5 609.6818842642448,225.0" fill="rgba(0, 0, 0, 0.0)" stroke="rgba(58, 66, 63, 1.0)" stroke-width="4.0" /><polygon points="664.2414847026644,64.5 664.2414847026644,127.5 609.6818842642448,159.0 555.1222838258252,127.5 555.1222838258252,64.5 609.6818842642448,33.0" fill="rgba(0, 0, 0, 0.0)" stroke="rgba(58, 66, 63, 1.0)" stroke-width="4.0" /><polygon points="719.6671105448684,160.5 719.6671105448684,223.5 665.1075101064488,255.0 610.5479096680292,223.5 610.5479096680292,160.5 665.1075101064488,129.0" fill="rgba(0, 0, 0, 0.0)" stroke="rgba(58, 66, 63, 1.0)" stroke-width="4.0" /><polygon points="165.41085212282775,736.5 165.41085212282775,799.5 110.85125168440811,831.0 56.291651245988476,799.5 56.29165124598848,736.5 110.8512516844081,705.0" fill="rgba(0, 0, 0, 0.0)" stroke="rgba(58, 66, 63, 1.0)" stroke-width="4.0" /><polygon points="388.845406299213,351.5 388.845406299213,416.5 332.55375505322445,449.0 276.2621038072359,416.5 276.2621038072359,351.5 332.55375505322445,319.0" fill="rgba(220, 255, 255, 0.18823529411764706)" stroke="rgba(220, 255, 255, 1.0)" stroke-width="6.0" /><polygon points="444.27103214141704,255.5 444.27103214141704,320.5 387.9793808954285,353.0 331.68772964944,320.5 331.68772964944,255.5 387.9793808954285,223.0" fill="rgba(220, 255, 255, 0.18823529411764706)" stroke="rgba(220, 255, 255, 1.0)" stroke-width="6.0" /><polygon points="499.6966579836211,159.5 499.6966579836211,224.5 443.40500673763256,257.0 387.11335549164403,224.5 387.11335549164403,159.5 443.40500673763256,127.0" fill="rgba(220, 255, 255, 0.18823529411764706)" stroke="rgba(220, 255, 255, 1.0)" stroke-width="6.0" /><polygon points="555.1222838258251,63.50000000000001 555.1222838258251,128.5 498.8306325798366,161.0 442.5389813338481,128.5 442.5389813338481,63.49999999999999 498.8306325798366,31.0" fill="rgba(220, 255, 255, 0.18823529411764706)" stroke="rgba(220, 255, 255, 1.0)" stroke-width="6.0" /><polygon points="610.5479096680292,-32.49999999999999 610.5479096680292,32.49999999999999 554.2562584220407,65.0 497.96460717605214,32.49999999999999 497.96460717605214,-32.50000000000001 554.2562584220407,-65.0" fill="rgba(220, 255, 255, 0.18823529411764706)" stroke="rgba(220, 255, 255, 1.0)" stroke-width="6.0" /><polygon points="665.9735355102333,-128.5 665.9735355102333,-63.50000000000001 609.6818842642448,-31.0 553.3902330182563,-63.50000000000001 553.3902330182563,-128.5 609.6818842642448,-161.0" fill="rgba(220, 255, 255, 0.18823529411764706)" stroke="rgba(220, 255, 255, 1.0)" stroke-width="6.0" /></g></svg>