<svg xmlns="http://www.w3.org/2000/svg" viewBox="-253.7025033688163 -192.0 1007 1056"><rect x="-253.7025033688163" y="-192.0" width="100%" height="100%" fill="rgba(15, 23, 42, 1.0)" /><defs><mask x="-253.7025033688163" y="-192.0" width="100%" height="100%" id="full-mask" mask-type="luminance" maskUnits="userSpaceOnUse"><rect x="-253.7025033688163" y="-192.0" width="100%" height="100%" fill="rgba(255, 255, 255, 1.0)" /></mask><mask x="-253.7025033688163" y="-192.0" width="100%" height="100%" id="text-mask" mask-type="luminance" maskUnits="userSpaceOnUse"><rect x="-253.7025033688163" y="-192.0" width="100%" height="100%" fill="rgba(255, 255, 255, 1.0)" /></mask></defs><g mask="url(#full-mask)"><polygon points="-226.89865579152294,643.0 -226.89865579152294,701.0 -277.1281292110204,730.0 -327.3576026305178,701.0 -327.3576026305178,643.0 -277.1281292110204,614.0" fill="rgba(0, 0, 0, 0.0)" stroke="rgba(35, 45, 67, 1.0)" stroke-width="2.0" /><polygon points="-226.89865579152288,451.0 -226.89865579152288,509.0 -277.12812921102034,538.0 -327.35760263051776,509.0 -327.35760263051776,451.0 -277.12812921102034,422.0" fill="rgba(0, 0, 0, 0.0)" stroke="rgba(35, 45, 67, 1.0)" stroke-width="2.0" /><polygon points="-171.47302994931877,547.0 -171.47302994931877,605.0 -221.70250336881622,634.0 -271.93197678831365,605.0 -271.93197678831365,547.0 -221.70250336881622,518.0" fill="rgba(0, 0, 0, 0.0)" stroke="rgba(35, 45, 67, 1.0)" stroke-width="2.0" /><polygon points="-116.04740410711472,643.0 -116.04740410711472,701.0 -166.27687752661217,730.0 -216.50635094610962,701.0 -216.5063509461096,643.0 -166.27687752661217,614.0" fill="rgba(0, 0, 0, 0.0)" stroke="rgba(35, 45, 67, 1.0)" stroke-width="2.0" /><polygon points="-226.89865579152288,259.0 -226.89865579152288,317.0 -277.12812921102034,346.0 -327.35760263051776,317.0 -327.35760263051776,259.0 -277.12812921102034,230.0" fill="rgba(0, 0, 0, 0.0)" stroke="rgba(35, 45, 67, 1.0)" stroke-width="2.0" /><polygon points="-171.47302994931883,355.0 -171.47302994931883,413.0 -221.70250336881628,442.0 -271.9319767883137,413.0 -271.9319767883137,355.0 -221.70250336881628,326.0" fill="rgba(0, 0, 0, 0.0)" stroke="rgba(35, 45, 67, 1.0)" stroke-width="2.0" /><polygon points="-116.04740410711477,451.0 -116.04740410711477,509.0 -166.27687752661222,538.0 -216.50635094610968,509.0 -216.50635094610965,451.0 -166.27687752661222,422.0" fill="rgba(0, 0, 0, 0.0)" stroke="rgba(35, 45, 67, 1.0)" stroke-width="2.0" /><polygon points="-60.62177826491067,547.0 -60.62177826491067,605.0 -110.85125168440811,634.0 -161.08072510390556,605.0 -161.08072510390554,547.0 -110.85125168440813,518.0" fill="rgba(0, 0, 0, 0.0)" stroke="rgba(35, 45, 67, 1.0)" stroke-width="2.0" /><polygon points="-5.196152422706611,643.0 -5.196152422706611,701.0 -55.425625842204056,730.0 -105.65509926170151,701.0 -105.6550992617015,643.0 -55.42562584220406,614.0" fill="rgba(0, 0, 0, 0.0)" stroke="rgba(35, 45, 67, 1.0)" stroke-width="2.0" /><polygon points="-226.89865579152294,67.0 -226.89865579152294,125.0 -277.1281292110204,154.0 -327.3576026305178,125.0 -327.3576026305178,67.0 -277.1281292110204,38.0" fill="rgba(0, 0, 0, 0.0)" stroke="rgba(35, 45, 67, 1.0)" stroke-width="2.0" /><polygon points="-171.47302994931886,163.0 -171.47302994931886,221.0 -221.7025033688163,250.0 -271.93197678831376,221.0 -271.93197678831376,163.0 -221.7025033688163,134.0" fill="rgba(0, 0, 0, 0.0)" stroke="rgba(35, 45, 67, 1.0)" stroke-width="2.0" /><polygon points="-116.04740410711477,259.0 -116.04740410711477,317.0 -166.27687752661222,346.0 -216.50635094610968,317.0 -216.50635094610965,259.0 -166.27687752661222,230.0" fill="rgba(251, 193, 57, 1.0)" stroke="rgba(35, 45, 67, 1.0)" stroke-width="2.0" /><polygon points="-60.62177826491072,355.0 -60.62177826491072,413.0 -110.85125168440817,442.0 -161.08072510390562,413.0 -161.0807251039056,355.0 -110.85125168440818,326.0" fill="rgba(0, 0, 0, 0.0)" stroke="rgba(35, 45, 67, 1.0)" stroke-width="2.0" /><polygon points="-5.1961524227066676,451.0 -5.1961524227066676,509.0 -55.42562584220411,538.0 -105.65509926170157,509.0 -105.65509926170155,451.0 -55.42562584220412,422.0" fill="rgba(0, 0, 0, 0.0)" stroke="rgba(35, 45, 67, 1.0)" stroke-width="2.0" /><polygon points="50.229473419497445,547.0 50.229473419497445,605.0 3.5514757175273244E-15,634.0 -50.229473419497445,605.0 -50.22947341949744,547.0 -1.0654427152581972E-14,518.0" fill="rgba(0, 0, 0, 0.0)" stroke="rgba(35, 45, 67, 1.0)" stroke-width="2.0" /><polygon points="105.65509926170151,643.0 105.65509926170151,701.0 55.425625842204056,730.0 5.196152422706611,701.0 5.196152422706618,643.0 55.42562584220405,614.0" fill="rgba(0, 0, 0, 0.0)" stroke="rgba(35, 45, 67, 1.0)" stroke-width="2.0" /><polygon points="-226.89865579152288,-125.0 -226.89865579152288,-67.0 -277.12812921102034,-38.0 -327.35760263051776,-67.0 -327.35760263051776,-125.0 -277.12812921102034,-154.0" fill="rgba(0, 0, 0, 0.0)" stroke="rgba(35, 45, 67, 1.0)" stroke-width="2.0" /><polygon points="-171.47302994931883,-28.999999999999996 -171.47302994931883,28.999999999999996 -221.70250336881628,58.0 -271.9319767883137,28.999999999999996 -271.9319767883137,-29.000000000000007 -221.70250336881628,-58.0" fill="rgba(0, 0, 0, 0.0)" stroke="rgba(35, 45, 67, 1.0)" stroke-width="2.0" /><polygon points="-116.04740410711477,67.0 -116.04740410711477,125.0 -166.27687752661222,154.0 -216.50635094610968,125.0 -216.50635094610965,67.0 -166.27687752661222,38.0" fill="rgba(0, 0, 0, 0.0)" stroke="rgba(35, 45, 67, 1.0)" stroke-width="2.0" /><polygon points="-60.621778264910695,163.0 -60.621778264910695,221.0 -110.85125168440814,250.0 -161.0807251039056,221.0 -161.0807251039056,163.0 -110.85125168440815,134.0" fill="rgba(0, 0, 0, 0.0)" stroke="rgba(35, 45, 67, 1.0)" stroke-width="2.0" /><polygon points="-5.196152422706611,259.0 -5.196152422706611,317.0 -55.425625842204056,346.0 -105.65509926170151,317.0 -105.6550992617015,259.0 -55.42562584220406,230.0" fill="rgba(0, 0, 0, 0.0)" stroke="rgba(35, 45, 67, 1.0)" stroke-width="2.0" /><polygon points="50.229473419497445,355.0 50.229473419497445,413.0 3.5514757175273244E-15,442.0 -50.229473419497445,413.0 -50.22947341949744,355.0 -1.0654427152581972E-14,326.0" fill="rgba(0, 0, 0, 0.0)" stroke="rgba(35, 45, 67, 1.0)" stroke-width="2.0" /><polygon points="105.65509926170151,451.0 105.65509926170151,509.0 55.425625842204056,538.0 5.196152422706611,509.0 5.196152422706618,451.0 55.42562584220405,422.0" fill="rgba(0, 0, 0, 0.0)" stroke="rgba(35, 45, 67, 1.0)" stroke-width="2.0" /><polygon points="161.08072510390562,547.0 161.08072510390562,605.0 110.85125168440817,634.0 60.62177826491072,605.0 60.62177826491073,547.0 110.85125168440815,518.0" fill="rgba(0, 0, 0, 0.0)" stroke="rgba(35, 45, 67, 1.0)" stroke-width="2.0" /><polygon points="216.50635094610968,643.0 216.50635094610968,701.0 166.27687752661222,730.0 116.04740410711477,701.0 116.04740410711479,643.0 166.27687752661222,614.0" fill="rgba(0, 0, 0, 0.0)" stroke="rgba(35, 45, 67, 1.0)" stroke-width="2.0" /><polygon points="-171.47302994931883,-221.0 -171.47302994931883,-163.0 -221.70250336881628,-134.0 -271.9319767883137,-163.0 -271.9319767883137,-221.0 -221.70250336881628,-250.0" fill="rgba(0, 0, 0, 0.0)" stroke="rgba(35, 45, 67, 1.0)" stroke-width="2.0" /><polygon points="-116.04740410711477,-125.0 -116.04740410711477,-67.0 -166.27687752661222,-38.0 -216.50635094610968,-67.0 -216.50635094610965,-125.0 -166.27687752661222,-154.0" fill="rgba(0, 0, 0, 0.0)" stroke="rgba(35, 45, 67, 1.0)" stroke-width="2.0" /><polygon points="-60.621778264910695,-28.999999999999996 -60.621778264910695,28.999999999999996 -110.85125168440814,58.0 -161.0807251039056,28.999999999999996 -161.0807251039056,-29.000000000000007 -110.85125168440815,-58.0" fill="rgba(0, 0, 0, 0.0)" stroke="rgba(35, 45, 67, 1.0)" stroke-width="2.0" /><polygon points="-5.196152422706625,67.0 -5.196152422706625,125.0 -55.42562584220407,154.0 -105.65509926170151,125.0 -105.65509926170151,67.0 -55.42562584220408,38.0" fill="rgba(0, 0, 0, 0.0)" stroke="rgba(35, 45, 67, 1.0)" stroke-width="2.0" /><polygon points="50.229473419497445,163.0 50.229473419497445,221.0 3.5514757175273244E-15,250.0 -50.229473419497445,221.0 -50.22947341949744,163.0 -1.0654427152581972E-14,134.0" fill="rgba(251, 193, 57, 1.0)" stroke="rgba(35, 45, 67, 1.0)" stroke-width="2.0" /><polygon points="105.65509926170154,259.0 105.65509926170154,317.0 55.425625842204084,346.0 5.196152422706639,317.0 5.196152422706646,259.0 55.42562584220408,230.0" fill="rgba(251, 193, 57, 1.0)" stroke="rgba(35, 45, 67, 1.0)" stroke-width="2.0" /><polygon points="161.0807251039056,355.0 161.0807251039056,413.0 110.85125168440814,442.0 60.621778264910695,413.0 60.6217782649107,355.0 110.85125168440813,326.0" fill="rgba(0, 0, 0, 0.0)" stroke="rgba(35, 45, 67, 1.0)" stroke-width="2.0" /><polygon points="216.50635094610965,451.0 216.50635094610965,509.0 166.2768775266122,538.0 116.04740410711474,509.0 116.04740410711476,451.0 166.2768775266122,422.0" fill="rgba(0, 0, 0, 0.0)" stroke="rgba(35, 45, 67, 1.0)" stroke-width="2.0" /><polygon points="271.93197678831376,547.0 271.93197678831376,605.0 221.7025033688163,634.0 171.47302994931886,605.0 171.47302994931886,547.0 221.7025033688163,518.0" fill="rgba(251, 193, 57, 1.0)" stroke="rgba(35, 45, 67, 1.0)" stroke-width="2.0" /><polygon points="327.35760263051776,643.0 327.35760263051776,701.0 277.12812921102034,730.0 226.89865579152288,701.0 226.8986557915229,643.0 277.12812921102034,614.0" fill="rgba(251, 193, 57, 1.0)" stroke="rgba(35, 45, 67, 1.0)" stroke-width="2.0" /><polygon points="-60.621778264910695,-221.0 -60.621778264910695,-163.0 -110.85125168440814,-134.0 -161.0807251039056,-163.0 -161.0807251039056,-221.0 -110.85125168440815,-250.0" fill="rgba(0, 0, 0, 0.0)" stroke="rgba(35, 45, 67, 1.0)" stroke-width="2.0" /><polygon points="-5.196152422706625,-125.0 -5.196152422706625,-67.0 -55.42562584220407,-38.0 -105.65509926170151,-67.0 -105.65509926170151,-125.0 -55.42562584220408,-154.0" fill="rgba(0, 0, 0, 0.0)" stroke="rgba(35, 45, 67, 1.0)" stroke-width="2.0" /><polygon points="50.229473419497445,-28.999999999999996 50.229473419497445,28.999999999999996 3.5514757175273244E-15,58.0 -50.229473419497445,28.999999999999996 -50.22947341949744,-29.000000000000007 -1.0654427152581972E-14,-58.0" fill="rgba(251, 193, 57, 1.0)" stroke="rgba(35, 45, 67, 1.0)" stroke-width="2.0" /><polygon points="105.65509926170151,67.0 105.65509926170151,125.0 55.42562584220407,154.0 5.196152422706625,125.0 5.196152422706632,67.0 55.42562584220406,38.0" fill="rgba(0, 0, 0, 0.0)" stroke="rgba(35, 45, 67, 1.0)" stroke-width="2.0" /><polygon points="161.0807251039056,163.0 161.0807251039056,221.0 110.85125168440814,250.0 60.621778264910695,221.0 60.6217782649107,163.0 110.85125168440813,134.0" fill="rgba(0, 0, 0, 0.0)" stroke="rgba(35, 45, 67, 1.0)" stroke-width="2.0" /><polygon points="216.50635094610968,259.0 216.50635094610968,317.0 166.27687752661222,346.0 116.04740410711477,317.0 116.04740410711479,259.0 166.27687752661222,230.0" fill="rgba(0, 0, 0, 0.0)" stroke="rgba(35, 45, 67, 1.0)" stroke-width="2.0" /><polygon points="271.9319767883137,355.0 271.9319767883137,413.0 221.70250336881628,442.0 171.47302994931883,413.0 171.47302994931886,355.0 221.70250336881628,326.0" fill="rgba(0, 0, 0, 0.0)" stroke="rgba(35, 45, 67, 1.0)" stroke-width="2.0" /><polygon points="327.35760263051776,451.0 327.35760263051776,509.0 277.12812921102034,538.0 226.89865579152288,509.0 226.8986557915229,451.0 277.12812921102034,422.0" fill="rgba(0, 0, 0, 0.0)" stroke="rgba(35, 45, 67, 1.0)" stroke-width="2.0" /><polygon points="382.7832284727219,547.0 382.7832284727219,605.0 332.55375505322445,634.0 282.324281633727,605.0 282.324281633727,547.0 332.55375505322445,518.0" fill="rgba(0, 0, 0, 0.0)" stroke="rgba(35, 45, 67, 1.0)" stroke-width="2.0" /><polygon points="438.20885431492593,643.0 438.20885431492593,701.0 387.9793808954285,730.0 337.7499074759311,701.0 337.7499074759311,643.0 387.9793808954285,614.0" fill="rgba(0, 0, 0, 0.0)" stroke="rgba(35, 45, 67, 1.0)" stroke-width="2.0" /><polygon points="50.229473419497445,-221.0 50.229473419497445,-163.0 3.5514757175273244E-15,-134.0 -50.229473419497445,-163.0 -50.22947341949744,-221.0 -1.0654427152581972E-14,-250.0" fill="rgba(0, 0, 0, 0.0)" stroke="rgba(35, 45, 67, 1.0)" stroke-width="2.0" /><polygon points="105.65509926170151,-125.0 105.65509926170151,-67.0 55.42562584220407,-38.0 5.196152422706625,-67.0 5.196152422706632,-125.0 55.42562584220406,-154.0" fill="rgba(0, 0, 0, 0.0)" stroke="rgba(35, 45, 67, 1.0)" stroke-width="2.0" /><polygon points="161.0807251039056,-28.999999999999996 161.0807251039056,28.999999999999996 110.85125168440814,58.0 60.621778264910695,28.999999999999996 60.6217782649107,-29.000000000000007 110.85125168440813,-58.0" fill="rgba(251, 193, 57, 1.0)" stroke="rgba(35, 45, 67, 1.0)" stroke-width="2.0" /><polygon points="216.50635094610968,67.0 216.50635094610968,125.0 166.27687752661222,154.0 116.04740410711477,125.0 116.04740410711479,67.0 166.27687752661222,38.0" fill="rgba(0, 0, 0, 0.0)" stroke="rgba(35, 45, 67, 1.0)" stroke-width="2.0" /><polygon points="271.9319767883137,163.0 271.9319767883137,221.0 221.70250336881628,250.0 171.47302994931883,221.0 171.47302994931886,163.0 221.70250336881628,134.0" fill="rgba(56, 189, 248, 1.0)" stroke="rgba(35, 45, 67, 1.0)" stroke-width="2.0" /><polygon points="327.35760263051776,259.0 327.35760263051776,317.0 277.12812921102034,346.0 226.89865579152288,317.0 226.8986557915229,259.0 277.12812921102034,230.0" fill="rgba(56, 189, 248, 1.0)" stroke="rgba(35, 45, 67, 1.0)" stroke-width="2.0" /><polygon points="382.7832284727219,355.0 382.7832284727219,413.0 332.55375505322445,442.0 282.324281633727,413.0 282.324281633727,355.0 332.55375505322445,326.0" fill="rgba(56, 189, 248, 1.0)" stroke="rgba(35, 45, 67, 1.0)" stroke-width="2.0" /><path d="M 382.7832284727219 356.5 L 382.7832284727219 411.5 Q 382.7832284727219 413.0 381.48419036704524 413.75 L 333.8527931589011 441.25 Q 332.55375505322445 442.0 331.2547169475478 441.25 L 283.62331973940366 413.75 Q 282.324281633727 413.0 282.324281633727 411.5 L 282.324281633727 356.5 Q 282.324281633727 355.0 283.62331973940366 354.25 L 331.2547169475478 326.75 Q 332.55375505322445 326.0 333.8527931589011 326.75 L 381.48419036704524 354.25 Q 382.7832284727219 355.0 382.7832284727219 356.5 Z" fill="rgba(255, 255, 255, 0.18823529411764706)" stroke="rgba(255, 255, 255, 1.0)" stroke-width="6.0" /><polygon points="438.2088543149259,451.0 438.2088543149259,509.0 387.97938089542845,538.0 337.749907475931,509.0 337.749907475931,451.0 387.97938089542845,422.0" fill="rgba(56, 189, 248, 1.0)" stroke="rgba(35, 45, 67, 1.0)" stroke-width="2.0" /><polygon points="493.63448015713,547.0 493.63448015713,605.0 443.40500673763256,634.0 393.17553331813514,605.0 393.17553331813514,547.0 443.40500673763256,518.0" fill="rgba(251, 193, 57, 1.0)" stroke="rgba(35, 45, 67, 1.0)" stroke-width="2.0" /><polygon points="161.0807251039056,-221.0 161.0807251039056,-163.0 110.85125168440814,-134.0 60.621778264910695,-163.0 60.6217782649107,-221.0 110.85125168440813,-250.0" fill="rgba(0, 0, 0, 0.0)" stroke="rgba(35, 45, 67, 1.0)" stroke-width="2.0" /><polygon points="216.50635094610968,-125.0 216.50635094610968,-67.0 166.27687752661222,-38.0 116.04740410711477,-67.0 116.04740410711479,-125.0 166.27687752661222,-154.0" fill="rgba(0, 0, 0, 0.0)" stroke="rgba(35, 45, 67, 1.0)" stroke-width="2.0" /><polygon points="271.9319767883137,-28.999999999999996 271.9319767883137,28.999999999999996 221.70250336881628,58.0 171.47302994931883,28.999999999999996 171.47302994931886,-29.000000000000007 221.70250336881628,-58.0" fill="rgba(0, 0, 0, 0.0)" stroke="rgba(35, 45, 67, 1.0)" stroke-width="2.0" /><polygon points="327.35760263051776,67.0 327.35760263051776,125.0 277.12812921102034,154.0 226.89865579152288,125.0 226.8986557915229,67.0 277.12812921102034,38.0" fill="rgba(251, 193, 57, 1.0)" stroke="rgba(35, 45, 67, 1.0)" stroke-width="2.0" /><polygon points="382.7832284727219,163.0 382.7832284727219,221.0 332.55375505322445,250.0 282.324281633727,221.0 282.324281633727,163.0 332.55375505322445,134.0" fill="rgba(56, 189, 248, 1.0)" stroke="rgba(35, 45, 67, 1.0)" stroke-width="2.0" /><polygon points="438.20885431492593,259.0 438.20885431492593,317.0 387.9793808954285,346.0 337.7499074759311,317.0 337.7499074759311,259.0 387.9793808954285,230.0" fill="rgba(56, 189, 248, 1.0)" stroke="rgba(35, 45, 67, 1.0)" stroke-width="2.0" /><path d="M 438.20885431492593 260.5 L 438.20885431492593 315.5 Q 438.20885431492593 317.0 436.9098162092493 317.75 L 389.27841900110514 345.25 Q 387.9793808954285 346.0 386.6803427897519 345.25 L 339.0489455816077 317.75 Q 337.7499074759311 317.0 337.7499074759311 315.5 L 337.7499074759311 260.5 Q 337.7499074759311 259.0 339.0489455816077 258.25 L 386.6803427897519 230.75 Q 387.9793808954285 230.0 389.27841900110514 230.75 L 436.9098162092493 258.25 Q 438.20885431492593 259.0 438.20885431492593 260.5 Z" fill="rgba(255, 255, 255, 0.18823529411764706)" stroke="rgba(255, 255, 255, 1.0)" stroke-width="6.0" /><polygon points="493.63448015713,355.0 493.63448015713,413.0 443.40500673763256,442.0 393.17553331813514,413.0 393.17553331813514,355.0 443.40500673763256,326.0" fill="rgba(56, 189, 248, 1.0)" stroke="rgba(35, 45, 67, 1.0)" stroke-width="2.0" /><polygon points="549.060105999334,451.0 549.060105999334,509.0 498.8306325798366,538.0 448.6011591603392,509.0 448.6011591603392,451.0 498.8306325798366,422.0" fill="rgba(0, 0, 0, 0.0)" stroke="rgba(35, 45, 67, 1.0)" stroke-width="2.0" /><polygon points="271.93197678831376,-221.0 271.93197678831376,-163.0 221.7025033688163,-134.0 171.47302994931886,-163.0 171.47302994931886,-221.0 221.7025033688163,-250.0" fill="rgba(0, 0, 0, 0.0)" stroke="rgba(35, 45, 67, 1.0)" stroke-width="2.0" /><polygon points="327.3576026305178,-125.0 327.3576026305178,-67.0 277.1281292110204,-38.0 226.89865579152294,-67.0 226.89865579152297,-125.0 277.1281292110204,-154.0" fill="rgba(251, 193, 57, 1.0)" stroke="rgba(35, 45, 67, 1.0)" stroke-width="2.0" /><polygon points="382.7832284727219,-28.999999999999996 382.7832284727219,28.999999999999996 332.55375505322445,58.0 282.324281633727,28.999999999999996 282.324281633727,-29.000000000000007 332.55375505322445,-58.0" fill="rgba(0, 0, 0, 0.0)" stroke="rgba(35, 45, 67, 1.0)" stroke-width="2.0" /><polygon points="438.20885431492593,67.0 438.20885431492593,125.0 387.9793808954285,154.0 337.7499074759311,125.0 337.7499074759311,67.0 387.9793808954285,38.0" fill="rgba(0, 0, 0, 0.0)" stroke="rgba(35, 45, 67, 1.0)" stroke-width="2.0" /><polygon points="493.63448015713,163.0 493.63448015713,221.0 443.40500673763256,250.0 393.17553331813514,221.0 393.17553331813514,163.0 443.40500673763256,134.0" fill="rgba(56, 189, 248, 1.0)" stroke="rgba(35, 45, 67, 1.0)" stroke-width="2.0" /><path d="M 493.63448015713 164.5 L 493.63448015713 219.5 Q 493.63448015713 221.0 492.33544205145336 221.75 L 444.7040448433092 249.25 Q 443.40500673763256 250.0 442.10596863195593 249.25 L 394.47457142381177 221.75 Q 393.17553331813514 221.0 393.17553331813514 219.5 L 393.17553331813514 164.5 Q 393.17553331813514 163.0 394.47457142381177 162.25 L 442.10596863195593 134.75 Q 443.40500673763256 134.0 444.7040448433092 134.75 L 492.33544205145336 162.25 Q 493.63448015713 163.0 493.63448015713 164.5 Z" fill="rgba(255, 255, 255, 0.18823529411764706)" stroke="rgba(255, 255, 255, 1.0)" stroke-width="6.0" /><polygon points="549.0601059993342,259.0 549.0601059993342,317.0 498.8306325798367,346.0 448.60115916033925,317.0 448.60115916033925,259.0 498.8306325798367,230.0" fill="rgba(56, 189, 248, 1.0)" stroke="rgba(35, 45, 67, 1.0)" stroke-width="2.0" /><polygon points="604.4857318415382,355.0 604.4857318415382,413.0 554.2562584220407,442.0 504.02678500254325,413.0 504.02678500254325,355.0 554.2562584220407,326.0" fill="rgba(0, 0, 0, 0.0)" stroke="rgba(35, 45, 67, 1.0)" stroke-width="2.0" /><polygon points="382.7832284727219,-221.0 382.7832284727219,-163.0 332.55375505322445,-134.0 282.324281633727,-163.0 282.324281633727,-221.0 332.55375505322445,-250.0" fill="rgba(0, 0, 0, 0.0)" stroke="rgba(35, 45, 67, 1.0)" stroke-width="2.0" /><polygon points="438.20885431492593,-125.0 438.20885431492593,-67.0 387.9793808954285,-38.0 337.7499074759311,-67.0 337.7499074759311,-125.0 387.9793808954285,-154.0" fill="rgba(0, 0, 0, 0.0)" stroke="rgba(35, 45, 67, 1.0)" stroke-width="2.0" /><polygon points="493.63448015713,-28.999999999999996 493.63448015713,28.999999999999996 443.40500673763256,58.0 393.17553331813514,28.999999999999996 393.17553331813514,-29.000000000000007 443.40500673763256,-58.0" fill="rgba(0, 0, 0, 0.0)" stroke="rgba(35, 45, 67, 1.0)" stroke-width="2.0" /><polygon points="549.060105999334,67.0 549.060105999334,125.0 498.8306325798366,154.0 448.6011591603392,125.0 448.6011591603392,67.0 498.8306325798366,38.0" fill="rgba(56, 189, 248, 1.0)" stroke="rgba(35, 45, 67, 1.0)" stroke-width="2.0" /><path d="M 549.060105999334 68.5 L 549.060105999334 123.5 Q 549.060105999334 125.0 547.7610678936574 125.75 L 500.12967068551325 153.25 Q 498.8306325798366 154.0 497.53159447416 153.25 L 449.9001972660158 125.75 Q 448.6011591603392 125.0 448.6011591603392 123.5 L 448.6011591603392 68.5 Q 448.6011591603392 67.0 449.9001972660158 66.25 L 497.53159447416 38.75 Q 498.8306325798366 38.0 500.12967068551325 38.75 L 547.7610678936574 66.25 Q 549.060105999334 67.0 549.060105999334 68.5 Z" fill="rgba(255, 255, 255, 0.18823529411764706)" stroke="rgba(255, 255, 255, 1.0)" stroke-width="6.0" /><polygon points="604.4857318415382,163.0 604.4857318415382,221.0 554.2562584220407,250.0 504.02678500254325,221.0 504.02678500254325,163.0 554.2562584220407,134.0" fill="rgba(56, 189, 248, 1.0)" stroke="rgba(35, 45, 67, 1.0)" stroke-width="2.0" /><polygon points="659.9113576837423,259.0 659.9113576837423,317.0 609.6818842642448,346.0 559.4524108447473,317.0 559.4524108447473,259.0 609.6818842642448,230.0" fill="rgba(56, 189, 248, 1.0)" stroke="rgba(35, 45, 67, 1.0)" stroke-width="2.0" /><polygon points="493.63448015713,-221.0 493.63448015713,-163.0 443.40500673763256,-134.0 393.17553331813514,-163.0 393.17553331813514,-221.0 443.40500673763256,-250.0" fill="rgba(0, 0, 0, 0.0)" stroke="rgba(35, 45, 67, 1.0)" stroke-width="2.0" /><polygon points="549.060105999334,-125.0 549.060105999334,-67.0 498.8306325798366,-38.0 448.6011591603392,-67.0 448.6011591603392,-125.0 498.8306325798366,-154.0" fill="rgba(0, 0, 0, 0.0)" stroke="rgba(35, 45, 67, 1.0)" stroke-width="2.0" /><polygon points="604.4857318415382,-28.999999999999996 604.4857318415382,28.999999999999996 554.2562584220407,58.0 504.02678500254325,28.999999999999996 504.02678500254325,-29.000000000000007 554.2562584220407,-58.0" fill="rgba(56, 189, 248, 1.0)" stroke="rgba(35, 45, 67, 1.0)" stroke-width="2.0" /><path d="M 604.4857318415382 -27.499999999999996 L 604.4857318415382 27.499999999999996 Q 604.4857318415382 28.999999999999996 603.1866937358615 29.749999999999996 L 555.5552965277174 57.25 Q 554.2562584220407 58.0 552.957220316364 57.25 L 505.3258231082199 29.749999999999996 Q 504.02678500254325 28.999999999999996 504.02678500254325 27.499999999999996 L 504.02678500254325 -27.500000000000007 Q 504.02678500254325 -29.000000000000007 505.3258231082199 -29.750000000000007 L 552.957220316364 -57.25 Q 554.2562584220407 -58.0 555.5552965277174 -57.25 L 603.1866937358615 -29.749999999999996 Q 604.4857318415382 -28.999999999999996 604.4857318415382 -27.499999999999996 Z" fill="rgba(255, 255, 255, 0.18823529411764706)" stroke="rgba(255, 255, 255, 1.0)" stroke-width="6.0" /><polygon points="659.9113576837423,67.0 659.9113576837423,125.0 609.6818842642448,154.0 559.4524108447473,125.0 559.4524108447473,67.0 609.6818842642448,38.0" fill="rgba(251, 193, 57, 1.0)" stroke="rgba(35, 45, 67, 1.0)" stroke-width="2.0" /><polygon points="715.3369835259463,163.0 715.3369835259463,221.0 665.1075101064488,250.0 614.8780366869513,221.0 614.8780366869513,163.0 665.1075101064488,134.0" fill="rgba(251, 193, 57, 1.0)" stroke="rgba(35, 45, 67, 1.0)" stroke-width="2.0" /><polygon points="604.4857318415383,-221.0 604.4857318415383,-163.0 554.2562584220408,-134.0 504.02678500254336,-163.0 504.02678500254336,-221.0 554.2562584220408,-250.0" fill="rgba(0, 0, 0, 0.0)" stroke="rgba(35, 45, 67, 1.0)" stroke-width="2.0" /><polygon points="659.9113576837423,-125.0 659.9113576837423,-67.0 609.6818842642448,-38.0 559.4524108447473,-67.0 559.4524108447473,-125.0 609.6818842642448,-154.0" fill="rgba(56, 189, 248, 1.0)" stroke="rgba(35, 45, 67, 1.0)" stroke-width="2.0" /><path d="M 659.9113576837423 -123.5 L 659.9113576837423 -68.5 Q 659.9113576837423 -67.0 658.6123195780656 -66.25 L 610.9809223699215 -38.75 Q 609.6818842642448 -38.0 608.3828461585681 -38.75 L 560.751448950424 -66.25 Q 559.4524108447473 -67.0 559.4524108447473 -68.5 L 559.4524108447473 -123.5 Q 559.4524108447473 -125.0 560.751448950424 -125.75 L 608.3828461585681 -153.25 Q 609.6818842642448 -154.0 610.9809223699215 -153.25 L 658.6123195780656 -125.75 Q 659.9113576837423 -125.0 659.9113576837423 -123.5 Z" fill="rgba(255, 255, 255, 0.18823529411764706)" stroke="rgba(255, 255, 255, 1.0)" stroke-width="6.0" /><polygon points="715.3369835259464,-28.999999999999996 715.3369835259464,28.999999999999996 665.1075101064489,58.0 614.8780366869514,28.999999999999996 614.8780366869514,-29.000000000000007 665.1075101064489,-58.0" fill="rgba(0, 0, 0, 0.0)" stroke="rgba(35, 45, 67, 1.0)" stroke-width="2.0" /><polygon points="770.7626093681505,67.0 770.7626093681505,125.0 720.533135948653,154.0 670.3036625291555,125.0 670.3036625291555,67.0 720.533135948653,38.0" fill="rgba(0, 0, 0, 0.0)" stroke="rgba(35, 45, 67, 1.0)" stroke-width="2.0" /><polygon points="715.3369835259464,-221.0 715.3369835259464,-163.0 665.1075101064489,-134.0 614.8780366869514,-163.0 614.8780366869514,-221.0 665.1075101064489,-250.0" fill="rgba(0, 0, 0, 0.0)" stroke="rgba(35, 45, 67, 1.0)" stroke-width="2.0" /><polygon points="770.7626093681504,-125.0 770.7626093681504,-67.0 720.5331359486529,-38.0 670.3036625291554,-67.0 670.3036625291554,-125.0 720.5331359486529,-154.0" fill="rgba(0, 0, 0, 0.0)" stroke="rgba(35, 45, 67, 1.0)" stroke-width="2.0" /><polygon points="826.1882352103545,-28.999999999999996 826.1882352103545,28.999999999999996 775.958761790857,58.0 725.7292883713595,28.999999999999996 725.7292883713595,-29.000000000000007 775.958761790857,-58.0" fill="rgba(0, 0, 0, 0.0)" stroke="rgba(35, 45, 67, 1.0)" stroke-width="2.0" /><polygon points="-171.47302994931889,739.0 -171.47302994931889,797.0 -221.70250336881634,826.0 -271.93197678831376,797.0 -271.93197678831376,739.0 -221.70250336881634,710.0" fill="rgba(0, 0, 0, 0.0)" stroke="rgba(35, 45, 67, 1.0)" stroke-width="2.0" /><polygon points="-116.04740410711483,835.0 -116.04740410711483,893.0 -166.27687752661228,922.0 -216.50635094610973,893.0 -216.5063509461097,835.0 -166.27687752661228,806.0" fill="rgba(0, 0, 0, 0.0)" stroke="rgba(35, 45, 67, 1.0)" stroke-width="2.0" /><polygon points="-60.62177826491067,739.0 -60.62177826491067,797.0 -110.85125168440811,826.0 -161.08072510390556,797.0 -161.08072510390554,739.0 -110.85125168440813,710.0" fill="rgba(0, 0, 0, 0.0)" stroke="rgba(35, 45, 67, 1.0)" stroke-width="2.0" /><polygon points="-5.196152422706611,835.0 -5.196152422706611,893.0 -55.425625842204056,922.0 -105.65509926170151,893.0 -105.6550992617015,835.0 -55.42562584220406,806.0" fill="rgba(0, 0, 0, 0.0)" stroke="rgba(35, 45, 67, 1.0)" stroke-width="2.0" /><polygon points="50.229473419497445,739.0 50.229473419497445,797.0 3.5514757175273244E-15,826.0 -50.229473419497445,797.0 -50.22947341949744,739.0 -1.0654427152581972E-14,710.0" fill="rgba(0, 0, 0, 0.0)" stroke="rgba(35, 45, 67, 1.0)" stroke-width="2.0" /><polygon points="105.65509926170151,835.0 105.65509926170151,893.0 55.425625842204056,922.0 5.196152422706611,893.0 5.196152422706618,835.0 55.42562584220405,806.0" fill="rgba(0, 0, 0, 0.0)" stroke="rgba(35, 45, 67, 1.0)" stroke-width="2.0" /><polygon points="161.08072510390556,739.0 161.08072510390556,797.0 110.85125168440811,826.0 60.62177826491067,797.0 60.621778264910674,739.0 110.8512516844081,710.0" fill="rgba(251, 193, 57, 1.0)" stroke="rgba(35, 45, 67, 1.0)" stroke-width="2.0" /><polygon points="216.50635094610962,835.0 216.50635094610962,893.0 166.27687752661217,922.0 116.04740410711472,893.0 116.04740410711473,835.0 166.27687752661217,806.0" fill="rgba(0, 0, 0, 0.0)" stroke="rgba(35, 45, 67, 1.0)" stroke-width="2.0" /><polygon points="271.9319767883137,739.0 271.9319767883137,797.0 221.70250336881628,826.0 171.47302994931883,797.0 171.47302994931886,739.0 221.70250336881628,710.0" fill="rgba(0, 0, 0, 0.0)" stroke="rgba(35, 45, 67, 1.0)" stroke-width="2.0" /><polygon points="327.35760263051776,835.0 327.35760263051776,893.0 277.12812921102034,922.0 226.89865579152288,893.0 226.8986557915229,835.0 277.12812921102034,806.0" fill="rgba(0, 0, 0, 0.0)" stroke="rgba(35, 45, 67, 1.0)" stroke-width="2.0" /><polygon points="382.7832284727219,739.0 382.7832284727219,797.0 332.55375505322445,826.0 282.324281633727,797.0 282.324281633727,739.0 332.55375505322445,710.0" fill="rgba(0, 0, 0, 0.0)" stroke="rgba(35, 45, 67, 1.0)" stroke-width="2.0" /><polygon points="438.2088543149259,835.0 438.2088543149259,893.0 387.97938089542845,922.0 337.749907475931,893.0 337.749907475931,835.0 387.97938089542845,806.0" fill="rgba(0, 0, 0, 0.0)" stroke="rgba(35, 45, 67, 1.0)" stroke-width="2.0" /><polygon points="493.63448015713,739.0 493.63448015713,797.0 443.40500673763256,826.0 393.17553331813514,797.0 393.17553331813514,739.0 443.40500673763256,710.0" fill="rgba(0, 0, 0, 0.0)" stroke="rgba(35, 45, 67, 1.0)" stroke-width="2.0" /><polygon points="549.060105999334,835.0 549.060105999334,893.0 498.8306325798366,922.0 448.6011591603392,893.0 448.6011591603392,835.0 498.8306325798366,806.0" fill="rgba(0, 0, 0, 0.0)" stroke="rgba(35, 45, 67, 1.0)" stroke-width="2.0" /><polygon points="549.0601059993342,643.0 549.0601059993342,701.0 498.8306325798367,730.0 448.60115916033925,701.0 448.60115916033925,643.0 498.8306325798367,614.0" fill="rgba(0, 0, 0, 0.0)" stroke="rgba(35, 45, 67, 1.0)" stroke-width="2.0" /><polygon points="604.4857318415382,739.0 604.4857318415382,797.0 554.2562584220407,826.0 504.02678500254325,797.0 504.02678500254325,739.0 554.2562584220407,710.0" fill="rgba(0, 0, 0, 0.0)" stroke="rgba(35, 45, 67, 1.0)" stroke-width="2.0" /><polygon points="659.9113576837423,835.0 659.9113576837423,893.0 609.6818842642448,922.0 559.4524108447473,893.0 559.4524108447473,835.0 609.6818842642448,806.0" fill="rgba(0, 0, 0, 0.0)" stroke="rgba(35, 45, 67, 1.0)" stroke-width="2.0" /><polygon points="604.4857318415382,547.0 604.4857318415382,605.0 554.2562584220407,634.0 504.02678500254325,605.0 504.02678500254325,547.0 554.2562584220407,518.0" fill="rgba(0, 0, 0, 0.0)" stroke="rgba(35, 45, 67, 1.0)" stroke-width="2.0" /><polygon points="659.9113576837423,643.0 659.9113576837423,701.0 609.6818842642448,730.0 559.4524108447473,701.0 559.4524108447473,643.0 609.6818842642448,614.0" fill="rgba(0, 0, 0, 0.0)" stroke="rgba(35, 45, 67, 1.0)" stroke-width="2.0" /><polygon points="715.3369835259464,739.0 715.3369835259464,797.0 665.1075101064489,826.0 614.8780366869514,797.0 614.8780366869514,739.0 665.1075101064489,710.0" fill="rgba(0, 0, 0, 0.0)" stroke="rgba(35, 45, 67, 1.0)" stroke-width="2.0" /><polygon points="659.9113576837423,451.0 659.9113576837423,509.0 609.6818842642448,538.0 559.4524108447473,509.0 559.4524108447473,451.0 609.6818842642448,422.0" fill="rgba(0, 0, 0, 0.0)" stroke="rgba(35, 45, 67, 1.0)" stroke-width="2.0" /><polygon points="715.3369835259464,547.0 715.3369835259464,605.0 665.1075101064489,634.0 614.8780366869514,605.0 614.8780366869514,547.0 665.1075101064489,518.0" fill="rgba(0, 0, 0, 0.0)" stroke="rgba(35, 45, 67, 1.0)" stroke-width="2.0" /><polygon points="770.7626093681504,643.0 770.7626093681504,701.0 720.5331359486529,730.0 670.3036625291554,701.0 670.3036625291554,643.0 720.5331359486529,614.0" fill="rgba(0, 0, 0, 0.0)" stroke="rgba(35, 45, 67, 1.0)" stroke-width="2.0" /><polygon points="715.3369835259464,355.0 715.3369835259464,413.0 665.1075101064489,442.0 614.8780366869514,413.0 614.8780366869514,355.0 665.1075101064489,326.0" fill="rgba(0, 0, 0, 0.0)" stroke="rgba(35, 45, 67, 1.0)" stroke-width="2.0" /><polygon points="770.7626093681504,451.0 770.7626093681504,509.0 720.5331359486529,538.0 670.3036625291554,509.0 670.3036625291554,451.0 720.5331359486529,422.0" fill="rgba(0, 0, 0, 0.0)" stroke="rgba(35, 45, 67, 1.0)" stroke-width="2.0" /><polygon points="826.1882352103545,547.0 826.1882352103545,605.0 775.958761790857,634.0 725.7292883713595,605.0 725.7292883713595,547.0 775.958761790857,518.0" fill="rgba(0, 0, 0, 0.0)" stroke="rgba(35, 45, 67, 1.0)" stroke-width="2.0" /><polygon points="770.7626093681504,259.0 770.7626093681504,317.0 720.5331359486529,346.0 670.3036625291554,317.0 670.3036625291554,259.0 720.5331359486529,230.0" fill="rgba(0, 0, 0, 0.0)" stroke="rgba(35, 45, 67, 1.0)" stroke-width="2.0" /><polygon points="826.1882352103544,355.0 826.1882352103544,413.0 775.9587617908569,442.0 725.7292883713594,413.0 725.7292883713594,355.0 775.9587617908569,326.0" fill="rgba(0, 0, 0, 0.0)" stroke="rgba(35, 45, 67, 1.0)" stroke-width="2.0" /><polygon points="826.1882352103545,163.0 826.1882352103545,221.0 775.958761790857,250.0 725.7292883713595,221.0 725.7292883713595,163.0 775.958761790857,134.0" fill="rgba(0, 0, 0, 0.0)" stroke="rgba(35, 45, 67, 1.0)" stroke-width="2.0" /><polygon points="826.1882352103545,-221.0 826.1882352103545,-163.0 775.958761790857,-134.0 725.7292883713595,-163.0 725.7292883713595,-221.0 775.958761790857,-250.0" fill="rgba(0, 0, 0, 0.0)" stroke="rgba(35, 45, 67, 1.0)" stroke-width="2.0" /><polygon points="770.7626093681504,835.0 770.7626093681504,893.0 720.5331359486529,922.0 670.3036625291554,893.0 670.3036625291554,835.0 720.5331359486529,806.0" fill="rgba(0, 0, 0, 0.0)" stroke="rgba(35, 45, 67, 1.0)" stroke-width="2.0" /><polygon points="826.1882352103545,739.0 826.1882352103545,797.0 775.958761790857,826.0 725.7292883713595,797.0 725.7292883713595,739.0 775.958761790857,710.0" fill="rgba(0, 0, 0, 0.0)" stroke="rgba(35, 45, 67, 1.0)" stroke-width="2.0" /><polygon points="-226.89865579152294,835.0 -226.89865579152294,893.0 -277.1281292110204,922.0 -327.3576026305178,893.0 -327.3576026305178,835.0 -277.1281292110204,806.0" fill="rgba(0, 0, 0, 0.0)" stroke="rgba(35, 45, 67, 1.0)" stroke-width="2.0" /></g></svg>