<svg xmlns="http://www.w3.org/2000/svg" viewBox="-87.42562584220408 -96.0 508 576"><rect x="-87.42562584220408" y="-96.0" width="100%" height="100%" fill="rgba(31, 23, 41, 1.0)" /><defs><mask x="-87.42562584220408" y="-96.0" width="100%" height="100%" id="full-mask" mask-type="luminance" maskUnits="userSpaceOnUse"><rect x="-87.42562584220408" y="-96.0" width="100%" height="100%" fill="rgba(255, 255, 255, 1.0)" /></mask><mask x="-87.42562584220408" y="-96.0" width="100%" height="100%" id="text-mask" mask-type="luminance" maskUnits="userSpaceOnUse"><rect x="-87.42562584220408" y="-96.0" width="100%" height="100%" fill="rgba(255, 255, 255, 1.0)" /><text stroke="rgba(51, 51, 51, 1.0)" stroke-width="8.925" stroke-linecap="round" stroke-linejoin="round" font-weight="normal" font-family="consolas, monospace, sans-serif" font-size="53.550003px" text-anchor="middle" dominant-baseline="central" x="110.85125168440814" y="384.0">a</text><text fill="rgba(0, 0, 0, 1.0)" font-weight="normal" font-family="consolas, monospace, sans-serif" font-size="53.550003px" text-anchor="middle" dominant-baseline="central" x="110.85125168440814" y="384.0">a</text><text stroke="rgba(51, 51, 51, 1.0)" stroke-width="8.925" stroke-linecap="round" stroke-linejoin="round" font-weight="normal" font-family="consolas, monospace, sans-serif" font-size="53.550003px" text-anchor="middle" dominant-baseline="central" x="55.42562584220407" y="96.0">1</text><text fill="rgba(0, 0, 0, 1.0)" font-weight="normal" font-family="consolas, monospace, sans-serif" font-size="53.550003px" text-anchor="middle" dominant-baseline="central" x="55.42562584220407" y="96.0">1</text><text stroke="rgba(51, 51, 51, 1.0)" stroke-width="8.925" stroke-linecap="round" stroke-linejoin="round" font-weight="normal" font-family="consolas, monospace, sans-serif" font-size="53.550003px" text-anchor="middle" dominant-baseline="central" x="221.70250336881628" y="384.0">b</text><text fill="rgba(0, 0, 0, 1.0)" font-weight="normal" font-family="consolas, monospace, sans-serif" font-size="53.550003px" text-anchor="middle" dominant-baseline="central" x="221.70250336881628" y="384.0">b</text></mask></defs><g mask="url(#full-mask)"><polygon points="-56.29165124598853,352.5 -56.29165124598853,415.5 -110.85125168440817,447.0 -165.4108521228278,415.5 -165.4108521228278,352.5 -110.85125168440818,321.0" fill="rgba(31, 23, 41, 1.0)" stroke="rgba(36, 33, 58, 1.0)" stroke-width="3.0" /><polygon points="-0.8660254037844766,448.5 -0.8660254037844766,511.5 -55.425625842204106,543.0 -109.98522628062375,511.5 -109.98522628062375,448.5 -55.42562584220413,417.0" fill="rgba(31, 23, 41, 1.0)" stroke="rgba(36, 33, 58, 1.0)" stroke-width="3.0" /><polygon points="-56.291651245988504,160.5 -56.291651245988504,223.5 -110.85125168440814,255.0 -165.41085212282778,223.5 -165.41085212282778,160.5 -110.85125168440815,129.0" fill="rgba(31, 23, 41, 1.0)" stroke="rgba(36, 33, 58, 1.0)" stroke-width="3.0" /><polygon points="-0.8660254037844197,256.5 -0.8660254037844197,319.5 -55.42562584220405,351.0 -109.98522628062369,319.5 -109.98522628062369,256.5 -55.42562584220407,225.0" fill="rgba(31, 23, 41, 1.0)" stroke="rgba(36, 33, 58, 1.0)" stroke-width="3.0" /><polygon points="54.559600438419636,352.5 54.559600438419636,415.5 3.857637417314163E-15,447.0 -54.559600438419636,415.5 -54.55960043841963,352.5 -1.1572912251942487E-14,321.0" fill="rgba(31, 23, 41, 1.0)" stroke="rgba(36, 33, 58, 1.0)" stroke-width="3.0" /><polygon points="109.98522628062369,448.5 109.98522628062369,511.5 55.42562584220406,543.0 0.8660254037844197,511.5 0.8660254037844268,448.5 55.42562584220404,417.0" fill="rgba(31, 23, 41, 1.0)" stroke="rgba(36, 33, 58, 1.0)" stroke-width="3.0" /><polygon points="-56.291651245988504,-31.499999999999996 -56.291651245988504,31.499999999999996 -110.85125168440814,63.0 -165.41085212282778,31.499999999999996 -165.41085212282778,-31.500000000000007 -110.85125168440815,-63.0" fill="rgba(31, 23, 41, 1.0)" stroke="rgba(36, 33, 58, 1.0)" stroke-width="3.0" /><polygon points="-0.8660254037844339,64.5 -0.8660254037844339,127.5 -55.42562584220406,159.0 -109.9852262806237,127.5 -109.98522628062369,64.5 -55.425625842204084,33.0" fill="rgba(31, 23, 41, 1.0)" stroke="rgba(36, 33, 58, 1.0)" stroke-width="3.0" /><polygon points="54.559600438419636,160.5 54.559600438419636,223.5 3.857637417314163E-15,255.0 -54.559600438419636,223.5 -54.55960043841963,160.5 -1.1572912251942487E-14,129.0" fill="rgba(31, 23, 41, 1.0)" stroke="rgba(36, 33, 58, 1.0)" stroke-width="3.0" /><polygon points="109.98522628062372,256.5 109.98522628062372,319.5 55.42562584220409,351.0 0.8660254037844481,319.5 0.8660254037844552,256.5 55.42562584220407,225.0" fill="rgba(31, 23, 41, 1.0)" stroke="rgba(36, 33, 58, 1.0)" stroke-width="3.0" /><polygon points="165.41085212282778,352.5 165.41085212282778,415.5 110.85125168440814,447.0 56.291651245988504,415.5 56.29165124598851,352.5 110.85125168440813,321.0" fill="rgba(31, 23, 41, 1.0)" stroke="rgba(36, 33, 58, 1.0)" stroke-width="3.0" /><text fill="rgba(101, 21, 39, 1.0)" font-weight="normal" font-family="consolas, monospace, sans-serif" font-size="53.550003px" text-anchor="middle" dominant-baseline="central" x="110.85125168440814" y="384.0">a</text><polygon points="220.83647796503183,448.5 220.83647796503183,511.5 166.2768775266122,543.0 111.71727708819256,511.5 111.71727708819256,448.5 166.2768775266122,417.0" fill="rgba(31, 23, 41, 1.0)" stroke="rgba(36, 33, 58, 1.0)" stroke-width="3.0" /><polygon points="-0.8660254037844339,-127.5 -0.8660254037844339,-64.5 -55.42562584220406,-33.0 -109.9852262806237,-64.5 -109.98522628062369,-127.5 -55.425625842204084,-159.0" fill="rgba(31, 23, 41, 1.0)" stroke="rgba(36, 33, 58, 1.0)" stroke-width="3.0" /><polygon points="54.559600438419636,-31.499999999999996 54.559600438419636,31.499999999999996 3.857637417314163E-15,63.0 -54.559600438419636,31.499999999999996 -54.55960043841963,-31.500000000000007 -1.1572912251942487E-14,-63.0" fill="rgba(101, 21, 39, 1.0)" stroke="rgba(36, 33, 58, 1.0)" stroke-width="3.0" /><circle cx="0.0" cy="0.0" fill="rgba(0, 0, 0, 0.0)" r="12.0" mask="url(#text-mask)" /><line x1="-26.459999999999997" y1="-26.459999999999997" x2="26.459999999999997" y2="26.459999999999997" stroke="rgba(210, 90, 6, 1.0)" stroke-width="9.6" stroke-linecap="round" mask="url(#text-mask)" /><line x1="-26.459999999999997" y1="26.459999999999997" x2="26.459999999999997" y2="-26.459999999999997" stroke="rgba(210, 90, 6, 1.0)" stroke-width="9.6" stroke-linecap="round" mask="url(#text-mask)" /><polygon points="109.9852262806237,64.5 109.9852262806237,127.5 55.42562584220408,159.0 0.8660254037844339,127.5 0.866025403784441,64.5 55.425625842204056,33.0" fill="rgba(22, 58, 101, 1.0)" stroke="rgba(36, 33, 58, 1.0)" stroke-width="3.0" /><text fill="rgba(3, 131, 225, 1.0)" font-weight="normal" font-family="consolas, monospace, sans-serif" font-size="53.550003px" text-anchor="middle" dominant-baseline="central" x="55.42562584220407" y="96.0">1</text><polygon points="165.41085212282778,160.5 165.41085212282778,223.5 110.85125168440814,255.0 56.291651245988504,223.5 56.29165124598851,160.5 110.85125168440813,129.0" fill="rgba(31, 23, 41, 1.0)" stroke="rgba(36, 33, 58, 1.0)" stroke-width="3.0" /><polygon points="220.83647796503186,256.5 220.83647796503186,319.5 166.27687752661222,351.0 111.71727708819259,319.5 111.71727708819259,256.5 166.27687752661222,225.0" fill="rgba(94, 47, 29, 1.0)" stroke="rgba(36, 33, 58, 1.0)" stroke-width="3.0" /><line x1="139.81687752661222" y1="261.54" x2="192.73687752661223" y2="314.46" stroke="rgba(210, 90, 6, 1.0)" stroke-width="9.6" stroke-linecap="round" mask="url(#text-mask)" /><line x1="139.81687752661222" y1="314.46" x2="192.73687752661223" y2="261.54" stroke="rgba(210, 90, 6, 1.0)" stroke-width="9.6" stroke-linecap="round" mask="url(#text-mask)" /><polygon points="276.2621038072359,352.5 276.2621038072359,415.5 221.70250336881628,447.0 167.14290293039664,415.5 167.14290293039664,352.5 221.70250336881628,321.0" fill="rgba(73, 22, 40, 1.0)" stroke="rgba(36, 33, 58, 1.0)" stroke-width="3.0" /><text fill="rgba(101, 21, 39, 1.0)" font-weight="normal" font-family="consolas, monospace, sans-serif" font-size="53.550003px" text-anchor="middle" dominant-baseline="central" x="221.70250336881628" y="384.0">b</text><polygon points="331.68772964944,448.5 331.68772964944,511.5 277.12812921102034,543.0 222.5685287726007,511.5 222.5685287726007,448.5 277.12812921102034,417.0" fill="rgba(31, 23, 41, 1.0)" stroke="rgba(36, 33, 58, 1.0)" stroke-width="3.0" /><polygon points="109.9852262806237,-127.5 109.9852262806237,-64.5 55.42562584220408,-33.0 0.8660254037844339,-64.5 0.866025403784441,-127.5 55.425625842204056,-159.0" fill="rgba(31, 23, 41, 1.0)" stroke="rgba(36, 33, 58, 1.0)" stroke-width="3.0" /><polygon points="165.41085212282778,-31.499999999999996 165.41085212282778,31.499999999999996 110.85125168440814,63.0 56.291651245988504,31.499999999999996 56.29165124598851,-31.500000000000007 110.85125168440813,-63.0" fill="rgba(31, 23, 41, 1.0)" stroke="rgba(36, 33, 58, 1.0)" stroke-width="3.0" /><polygon points="220.83647796503186,64.5 220.83647796503186,127.5 166.27687752661222,159.0 111.71727708819259,127.5 111.71727708819259,64.5 166.27687752661222,33.0" fill="rgba(31, 23, 41, 1.0)" stroke="rgba(36, 33, 58, 1.0)" stroke-width="3.0" /><polygon points="276.2621038072359,160.5 276.2621038072359,223.5 221.70250336881628,255.0 167.14290293039664,223.5 167.14290293039664,160.5 221.70250336881628,129.0" fill="rgba(31, 23, 41, 1.0)" stroke="rgba(36, 33, 58, 1.0)" stroke-width="3.0" /><polygon points="331.68772964944,256.5 331.68772964944,319.5 277.12812921102034,351.0 222.5685287726007,319.5 222.5685287726007,256.5 277.12812921102034,225.0" fill="rgba(31, 23, 41, 1.0)" stroke="rgba(36, 33, 58, 1.0)" stroke-width="3.0" /><polygon points="387.1133554916441,352.5 387.1133554916441,415.5 332.55375505322445,447.0 277.9941546148048,415.5 277.9941546148048,352.5 332.55375505322445,321.0" fill="rgba(31, 23, 41, 1.0)" stroke="rgba(36, 33, 58, 1.0)" stroke-width="3.0" /><polygon points="442.5389813338481,448.5 442.5389813338481,511.5 387.97938089542845,543.0 333.4197804570088,511.5 333.4197804570088,448.5 387.97938089542845,417.0" fill="rgba(31, 23, 41, 1.0)" stroke="rgba(36, 33, 58, 1.0)" stroke-width="3.0" /><polygon points="220.83647796503186,-127.5 220.83647796503186,-64.5 166.27687752661222,-33.0 111.71727708819259,-64.5 111.71727708819259,-127.5 166.27687752661222,-159.0" fill="rgba(31, 23, 41, 1.0)" stroke="rgba(36, 33, 58, 1.0)" stroke-width="3.0" /><polygon points="276.2621038072359,-31.499999999999996 276.2621038072359,31.499999999999996 221.70250336881628,63.0 167.14290293039664,31.499999999999996 167.14290293039664,-31.500000000000007 221.70250336881628,-63.0" fill="rgba(31, 23, 41, 1.0)" stroke="rgba(36, 33, 58, 1.0)" stroke-width="3.0" /><polygon points="331.68772964944,64.5 331.68772964944,127.5 277.12812921102034,159.0 222.5685287726007,127.5 222.5685287726007,64.5 277.12812921102034,33.0" fill="rgba(101, 21, 39, 1.0)" stroke="rgba(36, 33, 58, 1.0)" stroke-width="3.0" /><circle cx="277.12812921102034" cy="96.0" fill="rgba(0, 0, 0, 0.0)" r="12.0" mask="url(#text-mask)" /><circle cx="277.12812921102034" cy="96.0" fill="rgba(3, 131, 225, 1.0)" r="37.8" mask="url(#text-mask)" /><circle cx="277.12812921102034" cy="96.0" fill="rgba(101, 21, 39, 1.0)" r="28.199999" mask="url(#text-mask)" /><polygon points="387.1133554916441,160.5 387.1133554916441,223.5 332.55375505322445,255.0 277.9941546148048,223.5 277.9941546148048,160.5 332.55375505322445,129.0" fill="rgba(31, 23, 41, 1.0)" stroke="rgba(36, 33, 58, 1.0)" stroke-width="3.0" /><polygon points="442.53898133384814,256.5 442.53898133384814,319.5 387.9793808954285,351.0 333.41978045700887,319.5 333.41978045700887,256.5 387.9793808954285,225.0" fill="rgba(31, 23, 41, 1.0)" stroke="rgba(36, 33, 58, 1.0)" stroke-width="3.0" /><polygon points="497.9646071760522,352.5 497.9646071760522,415.5 443.40500673763256,447.0 388.8454062992129,415.5 388.8454062992129,352.5 443.40500673763256,321.0" fill="rgba(31, 23, 41, 1.0)" stroke="rgba(36, 33, 58, 1.0)" stroke-width="3.0" /><polygon points="331.68772964944003,-127.5 331.68772964944003,-64.5 277.1281292110204,-33.0 222.56852877260076,-64.5 222.56852877260076,-127.5 277.1281292110204,-159.0" fill="rgba(31, 23, 41, 1.0)" stroke="rgba(36, 33, 58, 1.0)" stroke-width="3.0" /><polygon points="387.1133554916441,-31.499999999999996 387.1133554916441,31.499999999999996 332.55375505322445,63.0 277.9941546148048,31.499999999999996 277.9941546148048,-31.500000000000007 332.55375505322445,-63.0" fill="rgba(94, 47, 29, 1.0)" stroke="rgba(36, 33, 58, 1.0)" stroke-width="3.0" /><line x1="306.09375505322447" y1="-26.459999999999997" x2="359.01375505322443" y2="26.459999999999997" stroke="rgba(210, 90, 6, 1.0)" stroke-width="9.6" stroke-linecap="round" mask="url(#text-mask)" /><line x1="306.09375505322447" y1="26.459999999999997" x2="359.01375505322443" y2="-26.459999999999997" stroke="rgba(210, 90, 6, 1.0)" stroke-width="9.6" stroke-linecap="round" mask="url(#text-mask)" /><polygon points="442.53898133384814,64.5 442.53898133384814,127.5 387.9793808954285,159.0 333.41978045700887,127.5 333.41978045700887,64.5 387.9793808954285,33.0" fill="rgba(31, 23, 41, 1.0)" stroke="rgba(36, 33, 58, 1.0)" stroke-width="3.0" /><polygon points="497.9646071760522,160.5 497.9646071760522,223.5 443.40500673763256,255.0 388.8454062992129,223.5 388.8454062992129,160.5 443.40500673763256,129.0" fill="rgba(31, 23, 41, 1.0)" stroke="rgba(36, 33, 58, 1.0)" stroke-width="3.0" /><polygon points="442.53898133384814,-127.5 442.53898133384814,-64.5 387.9793808954285,-33.0 333.41978045700887,-64.5 333.41978045700887,-127.5 387.9793808954285,-159.0" fill="rgba(31, 23, 41, 1.0)" stroke="rgba(36, 33, 58, 1.0)" stroke-width="3.0" /><polygon points="497.9646071760522,-31.499999999999996 497.9646071760522,31.499999999999996 443.40500673763256,63.0 388.8454062992129,31.499999999999996 388.8454062992129,-31.500000000000007 443.40500673763256,-63.0" fill="rgba(31, 23, 41, 1.0)" stroke="rgba(36, 33, 58, 1.0)" stroke-width="3.0" /></g></svg>