<svg xmlns="http://www.w3.org/2000/svg" viewBox="-309.12812921102034 -288.0 508 576"><rect x="-309.12812921102034" y="-288.0" width="100%" height="100%" fill="rgba(36, 33, 58, 1.0)" /><defs><mask x="-309.12812921102034" y="-288.0" width="100%" height="100%" id="full-mask" mask-type="luminance" maskUnits="userSpaceOnUse"><rect x="-309.12812921102034" y="-288.0" width="100%" height="100%" fill="rgba(255, 255, 255, 1.0)" /></mask><mask x="-309.12812921102034" y="-288.0" width="100%" height="100%" id="text-mask" mask-type="luminance" maskUnits="userSpaceOnUse"><rect x="-309.12812921102034" y="-288.0" width="100%" height="100%" fill="rgba(255, 255, 255, 1.0)" /><text stroke="rgba(51, 51, 51, 1.0)" stroke-width="8.641667" stroke-linecap="round" stroke-linejoin="round" font-weight="normal" font-family="consolas, monospace, sans-serif" font-size="51.850002px" text-anchor="middle" dominant-baseline="central" x="55.42562584220407" y="96.0">a</text><text fill="rgba(0, 0, 0, 1.0)" font-weight="normal" font-family="consolas, monospace, sans-serif" font-size="51.850002px" text-anchor="middle" dominant-baseline="central" x="55.42562584220407" y="96.0">a</text></mask></defs><g mask="url(#full-mask)"><polygon points="-279.7262054223737,161.5 -279.7262054223737,222.5 -332.55375505322445,253.0 -385.3813046840752,222.5 -385.3813046840752,161.5 -332.55375505322445,131.0" fill="rgba(31, 23, 41, 1.0)" stroke="rgba(0, 0, 0, 0.0)" stroke-width="0.0" /><polygon points="-224.30057958016957,257.5 -224.30057958016957,318.5 -277.12812921102034,349.0 -329.9556788418711,318.5 -329.9556788418711,257.5 -277.12812921102034,227.0" fill="rgba(31, 23, 41, 1.0)" stroke="rgba(0, 0, 0, 0.0)" stroke-width="0.0" /><polygon points="-279.7262054223737,-30.499999999999996 -279.7262054223737,30.499999999999996 -332.55375505322445,61.0 -385.3813046840752,30.499999999999996 -385.3813046840752,-30.500000000000007 -332.55375505322445,-61.0" fill="rgba(31, 23, 41, 1.0)" stroke="rgba(0, 0, 0, 0.0)" stroke-width="0.0" /><polygon points="-224.30057958016963,65.5 -224.30057958016963,126.5 -277.1281292110204,157.0 -329.95567884187113,126.5 -329.95567884187113,65.5 -277.1281292110204,35.0" fill="rgba(31, 23, 41, 1.0)" stroke="rgba(0, 0, 0, 0.0)" stroke-width="0.0" /><polygon points="-168.87495373796554,161.5 -168.87495373796554,222.5 -221.7025033688163,253.0 -274.5300529996671,222.5 -274.5300529996671,161.5 -221.7025033688163,131.0" fill="rgba(31, 23, 41, 1.0)" stroke="rgba(0, 0, 0, 0.0)" stroke-width="0.0" /><polygon points="-113.44932789576146,257.5 -113.44932789576146,318.5 -166.27687752661222,349.0 -219.104427157463,318.5 -219.10442715746296,257.5 -166.27687752661222,227.0" fill="rgba(31, 23, 41, 1.0)" stroke="rgba(0, 0, 0, 0.0)" stroke-width="0.0" /><polygon points="-279.7262054223737,-222.5 -279.7262054223737,-161.5 -332.55375505322445,-131.0 -385.3813046840752,-161.5 -385.3813046840752,-222.5 -332.55375505322445,-253.0" fill="rgba(31, 23, 41, 1.0)" stroke="rgba(0, 0, 0, 0.0)" stroke-width="0.0" /><polygon points="-224.30057958016957,-126.5 -224.30057958016957,-65.5 -277.12812921102034,-35.0 -329.9556788418711,-65.5 -329.9556788418711,-126.5 -277.12812921102034,-157.0" fill="rgba(31, 23, 41, 1.0)" stroke="rgba(0, 0, 0, 0.0)" stroke-width="0.0" /><polygon points="-168.8749537379655,-30.499999999999996 -168.8749537379655,30.499999999999996 -221.70250336881628,61.0 -274.530052999667,30.499999999999996 -274.530052999667,-30.500000000000007 -221.70250336881628,-61.0" fill="rgba(31, 23, 41, 1.0)" stroke="rgba(0, 0, 0, 0.0)" stroke-width="0.0" /><polygon points="-113.44932789576146,65.5 -113.44932789576146,126.5 -166.27687752661222,157.0 -219.104427157463,126.5 -219.10442715746296,65.5 -166.27687752661222,35.0" fill="rgba(31, 23, 41, 1.0)" stroke="rgba(0, 0, 0, 0.0)" stroke-width="0.0" /><polygon points="-58.02370205355738,161.5 -58.02370205355738,222.5 -110.85125168440814,253.0 -163.6788013152589,222.5 -163.6788013152589,161.5 -110.85125168440815,131.0" fill="rgba(31, 23, 41, 1.0)" stroke="rgba(0, 0, 0, 0.0)" stroke-width="0.0" /><polygon points="-2.5980762113532947,257.5 -2.5980762113532947,318.5 -55.42562584220405,349.0 -108.25317547305482,318.5 -108.25317547305481,257.5 -55.42562584220407,227.0" fill="rgba(31, 23, 41, 1.0)" stroke="rgba(0, 0, 0, 0.0)" stroke-width="0.0" /><polygon points="-224.30057958016957,-318.5 -224.30057958016957,-257.5 -277.12812921102034,-227.0 -329.9556788418711,-257.5 -329.9556788418711,-318.5 -277.12812921102034,-349.0" fill="rgba(31, 23, 41, 1.0)" stroke="rgba(0, 0, 0, 0.0)" stroke-width="0.0" /><polygon points="-168.8749537379655,-222.5 -168.8749537379655,-161.5 -221.70250336881628,-131.0 -274.530052999667,-161.5 -274.530052999667,-222.5 -221.70250336881628,-253.0" fill="rgba(31, 23, 41, 1.0)" stroke="rgba(0, 0, 0, 0.0)" stroke-width="0.0" /><polygon points="-113.44932789576146,-126.5 -113.44932789576146,-65.5 -166.27687752661222,-35.0 -219.104427157463,-65.5 -219.10442715746296,-126.5 -166.27687752661222,-157.0" fill="rgba(31, 23, 41, 1.0)" stroke="rgba(0, 0, 0, 0.0)" stroke-width="0.0" /><polygon points="-58.02370205355738,-30.499999999999996 -58.02370205355738,30.499999999999996 -110.85125168440814,61.0 -163.6788013152589,30.499999999999996 -163.6788013152589,-30.500000000000007 -110.85125168440815,-61.0" fill="rgba(31, 23, 41, 1.0)" stroke="rgba(0, 0, 0, 0.0)" stroke-width="0.0" /><polygon points="-2.598076211353309,65.5 -2.598076211353309,126.5 -55.42562584220406,157.0 -108.25317547305482,126.5 -108.25317547305482,65.5 -55.425625842204084,35.0" fill="rgba(31, 23, 41, 1.0)" stroke="rgba(0, 0, 0, 0.0)" stroke-width="0.0" /><polygon points="52.82754963085076,161.5 52.82754963085076,222.5 3.7351727373994275E-15,253.0 -52.82754963085076,222.5 -52.827549630850754,161.5 -1.1205518212198282E-14,131.0" fill="rgba(31, 23, 41, 1.0)" stroke="rgba(0, 0, 0, 0.0)" stroke-width="0.0" /><polygon points="108.25317547305485,257.5 108.25317547305485,318.5 55.42562584220409,349.0 2.598076211353323,318.5 2.5980762113533302,257.5 55.42562584220407,227.0" fill="rgba(31, 23, 41, 1.0)" stroke="rgba(0, 0, 0, 0.0)" stroke-width="0.0" /><polygon points="-113.44932789576146,-318.5 -113.44932789576146,-257.5 -166.27687752661222,-227.0 -219.104427157463,-257.5 -219.10442715746296,-318.5 -166.27687752661222,-349.0" fill="rgba(31, 23, 41, 1.0)" stroke="rgba(0, 0, 0, 0.0)" stroke-width="0.0" /><polygon points="-58.02370205355738,-222.5 -58.02370205355738,-161.5 -110.85125168440814,-131.0 -163.6788013152589,-161.5 -163.6788013152589,-222.5 -110.85125168440815,-253.0" fill="rgba(31, 23, 41, 1.0)" stroke="rgba(0, 0, 0, 0.0)" stroke-width="0.0" /><polygon points="-2.598076211353309,-126.5 -2.598076211353309,-65.5 -55.42562584220406,-35.0 -108.25317547305482,-65.5 -108.25317547305482,-126.5 -55.425625842204084,-157.0" fill="rgba(31, 23, 41, 1.0)" stroke="rgba(0, 0, 0, 0.0)" stroke-width="0.0" /><polygon points="52.82754963085076,-30.499999999999996 52.82754963085076,30.499999999999996 3.7351727373994275E-15,61.0 -52.82754963085076,30.499999999999996 -52.827549630850754,-30.500000000000007 -1.1205518212198282E-14,-61.0" fill="rgba(31, 23, 41, 1.0)" stroke="rgba(0, 0, 0, 0.0)" stroke-width="0.0" /><polygon points="108.25317547305482,65.5 108.25317547305482,126.5 55.42562584220408,157.0 2.598076211353309,126.5 2.598076211353316,65.5 55.425625842204056,35.0" fill="rgba(94, 47, 29, 1.0)" stroke="rgba(0, 0, 0, 0.0)" stroke-width="0.0" /><text fill="rgba(210, 90, 6, 1.0)" font-weight="normal" font-family="consolas, monospace, sans-serif" font-size="51.850002px" text-anchor="middle" dominant-baseline="central" x="55.42562584220407" y="96.0">a</text><polygon points="163.6788013152589,161.5 163.6788013152589,222.5 110.85125168440814,253.0 58.02370205355738,222.5 58.023702053557386,161.5 110.85125168440813,131.0" fill="rgba(22, 58, 101, 1.0)" stroke="rgba(0, 0, 0, 0.0)" stroke-width="0.0" /><circle cx="110.85125168440814" cy="192.0" fill="rgba(3, 131, 225, 1.0)" r="36.6" mask="url(#text-mask)" /><circle cx="110.85125168440814" cy="192.0" fill="rgba(22, 58, 101, 1.0)" r="27.0" mask="url(#text-mask)" /><polygon points="219.104427157463,257.5 219.104427157463,318.5 166.27687752661222,349.0 113.44932789576146,318.5 113.44932789576147,257.5 166.27687752661222,227.0" fill="rgba(31, 23, 41, 1.0)" stroke="rgba(0, 0, 0, 0.0)" stroke-width="0.0" /><polygon points="-2.598076211353323,-318.5 -2.598076211353323,-257.5 -55.42562584220408,-227.0 -108.25317547305485,-257.5 -108.25317547305484,-318.5 -55.4256258422041,-349.0" fill="rgba(31, 23, 41, 1.0)" stroke="rgba(0, 0, 0, 0.0)" stroke-width="0.0" /><polygon points="52.82754963085076,-222.5 52.82754963085076,-161.5 3.7351727373994275E-15,-131.0 -52.82754963085076,-161.5 -52.827549630850754,-222.5 -1.1205518212198282E-14,-253.0" fill="rgba(31, 23, 41, 1.0)" stroke="rgba(0, 0, 0, 0.0)" stroke-width="0.0" /><polygon points="108.25317547305482,-126.5 108.25317547305482,-65.5 55.42562584220408,-35.0 2.598076211353309,-65.5 2.598076211353316,-126.5 55.425625842204056,-157.0" fill="rgba(31, 23, 41, 1.0)" stroke="rgba(0, 0, 0, 0.0)" stroke-width="0.0" /><polygon points="163.6788013152589,-30.499999999999996 163.6788013152589,30.499999999999996 110.85125168440814,61.0 58.02370205355738,30.499999999999996 58.023702053557386,-30.500000000000007 110.85125168440813,-61.0" fill="rgba(31, 23, 41, 1.0)" stroke="rgba(0, 0, 0, 0.0)" stroke-width="0.0" /><polygon points="219.104427157463,65.5 219.104427157463,126.5 166.27687752661222,157.0 113.44932789576146,126.5 113.44932789576147,65.5 166.27687752661222,35.0" fill="rgba(31, 23, 41, 1.0)" stroke="rgba(0, 0, 0, 0.0)" stroke-width="0.0" /><polygon points="274.530052999667,161.5 274.530052999667,222.5 221.70250336881628,253.0 168.8749537379655,222.5 168.87495373796554,161.5 221.70250336881628,131.0" fill="rgba(31, 23, 41, 1.0)" stroke="rgba(0, 0, 0, 0.0)" stroke-width="0.0" /><polygon points="108.25317547305482,-318.5 108.25317547305482,-257.5 55.42562584220406,-227.0 2.5980762113532947,-257.5 2.598076211353302,-318.5 55.42562584220404,-349.0" fill="rgba(31, 23, 41, 1.0)" stroke="rgba(0, 0, 0, 0.0)" stroke-width="0.0" /><polygon points="163.6788013152589,-222.5 163.6788013152589,-161.5 110.85125168440814,-131.0 58.02370205355738,-161.5 58.023702053557386,-222.5 110.85125168440813,-253.0" fill="rgba(31, 23, 41, 1.0)" stroke="rgba(0, 0, 0, 0.0)" stroke-width="0.0" /><polygon points="219.104427157463,-126.5 219.104427157463,-65.5 166.27687752661222,-35.0 113.44932789576146,-65.5 113.44932789576147,-126.5 166.27687752661222,-157.0" fill="rgba(31, 23, 41, 1.0)" stroke="rgba(0, 0, 0, 0.0)" stroke-width="0.0" /><polygon points="274.530052999667,-30.499999999999996 274.530052999667,30.499999999999996 221.70250336881628,61.0 168.8749537379655,30.499999999999996 168.87495373796554,-30.500000000000007 221.70250336881628,-61.0" fill="rgba(31, 23, 41, 1.0)" stroke="rgba(0, 0, 0, 0.0)" stroke-width="0.0" /><polygon points="219.104427157463,-318.5 219.104427157463,-257.5 166.27687752661222,-227.0 113.44932789576146,-257.5 113.44932789576147,-318.5 166.27687752661222,-349.0" fill="rgba(31, 23, 41, 1.0)" stroke="rgba(0, 0, 0, 0.0)" stroke-width="0.0" /><polygon points="274.5300529996671,-222.5 274.5300529996671,-161.5 221.7025033688163,-131.0 168.87495373796554,-161.5 168.87495373796554,-222.5 221.7025033688163,-253.0" fill="rgba(31, 23, 41, 1.0)" stroke="rgba(0, 0, 0, 0.0)" stroke-width="0.0" /><line x1="110.85125168440814" y1="0.0" x2="-221.70250336881628" y2="0.0" stroke="rgba(0, 0, 0, 0.0)" stroke-width="21.333334" stroke-linecap="round" mask="url(#text-mask)" /><line x1="110.85125168440814" y1="0.0" x2="-221.70250336881628" y2="0.0" stroke="rgba(128, 22, 40, 0.6666666666666666)" stroke-width="16.0" stroke-linecap="round" mask="url(#text-mask)" /><line x1="110.85125168440814" y1="192.0" x2="-110.85125168440814" y2="-192.0" stroke="rgba(0, 0, 0, 0.0)" stroke-width="21.333334" stroke-linecap="round" mask="url(#text-mask)" /><line x1="110.85125168440814" y1="192.0" x2="-110.85125168440814" y2="-192.0" stroke="rgba(128, 22, 40, 0.6666666666666666)" stroke-width="16.0" stroke-linecap="round" mask="url(#text-mask)" /></g></svg>