<svg xmlns="http://www.w3.org/2000/svg" viewBox="-309.12812921102034 -288.0 508 576"><rect x="-309.12812921102034" y="-288.0" width="100%" height="100%" fill="rgba(13, 15, 14, 1.0)" /><defs><mask x="-309.12812921102034" y="-288.0" width="100%" height="100%" id="full-mask" mask-type="luminance" maskUnits="userSpaceOnUse"><rect x="-309.12812921102034" y="-288.0" width="100%" height="100%" fill="rgba(255, 255, 255, 1.0)" /></mask><mask x="-309.12812921102034" y="-288.0" width="100%" height="100%" id="text-mask" mask-type="luminance" maskUnits="userSpaceOnUse"><rect x="-309.12812921102034" y="-288.0" width="100%" height="100%" fill="rgba(255, 255, 255, 1.0)" /></mask></defs><g mask="url(#full-mask)"><polygon points="-277.9941546148048,160.5 -277.9941546148048,223.5 -332.55375505322445,255.0 -387.1133554916441,223.5 -387.1133554916441,160.5 -332.55375505322445,129.0" fill="rgba(16, 18, 17, 1.0)" stroke="rgba(46, 42, 29, 1.0)" stroke-width="2.0" /><polygon points="-222.5685287726007,256.5 -222.5685287726007,319.5 -277.12812921102034,351.0 -331.68772964944,319.5 -331.68772964944,256.5 -277.12812921102034,225.0" fill="rgba(16, 18, 17, 1.0)" stroke="rgba(46, 42, 29, 1.0)" stroke-width="2.0" /><polygon points="-277.9941546148048,-31.499999999999996 -277.9941546148048,31.499999999999996 -332.55375505322445,63.0 -387.1133554916441,31.499999999999996 -387.1133554916441,-31.500000000000007 -332.55375505322445,-63.0" fill="rgba(16, 18, 17, 1.0)" stroke="rgba(46, 42, 29, 1.0)" stroke-width="2.0" /><polygon points="-222.56852877260076,64.5 -222.56852877260076,127.5 -277.1281292110204,159.0 -331.68772964944003,127.5 -331.68772964944003,64.5 -277.1281292110204,33.0" fill="rgba(16, 18, 17, 1.0)" stroke="rgba(46, 42, 29, 1.0)" stroke-width="2.0" /><polygon points="-167.14290293039667,160.5 -167.14290293039667,223.5 -221.7025033688163,255.0 -276.2621038072359,223.5 -276.2621038072359,160.5 -221.7025033688163,129.0" fill="rgba(16, 18, 17, 1.0)" stroke="rgba(46, 42, 29, 1.0)" stroke-width="2.0" /><polygon points="-111.71727708819259,256.5 -111.71727708819259,319.5 -166.27687752661222,351.0 -220.83647796503186,319.5 -220.83647796503186,256.5 -166.27687752661222,225.0" fill="rgba(16, 18, 17, 1.0)" stroke="rgba(46, 42, 29, 1.0)" stroke-width="2.0" /><polygon points="-277.9941546148048,-223.5 -277.9941546148048,-160.5 -332.55375505322445,-129.0 -387.1133554916441,-160.5 -387.1133554916441,-223.5 -332.55375505322445,-255.0" fill="rgba(16, 18, 17, 1.0)" stroke="rgba(46, 42, 29, 1.0)" stroke-width="2.0" /><polygon points="-222.5685287726007,-127.5 -222.5685287726007,-64.5 -277.12812921102034,-33.0 -331.68772964944,-64.5 -331.68772964944,-127.5 -277.12812921102034,-159.0" fill="rgba(16, 18, 17, 1.0)" stroke="rgba(46, 42, 29, 1.0)" stroke-width="2.0" /><polygon points="-167.14290293039664,-31.499999999999996 -167.14290293039664,31.499999999999996 -221.70250336881628,63.0 -276.2621038072359,31.499999999999996 -276.2621038072359,-31.500000000000007 -221.70250336881628,-63.0" fill="rgba(16, 18, 17, 1.0)" stroke="rgba(46, 42, 29, 1.0)" stroke-width="2.0" /><polygon points="-111.71727708819259,64.5 -111.71727708819259,127.5 -166.27687752661222,159.0 -220.83647796503186,127.5 -220.83647796503186,64.5 -166.27687752661222,33.0" fill="rgba(16, 18, 17, 1.0)" stroke="rgba(46, 42, 29, 1.0)" stroke-width="2.0" /><polygon points="-56.291651245988504,160.5 -56.291651245988504,223.5 -110.85125168440814,255.0 -165.41085212282778,223.5 -165.41085212282778,160.5 -110.85125168440815,129.0" fill="rgba(16, 18, 17, 1.0)" stroke="rgba(46, 42, 29, 1.0)" stroke-width="2.0" /><polygon points="-0.8660254037844197,256.5 -0.8660254037844197,319.5 -55.42562584220405,351.0 -109.98522628062369,319.5 -109.98522628062369,256.5 -55.42562584220407,225.0" fill="rgba(16, 18, 17, 1.0)" stroke="rgba(46, 42, 29, 1.0)" stroke-width="2.0" /><polygon points="-222.5685287726007,-319.5 -222.5685287726007,-256.5 -277.12812921102034,-225.0 -331.68772964944,-256.5 -331.68772964944,-319.5 -277.12812921102034,-351.0" fill="rgba(16, 18, 17, 1.0)" stroke="rgba(46, 42, 29, 1.0)" stroke-width="2.0" /><polygon points="-167.14290293039664,-223.5 -167.14290293039664,-160.5 -221.70250336881628,-129.0 -276.2621038072359,-160.5 -276.2621038072359,-223.5 -221.70250336881628,-255.0" fill="rgba(16, 18, 17, 1.0)" stroke="rgba(46, 42, 29, 1.0)" stroke-width="2.0" /><polygon points="-111.71727708819259,-127.5 -111.71727708819259,-64.5 -166.27687752661222,-33.0 -220.83647796503186,-64.5 -220.83647796503186,-127.5 -166.27687752661222,-159.0" fill="rgba(16, 18, 17, 1.0)" stroke="rgba(46, 42, 29, 1.0)" stroke-width="2.0" /><polygon points="-56.291651245988504,-31.499999999999996 -56.291651245988504,31.499999999999996 -110.85125168440814,63.0 -165.41085212282778,31.499999999999996 -165.41085212282778,-31.500000000000007 -110.85125168440815,-63.0" fill="rgba(16, 18, 17, 1.0)" stroke="rgba(46, 42, 29, 1.0)" stroke-width="2.0" /><polygon points="-0.8660254037844339,64.5 -0.8660254037844339,127.5 -55.42562584220406,159.0 -109.9852262806237,127.5 -109.98522628062369,64.5 -55.425625842204084,33.0" fill="rgba(16, 18, 17, 1.0)" stroke="rgba(46, 42, 29, 1.0)" stroke-width="2.0" /><polygon points="54.559600438419636,160.5 54.559600438419636,223.5 3.857637417314163E-15,255.0 -54.559600438419636,223.5 -54.55960043841963,160.5 -1.1572912251942487E-14,129.0" fill="rgba(16, 18, 17, 1.0)" stroke="rgba(46, 42, 29, 1.0)" stroke-width="2.0" /><polygon points="109.98522628062372,256.5 109.98522628062372,319.5 55.42562584220409,351.0 0.8660254037844481,319.5 0.8660254037844552,256.5 55.42562584220407,225.0" fill="rgba(16, 18, 17, 1.0)" stroke="rgba(46, 42, 29, 1.0)" stroke-width="2.0" /><polygon points="-111.71727708819259,-319.5 -111.71727708819259,-256.5 -166.27687752661222,-225.0 -220.83647796503186,-256.5 -220.83647796503186,-319.5 -166.27687752661222,-351.0" fill="rgba(16, 18, 17, 1.0)" stroke="rgba(46, 42, 29, 1.0)" stroke-width="2.0" /><polygon points="-56.291651245988504,-223.5 -56.291651245988504,-160.5 -110.85125168440814,-129.0 -165.41085212282778,-160.5 -165.41085212282778,-223.5 -110.85125168440815,-255.0" fill="rgba(16, 18, 17, 1.0)" stroke="rgba(46, 42, 29, 1.0)" stroke-width="2.0" /><polygon points="-0.8660254037844339,-127.5 -0.8660254037844339,-64.5 -55.42562584220406,-33.0 -109.9852262806237,-64.5 -109.98522628062369,-127.5 -55.425625842204084,-159.0" fill="rgba(16, 18, 17, 1.0)" stroke="rgba(46, 42, 29, 1.0)" stroke-width="2.0" /><polygon points="54.559600438419636,-31.499999999999996 54.559600438419636,31.499999999999996 3.857637417314163E-15,63.0 -54.559600438419636,31.499999999999996 -54.55960043841963,-31.500000000000007 -1.1572912251942487E-14,-63.0" fill="rgba(16, 18, 17, 1.0)" stroke="rgba(46, 42, 29, 1.0)" stroke-width="2.0" /><polygon points="109.9852262806237,64.5 109.9852262806237,127.5 55.42562584220408,159.0 0.8660254037844339,127.5 0.866025403784441,64.5 55.425625842204056,33.0" fill="rgba(240, 138, 60, 1.0)" stroke="rgba(46, 42, 29, 1.0)" stroke-width="2.0" /><polygon points="165.41085212282778,160.5 165.41085212282778,223.5 110.85125168440814,255.0 56.291651245988504,223.5 56.29165124598851,160.5 110.85125168440813,129.0" fill="rgba(63, 182, 217, 1.0)" stroke="rgba(46, 42, 29, 1.0)" stroke-width="2.0" /><polygon points="220.83647796503186,256.5 220.83647796503186,319.5 166.27687752661222,351.0 111.71727708819259,319.5 111.71727708819259,256.5 166.27687752661222,225.0" fill="rgba(16, 18, 17, 1.0)" stroke="rgba(46, 42, 29, 1.0)" stroke-width="2.0" /><polygon points="-0.8660254037844481,-319.5 -0.8660254037844481,-256.5 -55.42562584220408,-225.0 -109.98522628062372,-256.5 -109.98522628062372,-319.5 -55.4256258422041,-351.0" fill="rgba(16, 18, 17, 1.0)" stroke="rgba(46, 42, 29, 1.0)" stroke-width="2.0" /><polygon points="54.559600438419636,-223.5 54.559600438419636,-160.5 3.857637417314163E-15,-129.0 -54.559600438419636,-160.5 -54.55960043841963,-223.5 -1.1572912251942487E-14,-255.0" fill="rgba(16, 18, 17, 1.0)" stroke="rgba(46, 42, 29, 1.0)" stroke-width="2.0" /><polygon points="109.9852262806237,-127.5 109.9852262806237,-64.5 55.42562584220408,-33.0 0.8660254037844339,-64.5 0.866025403784441,-127.5 55.425625842204056,-159.0" fill="rgba(16, 18, 17, 1.0)" stroke="rgba(46, 42, 29, 1.0)" stroke-width="2.0" /><polygon points="165.41085212282778,-31.499999999999996 165.41085212282778,31.499999999999996 110.85125168440814,63.0 56.291651245988504,31.499999999999996 56.29165124598851,-31.500000000000007 110.85125168440813,-63.0" fill="rgba(16, 18, 17, 1.0)" stroke="rgba(46, 42, 29, 1.0)" stroke-width="2.0" /><polygon points="220.83647796503186,64.5 220.83647796503186,127.5 166.27687752661222,159.0 111.71727708819259,127.5 111.71727708819259,64.5 166.27687752661222,33.0" fill="rgba(16, 18, 17, 1.0)" stroke="rgba(46, 42, 29, 1.0)" stroke-width="2.0" /><polygon points="276.2621038072359,160.5 276.2621038072359,223.5 221.70250336881628,255.0 167.14290293039664,223.5 167.14290293039664,160.5 221.70250336881628,129.0" fill="rgba(16, 18, 17, 1.0)" stroke="rgba(46, 42, 29, 1.0)" stroke-width="2.0" /><polygon points="109.98522628062369,-319.5 109.98522628062369,-256.5 55.42562584220406,-225.0 0.8660254037844197,-256.5 0.8660254037844268,-319.5 55.42562584220404,-351.0" fill="rgba(16, 18, 17, 1.0)" stroke="rgba(46, 42, 29, 1.0)" stroke-width="2.0" /><polygon points="165.41085212282778,-223.5 165.41085212282778,-160.5 110.85125168440814,-129.0 56.291651245988504,-160.5 56.29165124598851,-223.5 110.85125168440813,-255.0" fill="rgba(16, 18, 17, 1.0)" stroke="rgba(46, 42, 29, 1.0)" stroke-width="2.0" /><polygon points="220.83647796503186,-127.5 220.83647796503186,-64.5 166.27687752661222,-33.0 111.71727708819259,-64.5 111.71727708819259,-127.5 166.27687752661222,-159.0" fill="rgba(16, 18, 17, 1.0)" stroke="rgba(46, 42, 29, 1.0)" stroke-width="2.0" /><polygon points="276.2621038072359,-31.499999999999996 276.2621038072359,31.499999999999996 221.70250336881628,63.0 167.14290293039664,31.499999999999996 167.14290293039664,-31.500000000000007 221.70250336881628,-63.0" fill="rgba(16, 18, 17, 1.0)" stroke="rgba(46, 42, 29, 1.0)" stroke-width="2.0" /><polygon points="220.83647796503186,-319.5 220.83647796503186,-256.5 166.27687752661222,-225.0 111.71727708819259,-256.5 111.71727708819259,-319.5 166.27687752661222,-351.0" fill="rgba(16, 18, 17, 1.0)" stroke="rgba(46, 42, 29, 1.0)" stroke-width="2.0" /><polygon points="276.2621038072359,-223.5 276.2621038072359,-160.5 221.7025033688163,-129.0 167.14290293039667,-160.5 167.14290293039667,-223.5 221.7025033688163,-255.0" fill="rgba(16, 18, 17, 1.0)" stroke="rgba(46, 42, 29, 1.0)" stroke-width="2.0" /><polygon points="109.9852262806237,64.5 109.9852262806237,127.5 55.42562584220408,159.0 0.8660254037844339,127.5 0.866025403784441,64.5 55.425625842204056,33.0" fill="rgba(0, 0, 0, 0.0)" stroke="rgba(58, 66, 63, 1.0)" stroke-width="4.0" /><polygon points="165.41085212282778,160.5 165.41085212282778,223.5 110.85125168440814,255.0 56.291651245988504,223.5 56.29165124598851,160.5 110.85125168440813,129.0" fill="rgba(0, 0, 0, 0.0)" stroke="rgba(58, 66, 63, 1.0)" stroke-width="4.0" /></g></svg>