<svg xmlns="http://www.w3.org/2000/svg" viewBox="-530.8306325798367 -192.0 840 384"><rect x="-530.8306325798367" y="-192.0" width="100%" height="100%" fill="rgba(15, 23, 42, 1.0)" /><defs><mask x="-530.8306325798367" y="-192.0" width="100%" height="100%" id="full-mask" mask-type="luminance" maskUnits="userSpaceOnUse"><rect x="-530.8306325798367" y="-192.0" width="100%" height="100%" fill="rgba(255, 255, 255, 1.0)" /></mask><mask x="-530.8306325798367" y="-192.0" width="100%" height="100%" id="text-mask" mask-type="luminance" maskUnits="userSpaceOnUse"><rect x="-530.8306325798367" y="-192.0" width="100%" height="100%" fill="rgba(255, 255, 255, 1.0)" /><text stroke="rgba(51, 51, 51, 1.0)" stroke-width="6.7666664" stroke-linecap="round" stroke-linejoin="round" font-weight="800" font-family="system-ui, -apple-system, BlinkMacSystemFont, sans-serif" font-size="40.6px" text-anchor="middle" dominant-baseline="central" x="-443.40500673763256" y="0.0">3</text><text fill="rgba(0, 0, 0, 1.0)" font-weight="800" font-family="system-ui, -apple-system, BlinkMacSystemFont, sans-serif" font-size="40.6px" text-anchor="middle" dominant-baseline="central" x="-443.40500673763256" y="0.0">3</text><text stroke="rgba(51, 51, 51, 1.0)" stroke-width="6.7666664" stroke-linecap="round" stroke-linejoin="round" font-weight="800" font-family="system-ui, -apple-system, BlinkMacSystemFont, sans-serif" font-size="40.6px" text-anchor="middle" dominant-baseline="central" x="-110.85125168440814" y="0.0">2</text><text fill="rgba(0, 0, 0, 1.0)" font-weight="800" font-family="system-ui, -apple-system, BlinkMacSystemFont, sans-serif" font-size="40.6px" text-anchor="middle" dominant-baseline="central" x="-110.85125168440814" y="0.0">2</text><text stroke="rgba(51, 51, 51, 1.0)" stroke-width="6.7666664" stroke-linecap="round" stroke-linejoin="round" font-weight="800" font-family="system-ui, -apple-system, BlinkMacSystemFont, sans-serif" font-size="40.6px" text-anchor="middle" dominant-baseline="central" x="0.0" y="0.0">0</text><text fill="rgba(0, 0, 0, 1.0)" font-weight="800" font-family="system-ui, -apple-system, BlinkMacSystemFont, sans-serif" font-size="40.6px" text-anchor="middle" dominant-baseline="central" x="0.0" y="0.0">0</text><text stroke="rgba(51, 51, 51, 1.0)" stroke-width="6.7666664" stroke-linecap="round" stroke-linejoin="round" font-weight="800" font-family="system-ui, -apple-system, BlinkMacSystemFont, sans-serif" font-size="40.6px" text-anchor="middle" dominant-baseline="central" x="55.42562584220407" y="96.0">1</text><text fill="rgba(0, 0, 0, 1.0)" font-weight="800" font-family="system-ui, -apple-system, BlinkMacSystemFont, sans-serif" font-size="40.6px" text-anchor="middle" dominant-baseline="central" x="55.42562584220407" y="96.0">1</text><text stroke="rgba(51, 51, 51, 1.0)" stroke-width="6.7666664" stroke-linecap="round" stroke-linejoin="round" font-weight="800" font-family="system-ui, -apple-system, BlinkMacSystemFont, sans-serif" font-size="40.6px" text-anchor="middle" dominant-baseline="central" x="55.42562584220407" y="-96.0">1</text><text fill="rgba(0, 0, 0, 1.0)" font-weight="800" font-family="system-ui, -apple-system, BlinkMacSystemFont, sans-serif" font-size="40.6px" text-anchor="middle" dominant-baseline="central" x="55.42562584220407" y="-96.0">1</text><text stroke="rgba(51, 51, 51, 1.0)" stroke-width="6.7666664" stroke-linecap="round" stroke-linejoin="round" font-weight="800" font-family="system-ui, -apple-system, BlinkMacSystemFont, sans-serif" font-size="40.6px" text-anchor="middle" dominant-baseline="central" x="110.85125168440814" y="0.0">2</text><text fill="rgba(0, 0, 0, 1.0)" font-weight="800" font-family="system-ui, -apple-system, BlinkMacSystemFont, sans-serif" font-size="40.6px" text-anchor="middle" dominant-baseline="central" x="110.85125168440814" y="0.0">2</text><text stroke="rgba(51, 51, 51, 1.0)" stroke-width="6.7666664" stroke-linecap="round" stroke-linejoin="round" font-weight="800" font-family="system-ui, -apple-system, BlinkMacSystemFont, sans-serif" font-size="40.6px" text-anchor="middle" dominant-baseline="central" x="221.70250336881628" y="0.0">3</text><text fill="rgba(0, 0, 0, 1.0)" font-weight="800" font-family="system-ui, -apple-system, BlinkMacSystemFont, sans-serif" font-size="40.6px" text-anchor="middle" dominant-baseline="central" x="221.70250336881628" y="0.0">3</text></mask></defs><g mask="url(#full-mask)"><polygon points="-504.02678500254336,163.0 -504.02678500254336,221.0 -554.2562584220408,250.0 -604.4857318415383,221.0 -604.4857318415383,163.0 -554.2562584220408,134.0" fill="rgba(0, 0, 0, 0.0)" stroke="rgba(35, 45, 67, 1.0)" stroke-width="2.0" /><polygon points="-504.02678500254325,-28.999999999999996 -504.02678500254325,28.999999999999996 -554.2562584220407,58.0 -604.4857318415382,28.999999999999996 -604.4857318415382,-29.000000000000007 -554.2562584220407,-58.0" fill="rgba(0, 0, 0, 0.0)" stroke="rgba(35, 45, 67, 1.0)" stroke-width="2.0" /><polygon points="-448.6011591603392,67.0 -448.6011591603392,125.0 -498.8306325798366,154.0 -549.060105999334,125.0 -549.060105999334,67.0 -498.8306325798366,38.0" fill="rgba(0, 0, 0, 0.0)" stroke="rgba(35, 45, 67, 1.0)" stroke-width="2.0" /><polygon points="-393.17553331813514,163.0 -393.17553331813514,221.0 -443.40500673763256,250.0 -493.63448015713,221.0 -493.63448015713,163.0 -443.40500673763256,134.0" fill="rgba(0, 0, 0, 0.0)" stroke="rgba(35, 45, 67, 1.0)" stroke-width="2.0" /><polygon points="-504.02678500254325,-221.0 -504.02678500254325,-163.0 -554.2562584220407,-134.0 -604.4857318415382,-163.0 -604.4857318415382,-221.0 -554.2562584220407,-250.0" fill="rgba(0, 0, 0, 0.0)" stroke="rgba(35, 45, 67, 1.0)" stroke-width="2.0" /><polygon points="-448.6011591603392,-125.0 -448.6011591603392,-67.0 -498.8306325798366,-38.0 -549.060105999334,-67.0 -549.060105999334,-125.0 -498.8306325798366,-154.0" fill="rgba(0, 0, 0, 0.0)" stroke="rgba(35, 45, 67, 1.0)" stroke-width="2.0" /><polygon points="-393.17553331813514,-28.999999999999996 -393.17553331813514,28.999999999999996 -443.40500673763256,58.0 -493.63448015713,28.999999999999996 -493.63448015713,-29.000000000000007 -443.40500673763256,-58.0" fill="rgba(56, 189, 248, 1.0)" stroke="rgba(35, 45, 67, 1.0)" stroke-width="2.0" /><circle cx="-443.40500673763256" cy="0.0" fill="rgba(255, 255, 255, 1.0)" r="8.0" mask="url(#text-mask)" /><polygon points="-393.17553331813514,-28.999999999999996 -393.17553331813514,28.999999999999996 -443.40500673763256,58.0 -493.63448015713,28.999999999999996 -493.63448015713,-29.000000000000007 -443.40500673763256,-58.0" fill="rgba(236, 111, 177, 0.18823529411764706)" stroke="rgba(236, 111, 177, 1.0)" stroke-width="6.0" /><text fill="rgba(19, 66, 86, 1.0)" font-weight="800" font-family="system-ui, -apple-system, BlinkMacSystemFont, sans-serif" font-size="40.6px" text-anchor="middle" dominant-baseline="central" x="-443.40500673763256" y="0.0">3</text><polygon points="-337.7499074759311,67.0 -337.7499074759311,125.0 -387.9793808954285,154.0 -438.20885431492593,125.0 -438.20885431492593,67.0 -387.9793808954285,38.0" fill="rgba(0, 0, 0, 0.0)" stroke="rgba(35, 45, 67, 1.0)" stroke-width="2.0" /><polygon points="-282.324281633727,163.0 -282.324281633727,221.0 -332.55375505322445,250.0 -382.7832284727219,221.0 -382.7832284727219,163.0 -332.55375505322445,134.0" fill="rgba(0, 0, 0, 0.0)" stroke="rgba(35, 45, 67, 1.0)" stroke-width="2.0" /><polygon points="-393.17553331813514,-221.0 -393.17553331813514,-163.0 -443.40500673763256,-134.0 -493.63448015713,-163.0 -493.63448015713,-221.0 -443.40500673763256,-250.0" fill="rgba(0, 0, 0, 0.0)" stroke="rgba(35, 45, 67, 1.0)" stroke-width="2.0" /><polygon points="-337.7499074759311,-125.0 -337.7499074759311,-67.0 -387.9793808954285,-38.0 -438.20885431492593,-67.0 -438.20885431492593,-125.0 -387.9793808954285,-154.0" fill="rgba(0, 0, 0, 0.0)" stroke="rgba(35, 45, 67, 1.0)" stroke-width="2.0" /><polygon points="-282.324281633727,-28.999999999999996 -282.324281633727,28.999999999999996 -332.55375505322445,58.0 -382.7832284727219,28.999999999999996 -382.7832284727219,-29.000000000000007 -332.55375505322445,-58.0" fill="rgba(0, 0, 0, 0.0)" stroke="rgba(35, 45, 67, 1.0)" stroke-width="2.0" /><polygon points="-282.324281633727,-28.999999999999996 -282.324281633727,28.999999999999996 -332.55375505322445,58.0 -382.7832284727219,28.999999999999996 -382.7832284727219,-29.000000000000007 -332.55375505322445,-58.0" fill="rgba(236, 111, 177, 0.18823529411764706)" stroke="rgba(236, 111, 177, 1.0)" stroke-width="6.0" /><polygon points="-226.89865579152294,67.0 -226.89865579152294,125.0 -277.1281292110204,154.0 -327.3576026305178,125.0 -327.3576026305178,67.0 -277.1281292110204,38.0" fill="rgba(0, 0, 0, 0.0)" stroke="rgba(35, 45, 67, 1.0)" stroke-width="2.0" /><polygon points="-171.47302994931886,163.0 -171.47302994931886,221.0 -221.7025033688163,250.0 -271.93197678831376,221.0 -271.93197678831376,163.0 -221.7025033688163,134.0" fill="rgba(0, 0, 0, 0.0)" stroke="rgba(35, 45, 67, 1.0)" stroke-width="2.0" /><polygon points="-282.324281633727,-221.0 -282.324281633727,-163.0 -332.55375505322445,-134.0 -382.7832284727219,-163.0 -382.7832284727219,-221.0 -332.55375505322445,-250.0" fill="rgba(0, 0, 0, 0.0)" stroke="rgba(35, 45, 67, 1.0)" stroke-width="2.0" /><polygon points="-226.89865579152288,-125.0 -226.89865579152288,-67.0 -277.12812921102034,-38.0 -327.35760263051776,-67.0 -327.35760263051776,-125.0 -277.12812921102034,-154.0" fill="rgba(0, 0, 0, 0.0)" stroke="rgba(35, 45, 67, 1.0)" stroke-width="2.0" /><polygon points="-171.47302994931883,-28.999999999999996 -171.47302994931883,28.999999999999996 -221.70250336881628,58.0 -271.9319767883137,28.999999999999996 -271.9319767883137,-29.000000000000007 -221.70250336881628,-58.0" fill="rgba(0, 0, 0, 0.0)" stroke="rgba(35, 45, 67, 1.0)" stroke-width="2.0" /><polygon points="-116.04740410711477,67.0 -116.04740410711477,125.0 -166.27687752661222,154.0 -216.50635094610968,125.0 -216.50635094610965,67.0 -166.27687752661222,38.0" fill="rgba(0, 0, 0, 0.0)" stroke="rgba(35, 45, 67, 1.0)" stroke-width="2.0" /><polygon points="-60.621778264910695,163.0 -60.621778264910695,221.0 -110.85125168440814,250.0 -161.0807251039056,221.0 -161.0807251039056,163.0 -110.85125168440815,134.0" fill="rgba(0, 0, 0, 0.0)" stroke="rgba(35, 45, 67, 1.0)" stroke-width="2.0" /><polygon points="-171.47302994931883,-221.0 -171.47302994931883,-163.0 -221.70250336881628,-134.0 -271.9319767883137,-163.0 -271.9319767883137,-221.0 -221.70250336881628,-250.0" fill="rgba(0, 0, 0, 0.0)" stroke="rgba(35, 45, 67, 1.0)" stroke-width="2.0" /><polygon points="-116.04740410711477,-125.0 -116.04740410711477,-67.0 -166.27687752661222,-38.0 -216.50635094610968,-67.0 -216.50635094610965,-125.0 -166.27687752661222,-154.0" fill="rgba(0, 0, 0, 0.0)" stroke="rgba(35, 45, 67, 1.0)" stroke-width="2.0" /><polygon points="-60.621778264910695,-28.999999999999996 -60.621778264910695,28.999999999999996 -110.85125168440814,58.0 -161.0807251039056,28.999999999999996 -161.0807251039056,-29.000000000000007 -110.85125168440815,-58.0" fill="rgba(251, 193, 57, 1.0)" stroke="rgba(35, 45, 67, 1.0)" stroke-width="2.0" /><text fill="rgba(87, 67, 19, 1.0)" font-weight="800" font-family="system-ui, -apple-system, BlinkMacSystemFont, sans-serif" font-size="40.6px" text-anchor="middle" dominant-baseline="central" x="-110.85125168440814" y="0.0">2</text><polygon points="-5.196152422706625,67.0 -5.196152422706625,125.0 -55.42562584220407,154.0 -105.65509926170151,125.0 -105.65509926170151,67.0 -55.42562584220408,38.0" fill="rgba(0, 0, 0, 0.0)" stroke="rgba(35, 45, 67, 1.0)" stroke-width="2.0" /><polygon points="50.229473419497445,163.0 50.229473419497445,221.0 3.5514757175273244E-15,250.0 -50.229473419497445,221.0 -50.22947341949744,163.0 -1.0654427152581972E-14,134.0" fill="rgba(0, 0, 0, 0.0)" stroke="rgba(35, 45, 67, 1.0)" stroke-width="2.0" /><polygon points="-60.621778264910695,-221.0 -60.621778264910695,-163.0 -110.85125168440814,-134.0 -161.0807251039056,-163.0 -161.0807251039056,-221.0 -110.85125168440815,-250.0" fill="rgba(0, 0, 0, 0.0)" stroke="rgba(35, 45, 67, 1.0)" stroke-width="2.0" /><polygon points="-5.196152422706625,-125.0 -5.196152422706625,-67.0 -55.42562584220407,-38.0 -105.65509926170151,-67.0 -105.65509926170151,-125.0 -55.42562584220408,-154.0" fill="rgba(0, 0, 0, 0.0)" stroke="rgba(35, 45, 67, 1.0)" stroke-width="2.0" /><polygon points="50.229473419497445,-28.999999999999996 50.229473419497445,28.999999999999996 3.5514757175273244E-15,58.0 -50.229473419497445,28.999999999999996 -50.22947341949744,-29.000000000000007 -1.0654427152581972E-14,-58.0" fill="rgba(251, 193, 57, 1.0)" stroke="rgba(35, 45, 67, 1.0)" stroke-width="2.0" /><text fill="rgba(87, 67, 19, 1.0)" font-weight="800" font-family="system-ui, -apple-system, BlinkMacSystemFont, sans-serif" font-size="40.6px" text-anchor="middle" dominant-baseline="central" x="0.0" y="0.0">0</text><polygon points="105.65509926170151,67.0 105.65509926170151,125.0 55.42562584220407,154.0 5.196152422706625,125.0 5.196152422706632,67.0 55.42562584220406,38.0" fill="rgba(56, 189, 248, 1.0)" stroke="rgba(35, 45, 67, 1.0)" stroke-width="2.0" /><text fill="rgba(19, 66, 86, 1.0)" font-weight="800" font-family="system-ui, -apple-system, BlinkMacSystemFont, sans-serif" font-size="40.6px" text-anchor="middle" dominant-baseline="central" x="55.42562584220407" y="96.0">1</text><polygon points="161.0807251039056,163.0 161.0807251039056,221.0 110.85125168440814,250.0 60.621778264910695,221.0 60.6217782649107,163.0 110.85125168440813,134.0" fill="rgba(0, 0, 0, 0.0)" stroke="rgba(35, 45, 67, 1.0)" stroke-width="2.0" /><polygon points="50.229473419497445,-221.0 50.229473419497445,-163.0 3.5514757175273244E-15,-134.0 -50.229473419497445,-163.0 -50.22947341949744,-221.0 -1.0654427152581972E-14,-250.0" fill="rgba(0, 0, 0, 0.0)" stroke="rgba(35, 45, 67, 1.0)" stroke-width="2.0" /><polygon points="105.65509926170151,-125.0 105.65509926170151,-67.0 55.42562584220407,-38.0 5.196152422706625,-67.0 5.196152422706632,-125.0 55.42562584220406,-154.0" fill="rgba(56, 189, 248, 1.0)" stroke="rgba(35, 45, 67, 1.0)" stroke-width="2.0" /><text fill="rgba(19, 66, 86, 1.0)" font-weight="800" font-family="system-ui, -apple-system, BlinkMacSystemFont, sans-serif" font-size="40.6px" text-anchor="middle" dominant-baseline="central" x="55.42562584220407" y="-96.0">1</text><polygon points="161.0807251039056,-28.999999999999996 161.0807251039056,28.999999999999996 110.85125168440814,58.0 60.621778264910695,28.999999999999996 60.6217782649107,-29.000000000000007 110.85125168440813,-58.0" fill="rgba(251, 193, 57, 1.0)" stroke="rgba(35, 45, 67, 1.0)" stroke-width="2.0" /><text fill="rgba(87, 67, 19, 1.0)" font-weight="800" font-family="system-ui, -apple-system, BlinkMacSystemFont, sans-serif" font-size="40.6px" text-anchor="middle" dominant-baseline="central" x="110.85125168440814" y="0.0">2</text><polygon points="216.50635094610968,67.0 216.50635094610968,125.0 166.27687752661222,154.0 116.04740410711477,125.0 116.04740410711479,67.0 166.27687752661222,38.0" fill="rgba(0, 0, 0, 0.0)" stroke="rgba(35, 45, 67, 1.0)" stroke-width="2.0" /><polygon points="271.9319767883137,163.0 271.9319767883137,221.0 221.70250336881628,250.0 171.47302994931883,221.0 171.47302994931886,163.0 221.70250336881628,134.0" fill="rgba(0, 0, 0, 0.0)" stroke="rgba(35, 45, 67, 1.0)" stroke-width="2.0" /><polygon points="161.0807251039056,-221.0 161.0807251039056,-163.0 110.85125168440814,-134.0 60.621778264910695,-163.0 60.6217782649107,-221.0 110.85125168440813,-250.0" fill="rgba(0, 0, 0, 0.0)" stroke="rgba(35, 45, 67, 1.0)" stroke-width="2.0" /><polygon points="216.50635094610968,-125.0 216.50635094610968,-67.0 166.27687752661222,-38.0 116.04740410711477,-67.0 116.04740410711479,-125.0 166.27687752661222,-154.0" fill="rgba(0, 0, 0, 0.0)" stroke="rgba(35, 45, 67, 1.0)" stroke-width="2.0" /><polygon points="271.9319767883137,-28.999999999999996 271.9319767883137,28.999999999999996 221.70250336881628,58.0 171.47302994931883,28.999999999999996 171.47302994931886,-29.000000000000007 221.70250336881628,-58.0" fill="rgba(56, 189, 248, 1.0)" stroke="rgba(35, 45, 67, 1.0)" stroke-width="2.0" /><polygon points="271.9319767883137,-28.999999999999996 271.9319767883137,28.999999999999996 221.70250336881628,58.0 171.47302994931883,28.999999999999996 171.47302994931886,-29.000000000000007 221.70250336881628,-58.0" fill="rgba(255, 255, 255, 0.18823529411764706)" stroke="rgba(255, 255, 255, 1.0)" stroke-width="6.0" /><text fill="rgba(19, 66, 86, 1.0)" font-weight="800" font-family="system-ui, -apple-system, BlinkMacSystemFont, sans-serif" font-size="40.6px" text-anchor="middle" dominant-baseline="central" x="221.70250336881628" y="0.0">3</text><polygon points="327.35760263051776,67.0 327.35760263051776,125.0 277.12812921102034,154.0 226.89865579152288,125.0 226.8986557915229,67.0 277.12812921102034,38.0" fill="rgba(0, 0, 0, 0.0)" stroke="rgba(35, 45, 67, 1.0)" stroke-width="2.0" /><polygon points="382.7832284727219,163.0 382.7832284727219,221.0 332.55375505322445,250.0 282.324281633727,221.0 282.324281633727,163.0 332.55375505322445,134.0" fill="rgba(0, 0, 0, 0.0)" stroke="rgba(35, 45, 67, 1.0)" stroke-width="2.0" /><polygon points="271.93197678831376,-221.0 271.93197678831376,-163.0 221.7025033688163,-134.0 171.47302994931886,-163.0 171.47302994931886,-221.0 221.7025033688163,-250.0" fill="rgba(0, 0, 0, 0.0)" stroke="rgba(35, 45, 67, 1.0)" stroke-width="2.0" /><polygon points="327.3576026305178,-125.0 327.3576026305178,-67.0 277.1281292110204,-38.0 226.89865579152294,-67.0 226.89865579152297,-125.0 277.1281292110204,-154.0" fill="rgba(0, 0, 0, 0.0)" stroke="rgba(35, 45, 67, 1.0)" stroke-width="2.0" /><polygon points="382.7832284727219,-28.999999999999996 382.7832284727219,28.999999999999996 332.55375505322445,58.0 282.324281633727,28.999999999999996 282.324281633727,-29.000000000000007 332.55375505322445,-58.0" fill="rgba(0, 0, 0, 0.0)" stroke="rgba(35, 45, 67, 1.0)" stroke-width="2.0" /><polygon points="382.7832284727219,-221.0 382.7832284727219,-163.0 332.55375505322445,-134.0 282.324281633727,-163.0 282.324281633727,-221.0 332.55375505322445,-250.0" fill="rgba(0, 0, 0, 0.0)" stroke="rgba(35, 45, 67, 1.0)" stroke-width="2.0" /></g></svg>