<svg xmlns="http://www.w3.org/2000/svg" viewBox="-530.8306325798367 -192.0 840 384"><rect x="-530.8306325798367" y="-192.0" width="100%" height="100%" fill="rgba(13, 15, 14, 1.0)" /><defs><mask x="-530.8306325798367" y="-192.0" width="100%" height="100%" id="full-mask" mask-type="luminance" maskUnits="userSpaceOnUse"><rect x="-530.8306325798367" y="-192.0" width="100%" height="100%" fill="rgba(255, 255, 255, 1.0)" /></mask><mask x="-530.8306325798367" y="-192.0" width="100%" height="100%" id="text-mask" mask-type="luminance" maskUnits="userSpaceOnUse"><rect x="-530.8306325798367" y="-192.0" width="100%" height="100%" fill="rgba(255, 255, 255, 1.0)" /></mask></defs><g mask="url(#full-mask)"><polygon points="-499.69665798362115,160.5 -499.69665798362115,223.5 -554.2562584220408,255.0 -608.8158588604604,223.5 -608.8158588604604,160.5 -554.2562584220408,129.0" fill="rgba(16, 18, 17, 1.0)" stroke="rgba(46, 42, 29, 1.0)" stroke-width="2.0" /><polygon points="-499.69665798362104,-31.499999999999996 -499.69665798362104,31.499999999999996 -554.2562584220407,63.0 -608.8158588604604,31.499999999999996 -608.8158588604603,-31.500000000000007 -554.2562584220407,-63.0" fill="rgba(16, 18, 17, 1.0)" stroke="rgba(46, 42, 29, 1.0)" stroke-width="2.0" /><polygon points="-444.271032141417,64.5 -444.271032141417,127.5 -498.8306325798366,159.0 -553.3902330182563,127.5 -553.3902330182563,64.5 -498.8306325798366,33.0" fill="rgba(16, 18, 17, 1.0)" stroke="rgba(46, 42, 29, 1.0)" stroke-width="2.0" /><polygon points="-388.8454062992129,160.5 -388.8454062992129,223.5 -443.40500673763256,255.0 -497.9646071760522,223.5 -497.9646071760522,160.5 -443.40500673763256,129.0" fill="rgba(16, 18, 17, 1.0)" stroke="rgba(46, 42, 29, 1.0)" stroke-width="2.0" /><polygon points="-499.69665798362104,-223.5 -499.69665798362104,-160.5 -554.2562584220407,-129.0 -608.8158588604604,-160.5 -608.8158588604603,-223.5 -554.2562584220407,-255.0" fill="rgba(16, 18, 17, 1.0)" stroke="rgba(46, 42, 29, 1.0)" stroke-width="2.0" /><polygon points="-444.271032141417,-127.5 -444.271032141417,-64.5 -498.8306325798366,-33.0 -553.3902330182563,-64.5 -553.3902330182563,-127.5 -498.8306325798366,-159.0" fill="rgba(16, 18, 17, 1.0)" stroke="rgba(46, 42, 29, 1.0)" stroke-width="2.0" /><polygon points="-388.8454062992129,-31.499999999999996 -388.8454062992129,31.499999999999996 -443.40500673763256,63.0 -497.9646071760522,31.499999999999996 -497.9646071760522,-31.500000000000007 -443.40500673763256,-63.0" fill="rgba(63, 182, 217, 1.0)" stroke="rgba(46, 42, 29, 1.0)" stroke-width="2.0" /><polygon points="-402.48530640881785,-23.624999999999996 -402.48530640881785,23.624999999999996 -443.40500673763256,47.25 -484.3247070664473,23.624999999999996 -484.3247070664473,-23.625000000000004 -443.40500673763256,-47.25" fill="rgba(0, 0, 0, 0.0)" stroke="rgba(179, 255, 255, 0.7686274509803922)" stroke-width="6.0" /><polygon points="-333.41978045700887,64.5 -333.41978045700887,127.5 -387.9793808954285,159.0 -442.53898133384814,127.5 -442.53898133384814,64.5 -387.9793808954285,33.0" fill="rgba(16, 18, 17, 1.0)" stroke="rgba(46, 42, 29, 1.0)" stroke-width="2.0" /><polygon points="-277.9941546148048,160.5 -277.9941546148048,223.5 -332.55375505322445,255.0 -387.1133554916441,223.5 -387.1133554916441,160.5 -332.55375505322445,129.0" fill="rgba(16, 18, 17, 1.0)" stroke="rgba(46, 42, 29, 1.0)" stroke-width="2.0" /><polygon points="-388.8454062992129,-223.5 -388.8454062992129,-160.5 -443.40500673763256,-129.0 -497.9646071760522,-160.5 -497.9646071760522,-223.5 -443.40500673763256,-255.0" fill="rgba(16, 18, 17, 1.0)" stroke="rgba(46, 42, 29, 1.0)" stroke-width="2.0" /><polygon points="-333.41978045700887,-127.5 -333.41978045700887,-64.5 -387.9793808954285,-33.0 -442.53898133384814,-64.5 -442.53898133384814,-127.5 -387.9793808954285,-159.0" fill="rgba(16, 18, 17, 1.0)" stroke="rgba(46, 42, 29, 1.0)" stroke-width="2.0" /><polygon points="-277.9941546148048,-31.499999999999996 -277.9941546148048,31.499999999999996 -332.55375505322445,63.0 -387.1133554916441,31.499999999999996 -387.1133554916441,-31.500000000000007 -332.55375505322445,-63.0" fill="rgba(16, 18, 17, 1.0)" stroke="rgba(46, 42, 29, 1.0)" stroke-width="2.0" /><polygon points="-222.56852877260076,64.5 -222.56852877260076,127.5 -277.1281292110204,159.0 -331.68772964944003,127.5 -331.68772964944003,64.5 -277.1281292110204,33.0" fill="rgba(16, 18, 17, 1.0)" stroke="rgba(46, 42, 29, 1.0)" stroke-width="2.0" /><polygon points="-167.14290293039667,160.5 -167.14290293039667,223.5 -221.7025033688163,255.0 -276.2621038072359,223.5 -276.2621038072359,160.5 -221.7025033688163,129.0" fill="rgba(16, 18, 17, 1.0)" stroke="rgba(46, 42, 29, 1.0)" stroke-width="2.0" /><polygon points="-277.9941546148048,-223.5 -277.9941546148048,-160.5 -332.55375505322445,-129.0 -387.1133554916441,-160.5 -387.1133554916441,-223.5 -332.55375505322445,-255.0" fill="rgba(16, 18, 17, 1.0)" stroke="rgba(46, 42, 29, 1.0)" stroke-width="2.0" /><polygon points="-222.5685287726007,-127.5 -222.5685287726007,-64.5 -277.12812921102034,-33.0 -331.68772964944,-64.5 -331.68772964944,-127.5 -277.12812921102034,-159.0" fill="rgba(16, 18, 17, 1.0)" stroke="rgba(46, 42, 29, 1.0)" stroke-width="2.0" /><polygon points="-167.14290293039664,-31.499999999999996 -167.14290293039664,31.499999999999996 -221.70250336881628,63.0 -276.2621038072359,31.499999999999996 -276.2621038072359,-31.500000000000007 -221.70250336881628,-63.0" fill="rgba(16, 18, 17, 1.0)" stroke="rgba(46, 42, 29, 1.0)" stroke-width="2.0" /><polygon points="-111.71727708819259,64.5 -111.71727708819259,127.5 -166.27687752661222,159.0 -220.83647796503186,127.5 -220.83647796503186,64.5 -166.27687752661222,33.0" fill="rgba(16, 18, 17, 1.0)" stroke="rgba(46, 42, 29, 1.0)" stroke-width="2.0" /><polygon points="-56.291651245988504,160.5 -56.291651245988504,223.5 -110.85125168440814,255.0 -165.41085212282778,223.5 -165.41085212282778,160.5 -110.85125168440815,129.0" fill="rgba(16, 18, 17, 1.0)" stroke="rgba(46, 42, 29, 1.0)" stroke-width="2.0" /><polygon points="-167.14290293039664,-223.5 -167.14290293039664,-160.5 -221.70250336881628,-129.0 -276.2621038072359,-160.5 -276.2621038072359,-223.5 -221.70250336881628,-255.0" fill="rgba(16, 18, 17, 1.0)" stroke="rgba(46, 42, 29, 1.0)" stroke-width="2.0" /><polygon points="-111.71727708819259,-127.5 -111.71727708819259,-64.5 -166.27687752661222,-33.0 -220.83647796503186,-64.5 -220.83647796503186,-127.5 -166.27687752661222,-159.0" fill="rgba(16, 18, 17, 1.0)" stroke="rgba(46, 42, 29, 1.0)" stroke-width="2.0" /><polygon points="-56.291651245988504,-31.499999999999996 -56.291651245988504,31.499999999999996 -110.85125168440814,63.0 -165.41085212282778,31.499999999999996 -165.41085212282778,-31.500000000000007 -110.85125168440815,-63.0" fill="rgba(240, 138, 60, 1.0)" stroke="rgba(46, 42, 29, 1.0)" stroke-width="2.0" /><polygon points="-69.93155135559341,-23.624999999999996 -69.93155135559341,23.624999999999996 -110.85125168440814,47.25 -151.77095201322288,23.624999999999996 -151.77095201322288,-23.625000000000004 -110.85125168440815,-47.25" fill="rgba(0, 0, 0, 0.0)" stroke="rgba(255, 255, 171, 0.7686274509803922)" stroke-width="6.0" /><polygon points="-0.8660254037844339,64.5 -0.8660254037844339,127.5 -55.42562584220406,159.0 -109.9852262806237,127.5 -109.98522628062369,64.5 -55.425625842204084,33.0" fill="rgba(16, 18, 17, 1.0)" stroke="rgba(46, 42, 29, 1.0)" stroke-width="2.0" /><polygon points="54.559600438419636,160.5 54.559600438419636,223.5 3.857637417314163E-15,255.0 -54.559600438419636,223.5 -54.55960043841963,160.5 -1.1572912251942487E-14,129.0" fill="rgba(16, 18, 17, 1.0)" stroke="rgba(46, 42, 29, 1.0)" stroke-width="2.0" /><polygon points="-56.291651245988504,-223.5 -56.291651245988504,-160.5 -110.85125168440814,-129.0 -165.41085212282778,-160.5 -165.41085212282778,-223.5 -110.85125168440815,-255.0" fill="rgba(16, 18, 17, 1.0)" stroke="rgba(46, 42, 29, 1.0)" stroke-width="2.0" /><polygon points="-0.8660254037844339,-127.5 -0.8660254037844339,-64.5 -55.42562584220406,-33.0 -109.9852262806237,-64.5 -109.98522628062369,-127.5 -55.425625842204084,-159.0" fill="rgba(16, 18, 17, 1.0)" stroke="rgba(46, 42, 29, 1.0)" stroke-width="2.0" /><polygon points="54.559600438419636,-31.499999999999996 54.559600438419636,31.499999999999996 3.857637417314163E-15,63.0 -54.559600438419636,31.499999999999996 -54.55960043841963,-31.500000000000007 -1.1572912251942487E-14,-63.0" fill="rgba(240, 138, 60, 1.0)" stroke="rgba(46, 42, 29, 1.0)" stroke-width="2.0" /><polygon points="109.9852262806237,64.5 109.9852262806237,127.5 55.42562584220408,159.0 0.8660254037844339,127.5 0.866025403784441,64.5 55.425625842204056,33.0" fill="rgba(63, 182, 217, 1.0)" stroke="rgba(46, 42, 29, 1.0)" stroke-width="2.0" /><polygon points="165.41085212282778,160.5 165.41085212282778,223.5 110.85125168440814,255.0 56.291651245988504,223.5 56.29165124598851,160.5 110.85125168440813,129.0" fill="rgba(16, 18, 17, 1.0)" stroke="rgba(46, 42, 29, 1.0)" stroke-width="2.0" /><polygon points="54.559600438419636,-223.5 54.559600438419636,-160.5 3.857637417314163E-15,-129.0 -54.559600438419636,-160.5 -54.55960043841963,-223.5 -1.1572912251942487E-14,-255.0" fill="rgba(16, 18, 17, 1.0)" stroke="rgba(46, 42, 29, 1.0)" stroke-width="2.0" /><polygon points="109.9852262806237,-127.5 109.9852262806237,-64.5 55.42562584220408,-33.0 0.8660254037844339,-64.5 0.866025403784441,-127.5 55.425625842204056,-159.0" fill="rgba(63, 182, 217, 1.0)" stroke="rgba(46, 42, 29, 1.0)" stroke-width="2.0" /><polygon points="165.41085212282778,-31.499999999999996 165.41085212282778,31.499999999999996 110.85125168440814,63.0 56.291651245988504,31.499999999999996 56.29165124598851,-31.500000000000007 110.85125168440813,-63.0" fill="rgba(240, 138, 60, 1.0)" stroke="rgba(46, 42, 29, 1.0)" stroke-width="2.0" /><polygon points="151.77095201322288,-23.624999999999996 151.77095201322288,23.624999999999996 110.85125168440814,47.25 69.93155135559341,23.624999999999996 69.93155135559341,-23.625000000000004 110.85125168440813,-47.25" fill="rgba(0, 0, 0, 0.0)" stroke="rgba(255, 255, 171, 0.7686274509803922)" stroke-width="6.0" /><polygon points="220.83647796503186,64.5 220.83647796503186,127.5 166.27687752661222,159.0 111.71727708819259,127.5 111.71727708819259,64.5 166.27687752661222,33.0" fill="rgba(16, 18, 17, 1.0)" stroke="rgba(46, 42, 29, 1.0)" stroke-width="2.0" /><polygon points="276.2621038072359,160.5 276.2621038072359,223.5 221.70250336881628,255.0 167.14290293039664,223.5 167.14290293039664,160.5 221.70250336881628,129.0" fill="rgba(16, 18, 17, 1.0)" stroke="rgba(46, 42, 29, 1.0)" stroke-width="2.0" /><polygon points="165.41085212282778,-223.5 165.41085212282778,-160.5 110.85125168440814,-129.0 56.291651245988504,-160.5 56.29165124598851,-223.5 110.85125168440813,-255.0" fill="rgba(16, 18, 17, 1.0)" stroke="rgba(46, 42, 29, 1.0)" stroke-width="2.0" /><polygon points="220.83647796503186,-127.5 220.83647796503186,-64.5 166.27687752661222,-33.0 111.71727708819259,-64.5 111.71727708819259,-127.5 166.27687752661222,-159.0" fill="rgba(16, 18, 17, 1.0)" stroke="rgba(46, 42, 29, 1.0)" stroke-width="2.0" /><polygon points="276.2621038072359,-31.499999999999996 276.2621038072359,31.499999999999996 221.70250336881628,63.0 167.14290293039664,31.499999999999996 167.14290293039664,-31.500000000000007 221.70250336881628,-63.0" fill="rgba(63, 182, 217, 1.0)" stroke="rgba(46, 42, 29, 1.0)" stroke-width="2.0" /><polygon points="262.622203697631,-23.624999999999996 262.622203697631,23.624999999999996 221.70250336881628,47.25 180.78280304000157,23.624999999999996 180.78280304000157,-23.625000000000004 221.70250336881628,-47.25" fill="rgba(0, 0, 0, 0.0)" stroke="rgba(179, 255, 255, 0.7686274509803922)" stroke-width="6.0" /><polygon points="331.68772964944,64.5 331.68772964944,127.5 277.12812921102034,159.0 222.5685287726007,127.5 222.5685287726007,64.5 277.12812921102034,33.0" fill="rgba(16, 18, 17, 1.0)" stroke="rgba(46, 42, 29, 1.0)" stroke-width="2.0" /><polygon points="387.1133554916441,160.5 387.1133554916441,223.5 332.55375505322445,255.0 277.9941546148048,223.5 277.9941546148048,160.5 332.55375505322445,129.0" fill="rgba(16, 18, 17, 1.0)" stroke="rgba(46, 42, 29, 1.0)" stroke-width="2.0" /><polygon points="276.2621038072359,-223.5 276.2621038072359,-160.5 221.7025033688163,-129.0 167.14290293039667,-160.5 167.14290293039667,-223.5 221.7025033688163,-255.0" fill="rgba(16, 18, 17, 1.0)" stroke="rgba(46, 42, 29, 1.0)" stroke-width="2.0" /><polygon points="331.68772964944003,-127.5 331.68772964944003,-64.5 277.1281292110204,-33.0 222.56852877260076,-64.5 222.56852877260076,-127.5 277.1281292110204,-159.0" fill="rgba(16, 18, 17, 1.0)" stroke="rgba(46, 42, 29, 1.0)" stroke-width="2.0" /><polygon points="387.1133554916441,-31.499999999999996 387.1133554916441,31.499999999999996 332.55375505322445,63.0 277.9941546148048,31.499999999999996 277.9941546148048,-31.500000000000007 332.55375505322445,-63.0" fill="rgba(16, 18, 17, 1.0)" stroke="rgba(46, 42, 29, 1.0)" stroke-width="2.0" /><polygon points="387.1133554916441,-223.5 387.1133554916441,-160.5 332.55375505322445,-129.0 277.9941546148048,-160.5 277.9941546148048,-223.5 332.55375505322445,-255.0" fill="rgba(16, 18, 17, 1.0)" stroke="rgba(46, 42, 29, 1.0)" stroke-width="2.0" /><polygon points="-388.8454062992129,-31.499999999999996 -388.8454062992129,31.499999999999996 -443.40500673763256,63.0 -497.9646071760522,31.499999999999996 -497.9646071760522,-31.500000000000007 -443.40500673763256,-63.0" fill="rgba(0, 0, 0, 0.0)" stroke="rgba(58, 66, 63, 1.0)" stroke-width="4.0" /><polygon points="-56.291651245988504,-31.499999999999996 -56.291651245988504,31.499999999999996 -110.85125168440814,63.0 -165.41085212282778,31.499999999999996 -165.41085212282778,-31.500000000000007 -110.85125168440815,-63.0" fill="rgba(0, 0, 0, 0.0)" stroke="rgba(58, 66, 63, 1.0)" stroke-width="4.0" /><polygon points="54.559600438419636,-31.499999999999996 54.559600438419636,31.499999999999996 3.857637417314163E-15,63.0 -54.559600438419636,31.499999999999996 -54.55960043841963,-31.500000000000007 -1.1572912251942487E-14,-63.0" fill="rgba(0, 0, 0, 0.0)" stroke="rgba(58, 66, 63, 1.0)" stroke-width="4.0" /><polygon points="109.9852262806237,64.5 109.9852262806237,127.5 55.42562584220408,159.0 0.8660254037844339,127.5 0.866025403784441,64.5 55.425625842204056,33.0" fill="rgba(0, 0, 0, 0.0)" stroke="rgba(58, 66, 63, 1.0)" stroke-width="4.0" /><polygon points="109.9852262806237,-127.5 109.9852262806237,-64.5 55.42562584220408,-33.0 0.8660254037844339,-64.5 0.866025403784441,-127.5 55.425625842204056,-159.0" fill="rgba(0, 0, 0, 0.0)" stroke="rgba(58, 66, 63, 1.0)" stroke-width="4.0" /><polygon points="165.41085212282778,-31.499999999999996 165.41085212282778,31.499999999999996 110.85125168440814,63.0 56.291651245988504,31.499999999999996 56.29165124598851,-31.500000000000007 110.85125168440813,-63.0" fill="rgba(0, 0, 0, 0.0)" stroke="rgba(58, 66, 63, 1.0)" stroke-width="4.0" /><polygon points="276.2621038072359,-31.499999999999996 276.2621038072359,31.499999999999996 221.70250336881628,63.0 167.14290293039664,31.499999999999996 167.14290293039664,-31.500000000000007 221.70250336881628,-63.0" fill="rgba(0, 0, 0, 0.0)" stroke="rgba(58, 66, 63, 1.0)" stroke-width="4.0" /></g></svg>