<svg xmlns="http://www.w3.org/2000/svg" viewBox="-309.12812921102034 -480.0 508 768"><rect x="-309.12812921102034" y="-480.0" width="100%" height="100%" fill="rgba(15, 23, 42, 1.0)" /><defs><mask x="-309.12812921102034" y="-480.0" width="100%" height="100%" id="full-mask" mask-type="luminance" maskUnits="userSpaceOnUse"><rect x="-309.12812921102034" y="-480.0" width="100%" height="100%" fill="rgba(255, 255, 255, 1.0)" /></mask><mask x="-309.12812921102034" y="-480.0" width="100%" height="100%" id="text-mask" mask-type="luminance" maskUnits="userSpaceOnUse"><rect x="-309.12812921102034" y="-480.0" width="100%" height="100%" fill="rgba(255, 255, 255, 1.0)" /><text stroke="rgba(51, 51, 51, 1.0)" stroke-width="6.7666664" stroke-linecap="round" stroke-linejoin="round" font-weight="800" font-family="system-ui, -apple-system, BlinkMacSystemFont, sans-serif" font-size="40.6px" text-anchor="middle" dominant-baseline="central" x="-55.42562584220407" y="96.0">1</text><text fill="rgba(0, 0, 0, 1.0)" font-weight="800" font-family="system-ui, -apple-system, BlinkMacSystemFont, sans-serif" font-size="40.6px" text-anchor="middle" dominant-baseline="central" x="-55.42562584220407" y="96.0">1</text><text stroke="rgba(51, 51, 51, 1.0)" stroke-width="6.7666664" stroke-linecap="round" stroke-linejoin="round" font-weight="800" font-family="system-ui, -apple-system, BlinkMacSystemFont, sans-serif" font-size="40.6px" text-anchor="middle" dominant-baseline="central" x="-221.70250336881628" y="-384.0">3</text><text fill="rgba(0, 0, 0, 1.0)" font-weight="800" font-family="system-ui, -apple-system, BlinkMacSystemFont, sans-serif" font-size="40.6px" text-anchor="middle" dominant-baseline="central" x="-221.70250336881628" y="-384.0">3</text><text stroke="rgba(51, 51, 51, 1.0)" stroke-width="6.7666664" stroke-linecap="round" stroke-linejoin="round" font-weight="800" font-family="system-ui, -apple-system, BlinkMacSystemFont, sans-serif" font-size="40.6px" text-anchor="middle" dominant-baseline="central" x="-55.42562584220407" y="-96.0">2</text><text fill="rgba(0, 0, 0, 1.0)" font-weight="800" font-family="system-ui, -apple-system, BlinkMacSystemFont, sans-serif" font-size="40.6px" text-anchor="middle" dominant-baseline="central" x="-55.42562584220407" y="-96.0">2</text><text stroke="rgba(51, 51, 51, 1.0)" stroke-width="6.7666664" stroke-linecap="round" stroke-linejoin="round" font-weight="800" font-family="system-ui, -apple-system, BlinkMacSystemFont, sans-serif" font-size="40.6px" text-anchor="middle" dominant-baseline="central" x="0.0" y="0.0">0</text><text fill="rgba(0, 0, 0, 1.0)" font-weight="800" font-family="system-ui, -apple-system, BlinkMacSystemFont, sans-serif" font-size="40.6px" text-anchor="middle" dominant-baseline="central" x="0.0" y="0.0">0</text><text stroke="rgba(51, 51, 51, 1.0)" stroke-width="6.7666664" stroke-linecap="round" stroke-linejoin="round" font-weight="800" font-family="system-ui, -apple-system, BlinkMacSystemFont, sans-serif" font-size="40.6px" text-anchor="middle" dominant-baseline="central" x="55.42562584220407" y="96.0">2</text><text fill="rgba(0, 0, 0, 1.0)" font-weight="800" font-family="system-ui, -apple-system, BlinkMacSystemFont, sans-serif" font-size="40.6px" text-anchor="middle" dominant-baseline="central" x="55.42562584220407" y="96.0">2</text><text stroke="rgba(51, 51, 51, 1.0)" stroke-width="6.7666664" stroke-linecap="round" stroke-linejoin="round" font-weight="800" font-family="system-ui, -apple-system, BlinkMacSystemFont, sans-serif" font-size="40.6px" text-anchor="middle" dominant-baseline="central" x="110.85125168440814" y="192.0">3</text><text fill="rgba(0, 0, 0, 1.0)" font-weight="800" font-family="system-ui, -apple-system, BlinkMacSystemFont, sans-serif" font-size="40.6px" text-anchor="middle" dominant-baseline="central" x="110.85125168440814" y="192.0">3</text><text stroke="rgba(51, 51, 51, 1.0)" stroke-width="6.7666664" stroke-linecap="round" stroke-linejoin="round" font-weight="800" font-family="system-ui, -apple-system, BlinkMacSystemFont, sans-serif" font-size="40.6px" text-anchor="middle" dominant-baseline="central" x="110.85125168440814" y="0.0">1</text><text fill="rgba(0, 0, 0, 1.0)" font-weight="800" font-family="system-ui, -apple-system, BlinkMacSystemFont, sans-serif" font-size="40.6px" text-anchor="middle" dominant-baseline="central" x="110.85125168440814" y="0.0">1</text></mask></defs><g mask="url(#full-mask)"><polygon points="-282.324281633727,163.0 -282.324281633727,221.0 -332.55375505322445,250.0 -382.7832284727219,221.0 -382.7832284727219,163.0 -332.55375505322445,134.0" fill="rgba(0, 0, 0, 0.0)" stroke="rgba(35, 45, 67, 1.0)" stroke-width="2.0" /><polygon points="-226.89865579152288,259.0 -226.89865579152288,317.0 -277.12812921102034,346.0 -327.35760263051776,317.0 -327.35760263051776,259.0 -277.12812921102034,230.0" fill="rgba(0, 0, 0, 0.0)" stroke="rgba(35, 45, 67, 1.0)" stroke-width="2.0" /><polygon points="-282.324281633727,-28.999999999999996 -282.324281633727,28.999999999999996 -332.55375505322445,58.0 -382.7832284727219,28.999999999999996 -382.7832284727219,-29.000000000000007 -332.55375505322445,-58.0" fill="rgba(0, 0, 0, 0.0)" stroke="rgba(35, 45, 67, 1.0)" stroke-width="2.0" /><polygon points="-226.89865579152294,67.0 -226.89865579152294,125.0 -277.1281292110204,154.0 -327.3576026305178,125.0 -327.3576026305178,67.0 -277.1281292110204,38.0" fill="rgba(0, 0, 0, 0.0)" stroke="rgba(35, 45, 67, 1.0)" stroke-width="2.0" /><polygon points="-171.47302994931886,163.0 -171.47302994931886,221.0 -221.7025033688163,250.0 -271.93197678831376,221.0 -271.93197678831376,163.0 -221.7025033688163,134.0" fill="rgba(0, 0, 0, 0.0)" stroke="rgba(35, 45, 67, 1.0)" stroke-width="2.0" /><polygon points="-116.04740410711477,259.0 -116.04740410711477,317.0 -166.27687752661222,346.0 -216.50635094610968,317.0 -216.50635094610965,259.0 -166.27687752661222,230.0" fill="rgba(0, 0, 0, 0.0)" stroke="rgba(35, 45, 67, 1.0)" stroke-width="2.0" /><polygon points="-282.324281633727,-221.0 -282.324281633727,-163.0 -332.55375505322445,-134.0 -382.7832284727219,-163.0 -382.7832284727219,-221.0 -332.55375505322445,-250.0" fill="rgba(0, 0, 0, 0.0)" stroke="rgba(35, 45, 67, 1.0)" stroke-width="2.0" /><polygon points="-226.89865579152288,-125.0 -226.89865579152288,-67.0 -277.12812921102034,-38.0 -327.35760263051776,-67.0 -327.35760263051776,-125.0 -277.12812921102034,-154.0" fill="rgba(0, 0, 0, 0.0)" stroke="rgba(35, 45, 67, 1.0)" stroke-width="2.0" /><polygon points="-171.47302994931883,-28.999999999999996 -171.47302994931883,28.999999999999996 -221.70250336881628,58.0 -271.9319767883137,28.999999999999996 -271.9319767883137,-29.000000000000007 -221.70250336881628,-58.0" fill="rgba(0, 0, 0, 0.0)" stroke="rgba(35, 45, 67, 1.0)" stroke-width="2.0" /><polygon points="-116.04740410711477,67.0 -116.04740410711477,125.0 -166.27687752661222,154.0 -216.50635094610968,125.0 -216.50635094610965,67.0 -166.27687752661222,38.0" fill="rgba(0, 0, 0, 0.0)" stroke="rgba(35, 45, 67, 1.0)" stroke-width="2.0" /><polygon points="-60.621778264910695,163.0 -60.621778264910695,221.0 -110.85125168440814,250.0 -161.0807251039056,221.0 -161.0807251039056,163.0 -110.85125168440815,134.0" fill="rgba(0, 0, 0, 0.0)" stroke="rgba(35, 45, 67, 1.0)" stroke-width="2.0" /><polygon points="-5.196152422706611,259.0 -5.196152422706611,317.0 -55.425625842204056,346.0 -105.65509926170151,317.0 -105.6550992617015,259.0 -55.42562584220406,230.0" fill="rgba(0, 0, 0, 0.0)" stroke="rgba(35, 45, 67, 1.0)" stroke-width="2.0" /><polygon points="-282.324281633727,-413.0 -282.324281633727,-355.0 -332.55375505322445,-326.0 -382.7832284727219,-355.0 -382.7832284727219,-413.0 -332.55375505322445,-442.0" fill="rgba(0, 0, 0, 0.0)" stroke="rgba(35, 45, 67, 1.0)" stroke-width="2.0" /><polygon points="-226.89865579152288,-317.0 -226.89865579152288,-259.0 -277.12812921102034,-230.0 -327.35760263051776,-259.0 -327.35760263051776,-317.0 -277.12812921102034,-346.0" fill="rgba(0, 0, 0, 0.0)" stroke="rgba(35, 45, 67, 1.0)" stroke-width="2.0" /><polygon points="-171.47302994931883,-221.0 -171.47302994931883,-163.0 -221.70250336881628,-134.0 -271.9319767883137,-163.0 -271.9319767883137,-221.0 -221.70250336881628,-250.0" fill="rgba(0, 0, 0, 0.0)" stroke="rgba(35, 45, 67, 1.0)" stroke-width="2.0" /><polygon points="-116.04740410711477,-125.0 -116.04740410711477,-67.0 -166.27687752661222,-38.0 -216.50635094610968,-67.0 -216.50635094610965,-125.0 -166.27687752661222,-154.0" fill="rgba(0, 0, 0, 0.0)" stroke="rgba(35, 45, 67, 1.0)" stroke-width="2.0" /><polygon points="-60.621778264910695,-28.999999999999996 -60.621778264910695,28.999999999999996 -110.85125168440814,58.0 -161.0807251039056,28.999999999999996 -161.0807251039056,-29.000000000000007 -110.85125168440815,-58.0" fill="rgba(0, 0, 0, 0.0)" stroke="rgba(35, 45, 67, 1.0)" stroke-width="2.0" /><polygon points="-5.196152422706625,67.0 -5.196152422706625,125.0 -55.42562584220407,154.0 -105.65509926170151,125.0 -105.65509926170151,67.0 -55.42562584220408,38.0" fill="rgba(56, 189, 248, 1.0)" stroke="rgba(35, 45, 67, 1.0)" stroke-width="2.0" /><text fill="rgba(19, 66, 86, 1.0)" font-weight="800" font-family="system-ui, -apple-system, BlinkMacSystemFont, sans-serif" font-size="40.6px" text-anchor="middle" dominant-baseline="central" x="-55.42562584220407" y="96.0">1</text><polygon points="50.229473419497445,163.0 50.229473419497445,221.0 3.5514757175273244E-15,250.0 -50.229473419497445,221.0 -50.22947341949744,163.0 -1.0654427152581972E-14,134.0" fill="rgba(0, 0, 0, 0.0)" stroke="rgba(35, 45, 67, 1.0)" stroke-width="2.0" /><polygon points="105.65509926170154,259.0 105.65509926170154,317.0 55.425625842204084,346.0 5.196152422706639,317.0 5.196152422706646,259.0 55.42562584220408,230.0" fill="rgba(0, 0, 0, 0.0)" stroke="rgba(35, 45, 67, 1.0)" stroke-width="2.0" /><polygon points="-226.89865579152288,-509.0 -226.89865579152288,-451.0 -277.12812921102034,-422.0 -327.35760263051776,-451.0 -327.35760263051776,-509.0 -277.12812921102034,-538.0" fill="rgba(0, 0, 0, 0.0)" stroke="rgba(35, 45, 67, 1.0)" stroke-width="2.0" /><polygon points="-171.47302994931883,-413.0 -171.47302994931883,-355.0 -221.70250336881628,-326.0 -271.9319767883137,-355.0 -271.9319767883137,-413.0 -221.70250336881628,-442.0" fill="rgba(56, 189, 248, 1.0)" stroke="rgba(35, 45, 67, 1.0)" stroke-width="2.0" /><path d="M -171.47302994931883 -411.5 L -171.47302994931883 -356.5 Q -171.47302994931883 -355.0 -172.7720680549955 -354.25 L -220.40346526313962 -326.75 Q -221.70250336881628 -326.0 -223.00154147449294 -326.75 L -270.6329386826371 -354.25 Q -271.9319767883137 -355.0 -271.9319767883137 -356.5 L -271.9319767883137 -411.5 Q -271.9319767883137 -413.0 -270.6329386826371 -413.75 L -223.00154147449294 -441.25 Q -221.70250336881628 -442.0 -220.40346526313962 -441.25 L -172.7720680549955 -413.75 Q -171.47302994931883 -413.0 -171.47302994931883 -411.5 Z" fill="rgba(255, 255, 255, 0.18823529411764706)" stroke="rgba(255, 255, 255, 1.0)" stroke-width="6.0" /><text fill="rgba(19, 66, 86, 1.0)" font-weight="800" font-family="system-ui, -apple-system, BlinkMacSystemFont, sans-serif" font-size="40.6px" text-anchor="middle" dominant-baseline="central" x="-221.70250336881628" y="-384.0">3</text><polygon points="-116.04740410711477,-317.0 -116.04740410711477,-259.0 -166.27687752661222,-230.0 -216.50635094610968,-259.0 -216.50635094610965,-317.0 -166.27687752661222,-346.0" fill="rgba(0, 0, 0, 0.0)" stroke="rgba(35, 45, 67, 1.0)" stroke-width="2.0" /><polygon points="-60.621778264910695,-221.0 -60.621778264910695,-163.0 -110.85125168440814,-134.0 -161.0807251039056,-163.0 -161.0807251039056,-221.0 -110.85125168440815,-250.0" fill="rgba(0, 0, 0, 0.0)" stroke="rgba(35, 45, 67, 1.0)" stroke-width="2.0" /><polygon points="-5.196152422706625,-125.0 -5.196152422706625,-67.0 -55.42562584220407,-38.0 -105.65509926170151,-67.0 -105.65509926170151,-125.0 -55.42562584220408,-154.0" fill="rgba(251, 193, 57, 1.0)" stroke="rgba(35, 45, 67, 1.0)" stroke-width="2.0" /><text fill="rgba(87, 67, 19, 1.0)" font-weight="800" font-family="system-ui, -apple-system, BlinkMacSystemFont, sans-serif" font-size="40.6px" text-anchor="middle" dominant-baseline="central" x="-55.42562584220407" y="-96.0">2</text><polygon points="50.229473419497445,-28.999999999999996 50.229473419497445,28.999999999999996 3.5514757175273244E-15,58.0 -50.229473419497445,28.999999999999996 -50.22947341949744,-29.000000000000007 -1.0654427152581972E-14,-58.0" fill="rgba(251, 193, 57, 1.0)" stroke="rgba(35, 45, 67, 1.0)" stroke-width="2.0" /><text fill="rgba(87, 67, 19, 1.0)" font-weight="800" font-family="system-ui, -apple-system, BlinkMacSystemFont, sans-serif" font-size="40.6px" text-anchor="middle" dominant-baseline="central" x="0.0" y="0.0">0</text><polygon points="105.65509926170151,67.0 105.65509926170151,125.0 55.42562584220407,154.0 5.196152422706625,125.0 5.196152422706632,67.0 55.42562584220406,38.0" fill="rgba(251, 193, 57, 1.0)" stroke="rgba(35, 45, 67, 1.0)" stroke-width="2.0" /><text fill="rgba(87, 67, 19, 1.0)" font-weight="800" font-family="system-ui, -apple-system, BlinkMacSystemFont, sans-serif" font-size="40.6px" text-anchor="middle" dominant-baseline="central" x="55.42562584220407" y="96.0">2</text><polygon points="161.0807251039056,163.0 161.0807251039056,221.0 110.85125168440814,250.0 60.621778264910695,221.0 60.6217782649107,163.0 110.85125168440813,134.0" fill="rgba(56, 189, 248, 1.0)" stroke="rgba(35, 45, 67, 1.0)" stroke-width="2.0" /><path d="M 161.0807251039056 164.5 L 161.0807251039056 219.5 Q 161.0807251039056 221.0 159.78168699822893 221.75 L 112.1502897900848 249.25 Q 110.85125168440814 250.0 109.55221357873148 249.25 L 61.92081637058735 221.75 Q 60.621778264910695 221.0 60.621778264910695 219.5 L 60.6217782649107 164.5 Q 60.6217782649107 163.0 61.92081637058736 162.25 L 109.55221357873147 134.75 Q 110.85125168440813 134.0 112.15028979008478 134.75 L 159.78168699822893 162.25 Q 161.0807251039056 163.0 161.0807251039056 164.5 Z" fill="rgba(255, 255, 255, 0.18823529411764706)" stroke="rgba(255, 255, 255, 1.0)" stroke-width="6.0" /><text fill="rgba(19, 66, 86, 1.0)" font-weight="800" font-family="system-ui, -apple-system, BlinkMacSystemFont, sans-serif" font-size="40.6px" text-anchor="middle" dominant-baseline="central" x="110.85125168440814" y="192.0">3</text><polygon points="216.50635094610968,259.0 216.50635094610968,317.0 166.27687752661222,346.0 116.04740410711477,317.0 116.04740410711479,259.0 166.27687752661222,230.0" fill="rgba(0, 0, 0, 0.0)" stroke="rgba(35, 45, 67, 1.0)" stroke-width="2.0" /><polygon points="-116.04740410711474,-509.0 -116.04740410711474,-451.0 -166.2768775266122,-422.0 -216.50635094610965,-451.0 -216.50635094610965,-509.0 -166.2768775266122,-538.0" fill="rgba(0, 0, 0, 0.0)" stroke="rgba(35, 45, 67, 1.0)" stroke-width="2.0" /><polygon points="-60.621778264910695,-413.0 -60.621778264910695,-355.0 -110.85125168440814,-326.0 -161.0807251039056,-355.0 -161.0807251039056,-413.0 -110.85125168440815,-442.0" fill="rgba(0, 0, 0, 0.0)" stroke="rgba(35, 45, 67, 1.0)" stroke-width="2.0" /><polygon points="-5.196152422706639,-317.0 -5.196152422706639,-259.0 -55.425625842204084,-230.0 -105.65509926170154,-259.0 -105.65509926170152,-317.0 -55.42562584220409,-346.0" fill="rgba(0, 0, 0, 0.0)" stroke="rgba(35, 45, 67, 1.0)" stroke-width="2.0" /><polygon points="50.229473419497445,-221.0 50.229473419497445,-163.0 3.5514757175273244E-15,-134.0 -50.229473419497445,-163.0 -50.22947341949744,-221.0 -1.0654427152581972E-14,-250.0" fill="rgba(0, 0, 0, 0.0)" stroke="rgba(35, 45, 67, 1.0)" stroke-width="2.0" /><polygon points="105.65509926170151,-125.0 105.65509926170151,-67.0 55.42562584220407,-38.0 5.196152422706625,-67.0 5.196152422706632,-125.0 55.42562584220406,-154.0" fill="rgba(0, 0, 0, 0.0)" stroke="rgba(35, 45, 67, 1.0)" stroke-width="2.0" /><polygon points="161.0807251039056,-28.999999999999996 161.0807251039056,28.999999999999996 110.85125168440814,58.0 60.621778264910695,28.999999999999996 60.6217782649107,-29.000000000000007 110.85125168440813,-58.0" fill="rgba(56, 189, 248, 1.0)" stroke="rgba(35, 45, 67, 1.0)" stroke-width="2.0" /><text fill="rgba(19, 66, 86, 1.0)" font-weight="800" font-family="system-ui, -apple-system, BlinkMacSystemFont, sans-serif" font-size="40.6px" text-anchor="middle" dominant-baseline="central" x="110.85125168440814" y="0.0">1</text><polygon points="216.50635094610968,67.0 216.50635094610968,125.0 166.27687752661222,154.0 116.04740410711477,125.0 116.04740410711479,67.0 166.27687752661222,38.0" fill="rgba(0, 0, 0, 0.0)" stroke="rgba(35, 45, 67, 1.0)" stroke-width="2.0" /><polygon points="271.9319767883137,163.0 271.9319767883137,221.0 221.70250336881628,250.0 171.47302994931883,221.0 171.47302994931886,163.0 221.70250336881628,134.0" fill="rgba(0, 0, 0, 0.0)" stroke="rgba(35, 45, 67, 1.0)" stroke-width="2.0" /><polygon points="-5.196152422706611,-509.0 -5.196152422706611,-451.0 -55.425625842204056,-422.0 -105.65509926170151,-451.0 -105.6550992617015,-509.0 -55.42562584220406,-538.0" fill="rgba(0, 0, 0, 0.0)" stroke="rgba(35, 45, 67, 1.0)" stroke-width="2.0" /><polygon points="50.229473419497445,-413.0 50.229473419497445,-355.0 3.5514757175273244E-15,-326.0 -50.229473419497445,-355.0 -50.22947341949744,-413.0 -1.0654427152581972E-14,-442.0" fill="rgba(0, 0, 0, 0.0)" stroke="rgba(35, 45, 67, 1.0)" stroke-width="2.0" /><polygon points="105.65509926170151,-317.0 105.65509926170151,-259.0 55.425625842204056,-230.0 5.196152422706611,-259.0 5.196152422706618,-317.0 55.42562584220405,-346.0" fill="rgba(0, 0, 0, 0.0)" stroke="rgba(35, 45, 67, 1.0)" stroke-width="2.0" /><polygon points="161.0807251039056,-221.0 161.0807251039056,-163.0 110.85125168440814,-134.0 60.621778264910695,-163.0 60.6217782649107,-221.0 110.85125168440813,-250.0" fill="rgba(0, 0, 0, 0.0)" stroke="rgba(35, 45, 67, 1.0)" stroke-width="2.0" /><polygon points="216.50635094610968,-125.0 216.50635094610968,-67.0 166.27687752661222,-38.0 116.04740410711477,-67.0 116.04740410711479,-125.0 166.27687752661222,-154.0" fill="rgba(0, 0, 0, 0.0)" stroke="rgba(35, 45, 67, 1.0)" stroke-width="2.0" /><polygon points="271.9319767883137,-28.999999999999996 271.9319767883137,28.999999999999996 221.70250336881628,58.0 171.47302994931883,28.999999999999996 171.47302994931886,-29.000000000000007 221.70250336881628,-58.0" fill="rgba(0, 0, 0, 0.0)" stroke="rgba(35, 45, 67, 1.0)" stroke-width="2.0" /><polygon points="105.65509926170157,-509.0 105.65509926170157,-451.0 55.42562584220411,-422.0 5.1961524227066676,-451.0 5.196152422706675,-509.0 55.425625842204106,-538.0" fill="rgba(0, 0, 0, 0.0)" stroke="rgba(35, 45, 67, 1.0)" stroke-width="2.0" /><polygon points="161.08072510390562,-413.0 161.08072510390562,-355.0 110.85125168440817,-326.0 60.62177826491072,-355.0 60.62177826491073,-413.0 110.85125168440815,-442.0" fill="rgba(0, 0, 0, 0.0)" stroke="rgba(35, 45, 67, 1.0)" stroke-width="2.0" /><polygon points="216.50635094610968,-317.0 216.50635094610968,-259.0 166.27687752661222,-230.0 116.04740410711477,-259.0 116.04740410711479,-317.0 166.27687752661222,-346.0" fill="rgba(0, 0, 0, 0.0)" stroke="rgba(35, 45, 67, 1.0)" stroke-width="2.0" /><polygon points="271.93197678831376,-221.0 271.93197678831376,-163.0 221.7025033688163,-134.0 171.47302994931886,-163.0 171.47302994931886,-221.0 221.7025033688163,-250.0" fill="rgba(0, 0, 0, 0.0)" stroke="rgba(35, 45, 67, 1.0)" stroke-width="2.0" /><polygon points="216.50635094610968,-509.0 216.50635094610968,-451.0 166.27687752661222,-422.0 116.04740410711477,-451.0 116.04740410711479,-509.0 166.27687752661222,-538.0" fill="rgba(0, 0, 0, 0.0)" stroke="rgba(35, 45, 67, 1.0)" stroke-width="2.0" /><polygon points="271.9319767883137,-413.0 271.9319767883137,-355.0 221.70250336881628,-326.0 171.47302994931883,-355.0 171.47302994931886,-413.0 221.70250336881628,-442.0" fill="rgba(0, 0, 0, 0.0)" stroke="rgba(35, 45, 67, 1.0)" stroke-width="2.0" /></g></svg>