<svg xmlns="http://www.w3.org/2000/svg" viewBox="-87.42562584220408 -96.0 175 192"><rect x="-87.42562584220408" y="-96.0" width="100%" height="100%" fill="rgba(31, 23, 41, 1.0)" /><defs><mask x="-87.42562584220408" y="-96.0" width="100%" height="100%" id="full-mask" mask-type="luminance" maskUnits="userSpaceOnUse"><rect x="-87.42562584220408" y="-96.0" width="100%" height="100%" fill="rgba(255, 255, 255, 1.0)" /></mask><mask x="-87.42562584220408" y="-96.0" width="100%" height="100%" id="text-mask" mask-type="luminance" maskUnits="userSpaceOnUse"><rect x="-87.42562584220408" y="-96.0" width="100%" height="100%" fill="rgba(255, 255, 255, 1.0)" /><text stroke="rgba(51, 51, 51, 1.0)" stroke-width="2.9975061" stroke-linecap="round" stroke-linejoin="round" font-weight="normal" font-family="consolas, monospace, sans-serif" font-size="17.985037px" text-anchor="middle" dominant-baseline="central" x="0.0" y="0.0">meow meow</text><text fill="rgba(0, 0, 0, 1.0)" font-weight="normal" font-family="consolas, monospace, sans-serif" font-size="17.985037px" text-anchor="middle" dominant-baseline="central" x="0.0" y="0.0">meow meow</text></mask></defs><g mask="url(#full-mask)"><polygon points="-56.291651245988504,-31.499999999999996 -56.291651245988504,31.499999999999996 -110.85125168440814,63.0 -165.41085212282778,31.499999999999996 -165.41085212282778,-31.500000000000007 -110.85125168440815,-63.0" fill="rgba(0, 0, 0, 0.0)" stroke="rgba(36, 33, 58, 1.0)" stroke-width="3.0" /><polygon points="-0.8660254037844339,64.5 -0.8660254037844339,127.5 -55.42562584220406,159.0 -109.9852262806237,127.5 -109.98522628062369,64.5 -55.425625842204084,33.0" fill="rgba(0, 0, 0, 0.0)" stroke="rgba(36, 33, 58, 1.0)" stroke-width="3.0" /><polygon points="-0.8660254037844339,-127.5 -0.8660254037844339,-64.5 -55.42562584220406,-33.0 -109.9852262806237,-64.5 -109.98522628062369,-127.5 -55.425625842204084,-159.0" fill="rgba(0, 0, 0, 0.0)" stroke="rgba(36, 33, 58, 1.0)" stroke-width="3.0" /><polygon points="54.559600438419636,-31.499999999999996 54.559600438419636,31.499999999999996 3.857637417314163E-15,63.0 -54.559600438419636,31.499999999999996 -54.55960043841963,-31.500000000000007 -1.1572912251942487E-14,-63.0" fill="rgba(0, 0, 0, 0.0)" stroke="rgba(36, 33, 58, 1.0)" stroke-width="3.0" /><text fill="rgba(88, 65, 116, 1.0)" font-weight="normal" font-family="consolas, monospace, sans-serif" font-size="17.985037px" text-anchor="middle" dominant-baseline="central" x="0.0" y="0.0">meow meow</text><polygon points="109.9852262806237,64.5 109.9852262806237,127.5 55.42562584220408,159.0 0.8660254037844339,127.5 0.866025403784441,64.5 55.425625842204056,33.0" fill="rgba(0, 0, 0, 0.0)" stroke="rgba(36, 33, 58, 1.0)" stroke-width="3.0" /><polygon points="109.9852262806237,-127.5 109.9852262806237,-64.5 55.42562584220408,-33.0 0.8660254037844339,-64.5 0.866025403784441,-127.5 55.425625842204056,-159.0" fill="rgba(0, 0, 0, 0.0)" stroke="rgba(36, 33, 58, 1.0)" stroke-width="3.0" /><polygon points="165.41085212282778,-31.499999999999996 165.41085212282778,31.499999999999996 110.85125168440814,63.0 56.291651245988504,31.499999999999996 56.29165124598851,-31.500000000000007 110.85125168440813,-63.0" fill="rgba(0, 0, 0, 0.0)" stroke="rgba(36, 33, 58, 1.0)" stroke-width="3.0" /></g></svg>