<svg xmlns="http://www.w3.org/2000/svg" viewBox="-87.42562584220408 -96.0 508 576"><rect x="-87.42562584220408" y="-96.0" width="100%" height="100%" fill="rgba(15, 23, 42, 1.0)" /><g><polygon mask="url(#full-mask)" points="-60.62177826491072,355.0 -60.62177826491072,413.0 -110.85125168440817,442.0 -161.08072510390562,413.0 -161.0807251039056,355.0 -110.85125168440818,326.0" fill="rgba(0, 0, 0, 0.0)" stroke="rgba(35, 45, 67, 1.0)" stroke-width="2.0" /><polygon mask="url(#full-mask)" points="-5.1961524227066676,451.0 -5.1961524227066676,509.0 -55.42562584220411,538.0 -105.65509926170157,509.0 -105.65509926170155,451.0 -55.42562584220412,422.0" fill="rgba(0, 0, 0, 0.0)" stroke="rgba(35, 45, 67, 1.0)" stroke-width="2.0" /><polygon mask="url(#full-mask)" points="-60.621778264910695,163.0 -60.621778264910695,221.0 -110.85125168440814,250.0 -161.0807251039056,221.0 -161.0807251039056,163.0 -110.85125168440815,134.0" fill="rgba(0, 0, 0, 0.0)" stroke="rgba(35, 45, 67, 1.0)" stroke-width="2.0" /><polygon mask="url(#full-mask)" points="-5.196152422706611,259.0 -5.196152422706611,317.0 -55.425625842204056,346.0 -105.65509926170151,317.0 -105.6550992617015,259.0 -55.42562584220406,230.0" fill="rgba(0, 0, 0, 0.0)" stroke="rgba(35, 45, 67, 1.0)" stroke-width="2.0" /><polygon mask="url(#full-mask)" points="50.229473419497445,355.0 50.229473419497445,413.0 3.5514757175273244E-15,442.0 -50.229473419497445,413.0 -50.22947341949744,355.0 -1.0654427152581972E-14,326.0" fill="rgba(0, 0, 0, 0.0)" stroke="rgba(35, 45, 67, 1.0)" stroke-width="2.0" /><polygon mask="url(#full-mask)" points="105.65509926170151,451.0 105.65509926170151,509.0 55.425625842204056,538.0 5.196152422706611,509.0 5.196152422706618,451.0 55.42562584220405,422.0" fill="rgba(0, 0, 0, 0.0)" stroke="rgba(35, 45, 67, 1.0)" stroke-width="2.0" /><polygon mask="url(#full-mask)" points="-60.621778264910695,-28.999999999999996 -60.621778264910695,28.999999999999996 -110.85125168440814,58.0 -161.0807251039056,28.999999999999996 -161.0807251039056,-29.000000000000007 -110.85125168440815,-58.0" fill="rgba(0, 0, 0, 0.0)" stroke="rgba(35, 45, 67, 1.0)" stroke-width="2.0" /><polygon mask="url(#full-mask)" points="-5.196152422706625,67.0 -5.196152422706625,125.0 -55.42562584220407,154.0 -105.65509926170151,125.0 -105.65509926170151,67.0 -55.42562584220408,38.0" fill="rgba(0, 0, 0, 0.0)" stroke="rgba(35, 45, 67, 1.0)" stroke-width="2.0" /><polygon mask="url(#full-mask)" points="50.229473419497445,163.0 50.229473419497445,221.0 3.5514757175273244E-15,250.0 -50.229473419497445,221.0 -50.22947341949744,163.0 -1.0654427152581972E-14,134.0" fill="rgba(0, 0, 0, 0.0)" stroke="rgba(35, 45, 67, 1.0)" stroke-width="2.0" /><polygon mask="url(#full-mask)" points="105.65509926170154,259.0 105.65509926170154,317.0 55.425625842204084,346.0 5.196152422706639,317.0 5.196152422706646,259.0 55.42562584220408,230.0" fill="rgba(0, 0, 0, 0.0)" stroke="rgba(35, 45, 67, 1.0)" stroke-width="2.0" /><polygon mask="url(#full-mask)" points="161.0807251039056,355.0 161.0807251039056,413.0 110.85125168440814,442.0 60.621778264910695,413.0 60.6217782649107,355.0 110.85125168440813,326.0" fill="rgba(0, 0, 0, 0.0)" stroke="rgba(35, 45, 67, 1.0)" stroke-width="2.0" /><text fill="rgba(177, 193, 224, 1.0)" font-weight="800" font-family="system-ui, -apple-system, BlinkMacSystemFont, sans-serif" font-size="40.6px" text-anchor="middle" dominant-baseline="middle" x="110.85125168440814" y="384.0">a</text><polygon mask="url(#full-mask)" points="216.50635094610965,451.0 216.50635094610965,509.0 166.2768775266122,538.0 116.04740410711474,509.0 116.04740410711476,451.0 166.2768775266122,422.0" fill="rgba(0, 0, 0, 0.0)" stroke="rgba(35, 45, 67, 1.0)" stroke-width="2.0" /><polygon mask="url(#full-mask)" points="-5.196152422706625,-125.0 -5.196152422706625,-67.0 -55.42562584220407,-38.0 -105.65509926170151,-67.0 -105.65509926170151,-125.0 -55.42562584220408,-154.0" fill="rgba(0, 0, 0, 0.0)" stroke="rgba(35, 45, 67, 1.0)" stroke-width="2.0" /><polygon mask="url(#full-mask)" points="50.229473419497445,-28.999999999999996 50.229473419497445,28.999999999999996 3.5514757175273244E-15,58.0 -50.229473419497445,28.999999999999996 -50.22947341949744,-29.000000000000007 -1.0654427152581972E-14,-58.0" fill="rgba(251, 193, 57, 1.0)" stroke="rgba(35, 45, 67, 1.0)" stroke-width="2.0" /><polygon mask="url(#full-mask)" points="50.229473419497445,-28.999999999999996 50.229473419497445,28.999999999999996 3.5514757175273244E-15,58.0 -50.229473419497445,28.999999999999996 -50.22947341949744,-29.000000000000007 -1.0654427152581972E-14,-58.0" fill="rgba(236, 111, 177, 0.18823529411764706)" stroke="rgba(236, 111, 177, 1.0)" stroke-width="6.0" /><circle cx="0.0" cy="0.0" fill="rgba(255, 255, 255, 1.0)" r="8.0" mask="url(#text-mask)" /><polygon mask="url(#full-mask)" points="105.65509926170151,67.0 105.65509926170151,125.0 55.42562584220407,154.0 5.196152422706625,125.0 5.196152422706632,67.0 55.42562584220406,38.0" fill="rgba(56, 189, 248, 1.0)" stroke="rgba(35, 45, 67, 1.0)" stroke-width="2.0" /><text fill="rgba(19, 66, 86, 1.0)" font-weight="800" font-family="system-ui, -apple-system, BlinkMacSystemFont, sans-serif" font-size="40.6px" text-anchor="middle" dominant-baseline="middle" x="55.42562584220407" y="96.0">1</text><polygon mask="url(#full-mask)" points="161.0807251039056,163.0 161.0807251039056,221.0 110.85125168440814,250.0 60.621778264910695,221.0 60.6217782649107,163.0 110.85125168440813,134.0" fill="rgba(0, 0, 0, 0.0)" stroke="rgba(35, 45, 67, 1.0)" stroke-width="2.0" /><polygon mask="url(#full-mask)" points="216.50635094610968,259.0 216.50635094610968,317.0 166.27687752661222,346.0 116.04740410711477,317.0 116.04740410711479,259.0 166.27687752661222,230.0" fill="rgba(251, 193, 57, 1.0)" stroke="rgba(35, 45, 67, 1.0)" stroke-width="2.0" /><polygon mask="url(#full-mask)" points="271.9319767883137,355.0 271.9319767883137,413.0 221.70250336881628,442.0 171.47302994931883,413.0 171.47302994931886,355.0 221.70250336881628,326.0" fill="rgba(0, 0, 0, 0.0)" stroke="rgba(35, 45, 67, 1.0)" stroke-width="2.0" /><polygon mask="url(#full-mask)" points="271.9319767883137,355.0 271.9319767883137,413.0 221.70250336881628,442.0 171.47302994931883,413.0 171.47302994931886,355.0 221.70250336881628,326.0" fill="rgba(236, 111, 177, 0.18823529411764706)" stroke="rgba(236, 111, 177, 1.0)" stroke-width="6.0" /><text fill="rgba(177, 193, 224, 1.0)" font-weight="800" font-family="system-ui, -apple-system, BlinkMacSystemFont, sans-serif" font-size="40.6px" text-anchor="middle" dominant-baseline="middle" x="221.70250336881628" y="384.0">b</text><polygon mask="url(#full-mask)" points="327.35760263051776,451.0 327.35760263051776,509.0 277.12812921102034,538.0 226.89865579152288,509.0 226.8986557915229,451.0 277.12812921102034,422.0" fill="rgba(0, 0, 0, 0.0)" stroke="rgba(35, 45, 67, 1.0)" stroke-width="2.0" /><polygon mask="url(#full-mask)" points="105.65509926170151,-125.0 105.65509926170151,-67.0 55.42562584220407,-38.0 5.196152422706625,-67.0 5.196152422706632,-125.0 55.42562584220406,-154.0" fill="rgba(0, 0, 0, 0.0)" stroke="rgba(35, 45, 67, 1.0)" stroke-width="2.0" /><polygon mask="url(#full-mask)" points="161.0807251039056,-28.999999999999996 161.0807251039056,28.999999999999996 110.85125168440814,58.0 60.621778264910695,28.999999999999996 60.6217782649107,-29.000000000000007 110.85125168440813,-58.0" fill="rgba(0, 0, 0, 0.0)" stroke="rgba(35, 45, 67, 1.0)" stroke-width="2.0" /><polygon mask="url(#full-mask)" points="216.50635094610968,67.0 216.50635094610968,125.0 166.27687752661222,154.0 116.04740410711477,125.0 116.04740410711479,67.0 166.27687752661222,38.0" fill="rgba(0, 0, 0, 0.0)" stroke="rgba(35, 45, 67, 1.0)" stroke-width="2.0" /><polygon mask="url(#full-mask)" points="271.9319767883137,163.0 271.9319767883137,221.0 221.70250336881628,250.0 171.47302994931883,221.0 171.47302994931886,163.0 221.70250336881628,134.0" fill="rgba(0, 0, 0, 0.0)" stroke="rgba(35, 45, 67, 1.0)" stroke-width="2.0" /><polygon mask="url(#full-mask)" points="327.35760263051776,259.0 327.35760263051776,317.0 277.12812921102034,346.0 226.89865579152288,317.0 226.8986557915229,259.0 277.12812921102034,230.0" fill="rgba(0, 0, 0, 0.0)" stroke="rgba(35, 45, 67, 1.0)" stroke-width="2.0" /><polygon mask="url(#full-mask)" points="382.7832284727219,355.0 382.7832284727219,413.0 332.55375505322445,442.0 282.324281633727,413.0 282.324281633727,355.0 332.55375505322445,326.0" fill="rgba(0, 0, 0, 0.0)" stroke="rgba(35, 45, 67, 1.0)" stroke-width="2.0" /><polygon mask="url(#full-mask)" points="438.2088543149259,451.0 438.2088543149259,509.0 387.97938089542845,538.0 337.749907475931,509.0 337.749907475931,451.0 387.97938089542845,422.0" fill="rgba(0, 0, 0, 0.0)" stroke="rgba(35, 45, 67, 1.0)" stroke-width="2.0" /><polygon mask="url(#full-mask)" points="216.50635094610968,-125.0 216.50635094610968,-67.0 166.27687752661222,-38.0 116.04740410711477,-67.0 116.04740410711479,-125.0 166.27687752661222,-154.0" fill="rgba(0, 0, 0, 0.0)" stroke="rgba(35, 45, 67, 1.0)" stroke-width="2.0" /><polygon mask="url(#full-mask)" points="271.9319767883137,-28.999999999999996 271.9319767883137,28.999999999999996 221.70250336881628,58.0 171.47302994931883,28.999999999999996 171.47302994931886,-29.000000000000007 221.70250336881628,-58.0" fill="rgba(0, 0, 0, 0.0)" stroke="rgba(35, 45, 67, 1.0)" stroke-width="2.0" /><polygon mask="url(#full-mask)" points="327.35760263051776,67.0 327.35760263051776,125.0 277.12812921102034,154.0 226.89865579152288,125.0 226.8986557915229,67.0 277.12812921102034,38.0" fill="rgba(56, 189, 248, 1.0)" stroke="rgba(35, 45, 67, 1.0)" stroke-width="2.0" /><polygon mask="url(#full-mask)" points="327.35760263051776,67.0 327.35760263051776,125.0 277.12812921102034,154.0 226.89865579152288,125.0 226.8986557915229,67.0 277.12812921102034,38.0" fill="rgba(251, 193, 57, 0.06274509803921569)" stroke="rgba(251, 193, 57, 1.0)" stroke-width="6.0" /><circle cx="277.12812921102034" cy="96.0" fill="rgba(255, 255, 255, 1.0)" r="8.0" mask="url(#text-mask)" /><polygon mask="url(#full-mask)" points="382.7832284727219,163.0 382.7832284727219,221.0 332.55375505322445,250.0 282.324281633727,221.0 282.324281633727,163.0 332.55375505322445,134.0" fill="rgba(0, 0, 0, 0.0)" stroke="rgba(35, 45, 67, 1.0)" stroke-width="2.0" /><polygon mask="url(#full-mask)" points="438.20885431492593,259.0 438.20885431492593,317.0 387.9793808954285,346.0 337.7499074759311,317.0 337.7499074759311,259.0 387.9793808954285,230.0" fill="rgba(0, 0, 0, 0.0)" stroke="rgba(35, 45, 67, 1.0)" stroke-width="2.0" /><polygon mask="url(#full-mask)" points="493.63448015713,355.0 493.63448015713,413.0 443.40500673763256,442.0 393.17553331813514,413.0 393.17553331813514,355.0 443.40500673763256,326.0" fill="rgba(0, 0, 0, 0.0)" stroke="rgba(35, 45, 67, 1.0)" stroke-width="2.0" /><polygon mask="url(#full-mask)" points="327.3576026305178,-125.0 327.3576026305178,-67.0 277.1281292110204,-38.0 226.89865579152294,-67.0 226.89865579152297,-125.0 277.1281292110204,-154.0" fill="rgba(0, 0, 0, 0.0)" stroke="rgba(35, 45, 67, 1.0)" stroke-width="2.0" /><polygon mask="url(#full-mask)" points="382.7832284727219,-28.999999999999996 382.7832284727219,28.999999999999996 332.55375505322445,58.0 282.324281633727,28.999999999999996 282.324281633727,-29.000000000000007 332.55375505322445,-58.0" fill="rgba(251, 193, 57, 1.0)" stroke="rgba(35, 45, 67, 1.0)" stroke-width="2.0" /><polygon mask="url(#full-mask)" points="382.7832284727219,-28.999999999999996 382.7832284727219,28.999999999999996 332.55375505322445,58.0 282.324281633727,28.999999999999996 282.324281633727,-29.000000000000007 332.55375505322445,-58.0" fill="rgba(255, 255, 255, 0.18823529411764706)" stroke="rgba(255, 255, 255, 1.0)" stroke-width="6.0" /><polygon mask="url(#full-mask)" points="438.20885431492593,67.0 438.20885431492593,125.0 387.9793808954285,154.0 337.7499074759311,125.0 337.7499074759311,67.0 387.9793808954285,38.0" fill="rgba(0, 0, 0, 0.0)" stroke="rgba(35, 45, 67, 1.0)" stroke-width="2.0" /><polygon mask="url(#full-mask)" points="493.63448015713,163.0 493.63448015713,221.0 443.40500673763256,250.0 393.17553331813514,221.0 393.17553331813514,163.0 443.40500673763256,134.0" fill="rgba(0, 0, 0, 0.0)" stroke="rgba(35, 45, 67, 1.0)" stroke-width="2.0" /><polygon mask="url(#full-mask)" points="438.20885431492593,-125.0 438.20885431492593,-67.0 387.9793808954285,-38.0 337.7499074759311,-67.0 337.7499074759311,-125.0 387.9793808954285,-154.0" fill="rgba(0, 0, 0, 0.0)" stroke="rgba(35, 45, 67, 1.0)" stroke-width="2.0" /><polygon mask="url(#full-mask)" points="493.63448015713,-28.999999999999996 493.63448015713,28.999999999999996 443.40500673763256,58.0 393.17553331813514,28.999999999999996 393.17553331813514,-29.000000000000007 443.40500673763256,-58.0" fill="rgba(0, 0, 0, 0.0)" stroke="rgba(35, 45, 67, 1.0)" stroke-width="2.0" /><defs><mask x="-87.42562584220408" y="-96.0" width="100%" height="100%" id="full-mask" mask-type="luminance" maskUnits="userSpaceOnUse"><rect x="-87.42562584220408" y="-96.0" width="100%" height="100%" fill="rgba(255, 255, 255, 1.0)" /></mask><mask x="-87.42562584220408" y="-96.0" width="100%" height="100%" id="text-mask" mask-type="luminance" maskUnits="userSpaceOnUse"><rect x="-87.42562584220408" y="-96.0" width="100%" height="100%" fill="rgba(255, 255, 255, 1.0)" /><text stroke="rgba(51, 51, 51, 1.0)" stroke-width="6.7666664" stroke-linecap="round" stroke-linejoin="round" font-weight="800" font-family="system-ui, -apple-system, BlinkMacSystemFont, sans-serif" font-size="40.6px" text-anchor="middle" dominant-baseline="middle" x="110.85125168440814" y="384.0">a</text><text fill="rgba(0, 0, 0, 1.0)" font-weight="800" font-family="system-ui, -apple-system, BlinkMacSystemFont, sans-serif" font-size="40.6px" text-anchor="middle" dominant-baseline="middle" x="110.85125168440814" y="384.0">a</text><text stroke="rgba(51, 51, 51, 1.0)" stroke-width="6.7666664" stroke-linecap="round" stroke-linejoin="round" font-weight="800" font-family="system-ui, -apple-system, BlinkMacSystemFont, sans-serif" font-size="40.6px" text-anchor="middle" dominant-baseline="middle" x="55.42562584220407" y="96.0">1</text><text fill="rgba(0, 0, 0, 1.0)" font-weight="800" font-family="system-ui, -apple-system, BlinkMacSystemFont, sans-serif" font-size="40.6px" text-anchor="middle" dominant-baseline="middle" x="55.42562584220407" y="96.0">1</text><text stroke="rgba(51, 51, 51, 1.0)" stroke-width="6.7666664" stroke-linecap="round" stroke-linejoin="round" font-weight="800" font-family="system-ui, -apple-system, BlinkMacSystemFont, sans-serif" font-size="40.6px" text-anchor="middle" dominant-baseline="middle" x="221.70250336881628" y="384.0">b</text><text fill="rgba(0, 0, 0, 1.0)" font-weight="800" font-family="system-ui, -apple-system, BlinkMacSystemFont, sans-serif" font-size="40.6px" text-anchor="middle" dominant-baseline="middle" x="221.70250336881628" y="384.0">b</text></mask></defs></g></svg>