<svg xmlns="http://www.w3.org/2000/svg" viewBox="0 0 508 576"><rect x="0" y="0" width="508" height="576" fill="rgba(15, 23, 42, 1.0)" /><g transform="translate(32 32)"><polygon points="-393.17553331813514,323.0 -393.17553331813514,381.0 -443.40500673763256,410.0 -493.63448015713,381.0 -493.63448015713,323.0 -443.40500673763256,294.0" fill="rgba(0, 0, 0, 0.0)" stroke="rgba(35, 45, 67, 1.0)" stroke-width="2.0" /><polygon points="-393.17553331813514,323.0 -393.17553331813514,381.0 -443.40500673763256,410.0 -493.63448015713,381.0 -493.63448015713,323.0 -443.40500673763256,294.0" fill="rgba(0, 0, 0, 0.0)" stroke="rgba(0, 0, 0, 0.0)" stroke-width="6.0" /><polygon points="-337.74990747593114,419.0 -337.74990747593114,477.0 -387.97938089542856,506.0 -438.208854314926,477.0 -438.208854314926,419.0 -387.97938089542856,390.0" fill="rgba(0, 0, 0, 0.0)" stroke="rgba(35, 45, 67, 1.0)" stroke-width="2.0" /><polygon points="-337.74990747593114,419.0 -337.74990747593114,477.0 -387.97938089542856,506.0 -438.208854314926,477.0 -438.208854314926,419.0 -387.97938089542856,390.0" fill="rgba(0, 0, 0, 0.0)" stroke="rgba(0, 0, 0, 0.0)" stroke-width="6.0" /><polygon points="-282.324281633727,515.0 -282.324281633727,573.0 -332.55375505322445,602.0 -382.7832284727219,573.0 -382.7832284727219,515.0 -332.55375505322445,486.0" fill="rgba(0, 0, 0, 0.0)" stroke="rgba(35, 45, 67, 1.0)" stroke-width="2.0" /><polygon points="-282.324281633727,515.0 -282.324281633727,573.0 -332.55375505322445,602.0 -382.7832284727219,573.0 -382.7832284727219,515.0 -332.55375505322445,486.0" fill="rgba(0, 0, 0, 0.0)" stroke="rgba(0, 0, 0, 0.0)" stroke-width="6.0" /><polygon points="-226.89865579152288,611.0 -226.89865579152288,669.0 -277.12812921102034,698.0 -327.35760263051776,669.0 -327.35760263051776,611.0 -277.12812921102034,582.0" fill="rgba(0, 0, 0, 0.0)" stroke="rgba(35, 45, 67, 1.0)" stroke-width="2.0" /><polygon points="-226.89865579152288,611.0 -226.89865579152288,669.0 -277.12812921102034,698.0 -327.35760263051776,669.0 -327.35760263051776,611.0 -277.12812921102034,582.0" fill="rgba(0, 0, 0, 0.0)" stroke="rgba(0, 0, 0, 0.0)" stroke-width="6.0" /><polygon points="-171.47302994931889,707.0 -171.47302994931889,765.0 -221.70250336881634,794.0 -271.93197678831376,765.0 -271.93197678831376,707.0 -221.70250336881634,678.0" fill="rgba(0, 0, 0, 0.0)" stroke="rgba(35, 45, 67, 1.0)" stroke-width="2.0" /><polygon points="-171.47302994931889,707.0 -171.47302994931889,765.0 -221.70250336881634,794.0 -271.93197678831376,765.0 -271.93197678831376,707.0 -221.70250336881634,678.0" fill="rgba(0, 0, 0, 0.0)" stroke="rgba(0, 0, 0, 0.0)" stroke-width="6.0" /><polygon points="-116.04740410711477,803.0 -116.04740410711477,861.0 -166.27687752661222,890.0 -216.50635094610968,861.0 -216.50635094610965,803.0 -166.27687752661222,774.0" fill="rgba(0, 0, 0, 0.0)" stroke="rgba(35, 45, 67, 1.0)" stroke-width="2.0" /><polygon points="-116.04740410711477,803.0 -116.04740410711477,861.0 -166.27687752661222,890.0 -216.50635094610968,861.0 -216.50635094610965,803.0 -166.27687752661222,774.0" fill="rgba(0, 0, 0, 0.0)" stroke="rgba(0, 0, 0, 0.0)" stroke-width="6.0" /><polygon points="-60.62177826491072,899.0 -60.62177826491072,957.0 -110.85125168440817,986.0 -161.08072510390562,957.0 -161.0807251039056,899.0 -110.85125168440818,870.0" fill="rgba(0, 0, 0, 0.0)" stroke="rgba(35, 45, 67, 1.0)" stroke-width="2.0" /><polygon points="-60.62177826491072,899.0 -60.62177826491072,957.0 -110.85125168440817,986.0 -161.08072510390562,957.0 -161.0807251039056,899.0 -110.85125168440818,870.0" fill="rgba(0, 0, 0, 0.0)" stroke="rgba(0, 0, 0, 0.0)" stroke-width="6.0" /><polygon points="-5.1961524227066676,995.0 -5.1961524227066676,1053.0 -55.42562584220411,1082.0 -105.65509926170157,1053.0 -105.65509926170155,995.0 -55.42562584220412,966.0" fill="rgba(0, 0, 0, 0.0)" stroke="rgba(35, 45, 67, 1.0)" stroke-width="2.0" /><polygon points="-5.1961524227066676,995.0 -5.1961524227066676,1053.0 -55.42562584220411,1082.0 -105.65509926170157,1053.0 -105.65509926170155,995.0 -55.42562584220412,966.0" fill="rgba(0, 0, 0, 0.0)" stroke="rgba(0, 0, 0, 0.0)" stroke-width="6.0" /><polygon points="-337.74990747593114,227.0 -337.74990747593114,285.0 -387.97938089542856,314.0 -438.208854314926,285.0 -438.208854314926,227.0 -387.97938089542856,198.0" fill="rgba(0, 0, 0, 0.0)" stroke="rgba(35, 45, 67, 1.0)" stroke-width="2.0" /><polygon points="-337.74990747593114,227.0 -337.74990747593114,285.0 -387.97938089542856,314.0 -438.208854314926,285.0 -438.208854314926,227.0 -387.97938089542856,198.0" fill="rgba(0, 0, 0, 0.0)" stroke="rgba(0, 0, 0, 0.0)" stroke-width="6.0" /><polygon points="-282.324281633727,323.0 -282.324281633727,381.0 -332.55375505322445,410.0 -382.7832284727219,381.0 -382.7832284727219,323.0 -332.55375505322445,294.0" fill="rgba(0, 0, 0, 0.0)" stroke="rgba(35, 45, 67, 1.0)" stroke-width="2.0" /><polygon points="-282.324281633727,323.0 -282.324281633727,381.0 -332.55375505322445,410.0 -382.7832284727219,381.0 -382.7832284727219,323.0 -332.55375505322445,294.0" fill="rgba(0, 0, 0, 0.0)" stroke="rgba(0, 0, 0, 0.0)" stroke-width="6.0" /><polygon points="-226.898655791523,419.0 -226.898655791523,477.0 -277.12812921102045,506.0 -327.3576026305179,477.0 -327.3576026305179,419.0 -277.12812921102045,390.0" fill="rgba(0, 0, 0, 0.0)" stroke="rgba(35, 45, 67, 1.0)" stroke-width="2.0" /><polygon points="-226.898655791523,419.0 -226.898655791523,477.0 -277.12812921102045,506.0 -327.3576026305179,477.0 -327.3576026305179,419.0 -277.12812921102045,390.0" fill="rgba(0, 0, 0, 0.0)" stroke="rgba(0, 0, 0, 0.0)" stroke-width="6.0" /><polygon points="-171.47302994931889,515.0 -171.47302994931889,573.0 -221.70250336881634,602.0 -271.93197678831376,573.0 -271.93197678831376,515.0 -221.70250336881634,486.0" fill="rgba(0, 0, 0, 0.0)" stroke="rgba(35, 45, 67, 1.0)" stroke-width="2.0" /><polygon points="-171.47302994931889,515.0 -171.47302994931889,573.0 -221.70250336881634,602.0 -271.93197678831376,573.0 -271.93197678831376,515.0 -221.70250336881634,486.0" fill="rgba(0, 0, 0, 0.0)" stroke="rgba(0, 0, 0, 0.0)" stroke-width="6.0" /><polygon points="-116.04740410711483,611.0 -116.04740410711483,669.0 -166.27687752661228,698.0 -216.50635094610973,669.0 -216.5063509461097,611.0 -166.27687752661228,582.0" fill="rgba(0, 0, 0, 0.0)" stroke="rgba(35, 45, 67, 1.0)" stroke-width="2.0" /><polygon points="-116.04740410711483,611.0 -116.04740410711483,669.0 -166.27687752661228,698.0 -216.50635094610973,669.0 -216.5063509461097,611.0 -166.27687752661228,582.0" fill="rgba(0, 0, 0, 0.0)" stroke="rgba(0, 0, 0, 0.0)" stroke-width="6.0" /><polygon points="-60.62177826491078,707.0 -60.62177826491078,765.0 -110.85125168440823,794.0 -161.08072510390568,765.0 -161.08072510390565,707.0 -110.85125168440824,678.0" fill="rgba(0, 0, 0, 0.0)" stroke="rgba(35, 45, 67, 1.0)" stroke-width="2.0" /><polygon points="-60.62177826491078,707.0 -60.62177826491078,765.0 -110.85125168440823,794.0 -161.08072510390568,765.0 -161.08072510390565,707.0 -110.85125168440824,678.0" fill="rgba(0, 0, 0, 0.0)" stroke="rgba(0, 0, 0, 0.0)" stroke-width="6.0" /><polygon points="-5.1961524227066676,803.0 -5.1961524227066676,861.0 -55.42562584220411,890.0 -105.65509926170157,861.0 -105.65509926170155,803.0 -55.42562584220412,774.0" fill="rgba(0, 0, 0, 0.0)" stroke="rgba(35, 45, 67, 1.0)" stroke-width="2.0" /><polygon points="-5.1961524227066676,803.0 -5.1961524227066676,861.0 -55.42562584220411,890.0 -105.65509926170157,861.0 -105.65509926170155,803.0 -55.42562584220412,774.0" fill="rgba(0, 0, 0, 0.0)" stroke="rgba(0, 0, 0, 0.0)" stroke-width="6.0" /><polygon points="50.22947341949739,899.0 50.22947341949739,957.0 -5.329194314328069E-14,986.0 -50.2294734194975,957.0 -50.229473419497495,899.0 -6.749784601338999E-14,870.0" fill="rgba(0, 0, 0, 0.0)" stroke="rgba(35, 45, 67, 1.0)" stroke-width="2.0" /><polygon points="50.22947341949739,899.0 50.22947341949739,957.0 -5.329194314328069E-14,986.0 -50.2294734194975,957.0 -50.229473419497495,899.0 -6.749784601338999E-14,870.0" fill="rgba(0, 0, 0, 0.0)" stroke="rgba(0, 0, 0, 0.0)" stroke-width="6.0" /><polygon points="105.65509926170145,995.0 105.65509926170145,1053.0 55.425625842204,1082.0 5.196152422706554,1053.0 5.196152422706561,995.0 55.42562584220399,966.0" fill="rgba(0, 0, 0, 0.0)" stroke="rgba(35, 45, 67, 1.0)" stroke-width="2.0" /><polygon points="105.65509926170145,995.0 105.65509926170145,1053.0 55.425625842204,1082.0 5.196152422706554,1053.0 5.196152422706561,995.0 55.42562584220399,966.0" fill="rgba(0, 0, 0, 0.0)" stroke="rgba(0, 0, 0, 0.0)" stroke-width="6.0" /><polygon points="-282.324281633727,131.0 -282.324281633727,189.0 -332.55375505322445,218.0 -382.7832284727219,189.0 -382.7832284727219,131.0 -332.55375505322445,102.0" fill="rgba(0, 0, 0, 0.0)" stroke="rgba(35, 45, 67, 1.0)" stroke-width="2.0" /><polygon points="-282.324281633727,131.0 -282.324281633727,189.0 -332.55375505322445,218.0 -382.7832284727219,189.0 -382.7832284727219,131.0 -332.55375505322445,102.0" fill="rgba(0, 0, 0, 0.0)" stroke="rgba(0, 0, 0, 0.0)" stroke-width="6.0" /><polygon points="-226.89865579152288,227.0 -226.89865579152288,285.0 -277.12812921102034,314.0 -327.35760263051776,285.0 -327.35760263051776,227.0 -277.12812921102034,198.0" fill="rgba(0, 0, 0, 0.0)" stroke="rgba(35, 45, 67, 1.0)" stroke-width="2.0" /><polygon points="-226.89865579152288,227.0 -226.89865579152288,285.0 -277.12812921102034,314.0 -327.35760263051776,285.0 -327.35760263051776,227.0 -277.12812921102034,198.0" fill="rgba(0, 0, 0, 0.0)" stroke="rgba(0, 0, 0, 0.0)" stroke-width="6.0" /><polygon points="-171.47302994931883,323.0 -171.47302994931883,381.0 -221.70250336881628,410.0 -271.9319767883137,381.0 -271.9319767883137,323.0 -221.70250336881628,294.0" fill="rgba(0, 0, 0, 0.0)" stroke="rgba(35, 45, 67, 1.0)" stroke-width="2.0" /><polygon points="-171.47302994931883,323.0 -171.47302994931883,381.0 -221.70250336881628,410.0 -271.9319767883137,381.0 -271.9319767883137,323.0 -221.70250336881628,294.0" fill="rgba(0, 0, 0, 0.0)" stroke="rgba(0, 0, 0, 0.0)" stroke-width="6.0" /><polygon points="-116.04740410711477,419.0 -116.04740410711477,477.0 -166.27687752661222,506.0 -216.50635094610968,477.0 -216.50635094610965,419.0 -166.27687752661222,390.0" fill="rgba(0, 0, 0, 0.0)" stroke="rgba(35, 45, 67, 1.0)" stroke-width="2.0" /><polygon points="-116.04740410711477,419.0 -116.04740410711477,477.0 -166.27687752661222,506.0 -216.50635094610968,477.0 -216.50635094610965,419.0 -166.27687752661222,390.0" fill="rgba(0, 0, 0, 0.0)" stroke="rgba(0, 0, 0, 0.0)" stroke-width="6.0" /><polygon points="-60.62177826491067,515.0 -60.62177826491067,573.0 -110.85125168440811,602.0 -161.08072510390556,573.0 -161.08072510390554,515.0 -110.85125168440813,486.0" fill="rgba(0, 0, 0, 0.0)" stroke="rgba(35, 45, 67, 1.0)" stroke-width="2.0" /><polygon points="-60.62177826491067,515.0 -60.62177826491067,573.0 -110.85125168440811,602.0 -161.08072510390556,573.0 -161.08072510390554,515.0 -110.85125168440813,486.0" fill="rgba(0, 0, 0, 0.0)" stroke="rgba(0, 0, 0, 0.0)" stroke-width="6.0" /><polygon points="-5.196152422706611,611.0 -5.196152422706611,669.0 -55.425625842204056,698.0 -105.65509926170151,669.0 -105.6550992617015,611.0 -55.42562584220406,582.0" fill="rgba(0, 0, 0, 0.0)" stroke="rgba(35, 45, 67, 1.0)" stroke-width="2.0" /><polygon points="-5.196152422706611,611.0 -5.196152422706611,669.0 -55.425625842204056,698.0 -105.65509926170151,669.0 -105.6550992617015,611.0 -55.42562584220406,582.0" fill="rgba(0, 0, 0, 0.0)" stroke="rgba(0, 0, 0, 0.0)" stroke-width="6.0" /><polygon points="50.229473419497445,707.0 50.229473419497445,765.0 3.5514757175273244E-15,794.0 -50.229473419497445,765.0 -50.22947341949744,707.0 -1.0654427152581972E-14,678.0" fill="rgba(0, 0, 0, 0.0)" stroke="rgba(35, 45, 67, 1.0)" stroke-width="2.0" /><polygon points="50.229473419497445,707.0 50.229473419497445,765.0 3.5514757175273244E-15,794.0 -50.229473419497445,765.0 -50.22947341949744,707.0 -1.0654427152581972E-14,678.0" fill="rgba(0, 0, 0, 0.0)" stroke="rgba(0, 0, 0, 0.0)" stroke-width="6.0" /><polygon points="105.65509926170157,803.0 105.65509926170157,861.0 55.42562584220411,890.0 5.1961524227066676,861.0 5.196152422706675,803.0 55.425625842204106,774.0" fill="rgba(0, 0, 0, 0.0)" stroke="rgba(35, 45, 67, 1.0)" stroke-width="2.0" /><polygon points="105.65509926170157,803.0 105.65509926170157,861.0 55.42562584220411,890.0 5.1961524227066676,861.0 5.196152422706675,803.0 55.425625842204106,774.0" fill="rgba(0, 0, 0, 0.0)" stroke="rgba(0, 0, 0, 0.0)" stroke-width="6.0" /><polygon points="161.08072510390562,899.0 161.08072510390562,957.0 110.85125168440817,986.0 60.62177826491072,957.0 60.62177826491073,899.0 110.85125168440815,870.0" fill="rgba(0, 0, 0, 0.0)" stroke="rgba(35, 45, 67, 1.0)" stroke-width="2.0" /><polygon points="161.08072510390562,899.0 161.08072510390562,957.0 110.85125168440817,986.0 60.62177826491072,957.0 60.62177826491073,899.0 110.85125168440815,870.0" fill="rgba(0, 0, 0, 0.0)" stroke="rgba(0, 0, 0, 0.0)" stroke-width="6.0" /><polygon points="216.50635094610968,995.0 216.50635094610968,1053.0 166.27687752661222,1082.0 116.04740410711477,1053.0 116.04740410711479,995.0 166.27687752661222,966.0" fill="rgba(0, 0, 0, 0.0)" stroke="rgba(35, 45, 67, 1.0)" stroke-width="2.0" /><polygon points="216.50635094610968,995.0 216.50635094610968,1053.0 166.27687752661222,1082.0 116.04740410711477,1053.0 116.04740410711479,995.0 166.27687752661222,966.0" fill="rgba(0, 0, 0, 0.0)" stroke="rgba(0, 0, 0, 0.0)" stroke-width="6.0" /><polygon points="-226.89865579152288,35.0 -226.89865579152288,93.0 -277.12812921102034,122.0 -327.35760263051776,93.0 -327.35760263051776,34.99999999999999 -277.12812921102034,6.0" fill="rgba(0, 0, 0, 0.0)" stroke="rgba(35, 45, 67, 1.0)" stroke-width="2.0" /><polygon points="-226.89865579152288,35.0 -226.89865579152288,93.0 -277.12812921102034,122.0 -327.35760263051776,93.0 -327.35760263051776,34.99999999999999 -277.12812921102034,6.0" fill="rgba(0, 0, 0, 0.0)" stroke="rgba(0, 0, 0, 0.0)" stroke-width="6.0" /><polygon points="-171.47302994931883,131.0 -171.47302994931883,189.0 -221.70250336881628,218.0 -271.9319767883137,189.0 -271.9319767883137,131.0 -221.70250336881628,102.0" fill="rgba(0, 0, 0, 0.0)" stroke="rgba(35, 45, 67, 1.0)" stroke-width="2.0" /><polygon points="-171.47302994931883,131.0 -171.47302994931883,189.0 -221.70250336881628,218.0 -271.9319767883137,189.0 -271.9319767883137,131.0 -221.70250336881628,102.0" fill="rgba(0, 0, 0, 0.0)" stroke="rgba(0, 0, 0, 0.0)" stroke-width="6.0" /><polygon points="-116.04740410711477,227.0 -116.04740410711477,285.0 -166.27687752661222,314.0 -216.50635094610968,285.0 -216.50635094610965,227.0 -166.27687752661222,198.0" fill="rgba(0, 0, 0, 0.0)" stroke="rgba(35, 45, 67, 1.0)" stroke-width="2.0" /><polygon points="-116.04740410711477,227.0 -116.04740410711477,285.0 -166.27687752661222,314.0 -216.50635094610968,285.0 -216.50635094610965,227.0 -166.27687752661222,198.0" fill="rgba(0, 0, 0, 0.0)" stroke="rgba(0, 0, 0, 0.0)" stroke-width="6.0" /><polygon points="-60.62177826491072,323.0 -60.62177826491072,381.0 -110.85125168440817,410.0 -161.08072510390562,381.0 -161.0807251039056,323.0 -110.85125168440818,294.0" fill="rgba(0, 0, 0, 0.0)" stroke="rgba(35, 45, 67, 1.0)" stroke-width="2.0" /><polygon points="-60.62177826491072,323.0 -60.62177826491072,381.0 -110.85125168440817,410.0 -161.08072510390562,381.0 -161.0807251039056,323.0 -110.85125168440818,294.0" fill="rgba(0, 0, 0, 0.0)" stroke="rgba(0, 0, 0, 0.0)" stroke-width="6.0" /><polygon points="-5.1961524227066676,419.0 -5.1961524227066676,477.0 -55.42562584220411,506.0 -105.65509926170157,477.0 -105.65509926170155,419.0 -55.42562584220412,390.0" fill="rgba(0, 0, 0, 0.0)" stroke="rgba(35, 45, 67, 1.0)" stroke-width="2.0" /><polygon points="-5.1961524227066676,419.0 -5.1961524227066676,477.0 -55.42562584220411,506.0 -105.65509926170157,477.0 -105.65509926170155,419.0 -55.42562584220412,390.0" fill="rgba(0, 0, 0, 0.0)" stroke="rgba(0, 0, 0, 0.0)" stroke-width="6.0" /><polygon points="50.229473419497445,515.0 50.229473419497445,573.0 3.5514757175273244E-15,602.0 -50.229473419497445,573.0 -50.22947341949744,515.0 -1.0654427152581972E-14,486.0" fill="rgba(0, 0, 0, 0.0)" stroke="rgba(35, 45, 67, 1.0)" stroke-width="2.0" /><polygon points="50.229473419497445,515.0 50.229473419497445,573.0 3.5514757175273244E-15,602.0 -50.229473419497445,573.0 -50.22947341949744,515.0 -1.0654427152581972E-14,486.0" fill="rgba(0, 0, 0, 0.0)" stroke="rgba(0, 0, 0, 0.0)" stroke-width="6.0" /><polygon points="105.65509926170151,611.0 105.65509926170151,669.0 55.425625842204056,698.0 5.196152422706611,669.0 5.196152422706618,611.0 55.42562584220405,582.0" fill="rgba(0, 0, 0, 0.0)" stroke="rgba(35, 45, 67, 1.0)" stroke-width="2.0" /><polygon points="105.65509926170151,611.0 105.65509926170151,669.0 55.425625842204056,698.0 5.196152422706611,669.0 5.196152422706618,611.0 55.42562584220405,582.0" fill="rgba(0, 0, 0, 0.0)" stroke="rgba(0, 0, 0, 0.0)" stroke-width="6.0" /><polygon points="161.08072510390556,707.0 161.08072510390556,765.0 110.85125168440811,794.0 60.62177826491067,765.0 60.621778264910674,707.0 110.8512516844081,678.0" fill="rgba(0, 0, 0, 0.0)" stroke="rgba(35, 45, 67, 1.0)" stroke-width="2.0" /><polygon points="161.08072510390556,707.0 161.08072510390556,765.0 110.85125168440811,794.0 60.62177826491067,765.0 60.621778264910674,707.0 110.8512516844081,678.0" fill="rgba(0, 0, 0, 0.0)" stroke="rgba(0, 0, 0, 0.0)" stroke-width="6.0" /><polygon points="216.50635094610968,803.0 216.50635094610968,861.0 166.27687752661222,890.0 116.04740410711477,861.0 116.04740410711479,803.0 166.27687752661222,774.0" fill="rgba(0, 0, 0, 0.0)" stroke="rgba(35, 45, 67, 1.0)" stroke-width="2.0" /><polygon points="216.50635094610968,803.0 216.50635094610968,861.0 166.27687752661222,890.0 116.04740410711477,861.0 116.04740410711479,803.0 166.27687752661222,774.0" fill="rgba(0, 0, 0, 0.0)" stroke="rgba(0, 0, 0, 0.0)" stroke-width="6.0" /><polygon points="271.9319767883137,899.0 271.9319767883137,957.0 221.70250336881628,986.0 171.47302994931883,957.0 171.47302994931886,899.0 221.70250336881628,870.0" fill="rgba(0, 0, 0, 0.0)" stroke="rgba(35, 45, 67, 1.0)" stroke-width="2.0" /><polygon points="271.9319767883137,899.0 271.9319767883137,957.0 221.70250336881628,986.0 171.47302994931883,957.0 171.47302994931886,899.0 221.70250336881628,870.0" fill="rgba(0, 0, 0, 0.0)" stroke="rgba(0, 0, 0, 0.0)" stroke-width="6.0" /><polygon points="327.35760263051776,995.0 327.35760263051776,1053.0 277.12812921102034,1082.0 226.89865579152288,1053.0 226.8986557915229,995.0 277.12812921102034,966.0" fill="rgba(0, 0, 0, 0.0)" stroke="rgba(35, 45, 67, 1.0)" stroke-width="2.0" /><polygon points="327.35760263051776,995.0 327.35760263051776,1053.0 277.12812921102034,1082.0 226.89865579152288,1053.0 226.8986557915229,995.0 277.12812921102034,966.0" fill="rgba(0, 0, 0, 0.0)" stroke="rgba(0, 0, 0, 0.0)" stroke-width="6.0" /><polygon points="-171.47302994931889,-61.0 -171.47302994931889,-3.0000000000000036 -221.70250336881634,26.0 -271.93197678831376,-3.0000000000000036 -271.93197678831376,-61.00000000000001 -221.70250336881634,-90.0" fill="rgba(0, 0, 0, 0.0)" stroke="rgba(35, 45, 67, 1.0)" stroke-width="2.0" /><polygon points="-171.47302994931889,-61.0 -171.47302994931889,-3.0000000000000036 -221.70250336881634,26.0 -271.93197678831376,-3.0000000000000036 -271.93197678831376,-61.00000000000001 -221.70250336881634,-90.0" fill="rgba(0, 0, 0, 0.0)" stroke="rgba(0, 0, 0, 0.0)" stroke-width="6.0" /><polygon points="-116.04740410711477,35.0 -116.04740410711477,93.0 -166.27687752661222,122.0 -216.50635094610968,93.0 -216.50635094610965,34.99999999999999 -166.27687752661222,6.0" fill="rgba(0, 0, 0, 0.0)" stroke="rgba(35, 45, 67, 1.0)" stroke-width="2.0" /><polygon points="-116.04740410711477,35.0 -116.04740410711477,93.0 -166.27687752661222,122.0 -216.50635094610968,93.0 -216.50635094610965,34.99999999999999 -166.27687752661222,6.0" fill="rgba(0, 0, 0, 0.0)" stroke="rgba(0, 0, 0, 0.0)" stroke-width="6.0" /><polygon points="-60.62177826491072,131.0 -60.62177826491072,189.0 -110.85125168440817,218.0 -161.08072510390562,189.0 -161.0807251039056,131.0 -110.85125168440818,102.0" fill="rgba(0, 0, 0, 0.0)" stroke="rgba(35, 45, 67, 1.0)" stroke-width="2.0" /><polygon points="-60.62177826491072,131.0 -60.62177826491072,189.0 -110.85125168440817,218.0 -161.08072510390562,189.0 -161.0807251039056,131.0 -110.85125168440818,102.0" fill="rgba(0, 0, 0, 0.0)" stroke="rgba(0, 0, 0, 0.0)" stroke-width="6.0" /><polygon points="-5.1961524227066676,227.0 -5.1961524227066676,285.0 -55.42562584220411,314.0 -105.65509926170157,285.0 -105.65509926170155,227.0 -55.42562584220412,198.0" fill="rgba(0, 0, 0, 0.0)" stroke="rgba(35, 45, 67, 1.0)" stroke-width="2.0" /><polygon points="-5.1961524227066676,227.0 -5.1961524227066676,285.0 -55.42562584220411,314.0 -105.65509926170157,285.0 -105.65509926170155,227.0 -55.42562584220412,198.0" fill="rgba(0, 0, 0, 0.0)" stroke="rgba(0, 0, 0, 0.0)" stroke-width="6.0" /><polygon points="50.22947341949739,323.0 50.22947341949739,381.0 -5.329194314328069E-14,410.0 -50.2294734194975,381.0 -50.229473419497495,323.0 -6.749784601338999E-14,294.0" fill="rgba(0, 0, 0, 0.0)" stroke="rgba(35, 45, 67, 1.0)" stroke-width="2.0" /><polygon points="50.22947341949739,323.0 50.22947341949739,381.0 -5.329194314328069E-14,410.0 -50.2294734194975,381.0 -50.229473419497495,323.0 -6.749784601338999E-14,294.0" fill="rgba(0, 0, 0, 0.0)" stroke="rgba(0, 0, 0, 0.0)" stroke-width="6.0" /><polygon points="105.65509926170148,419.0 105.65509926170148,477.0 55.42562584220403,506.0 5.196152422706582,477.0 5.196152422706589,419.0 55.42562584220402,390.0" fill="rgba(0, 0, 0, 0.0)" stroke="rgba(35, 45, 67, 1.0)" stroke-width="2.0" /><polygon points="105.65509926170148,419.0 105.65509926170148,477.0 55.42562584220403,506.0 5.196152422706582,477.0 5.196152422706589,419.0 55.42562584220402,390.0" fill="rgba(0, 0, 0, 0.0)" stroke="rgba(0, 0, 0, 0.0)" stroke-width="6.0" /><polygon points="161.08072510390556,515.0 161.08072510390556,573.0 110.85125168440811,602.0 60.62177826491067,573.0 60.621778264910674,515.0 110.8512516844081,486.0" fill="rgba(0, 0, 0, 0.0)" stroke="rgba(35, 45, 67, 1.0)" stroke-width="2.0" /><polygon points="161.08072510390556,515.0 161.08072510390556,573.0 110.85125168440811,602.0 60.62177826491067,573.0 60.621778264910674,515.0 110.8512516844081,486.0" fill="rgba(0, 0, 0, 0.0)" stroke="rgba(0, 0, 0, 0.0)" stroke-width="6.0" /><polygon points="216.50635094610962,611.0 216.50635094610962,669.0 166.27687752661217,698.0 116.04740410711472,669.0 116.04740410711473,611.0 166.27687752661217,582.0" fill="rgba(0, 0, 0, 0.0)" stroke="rgba(35, 45, 67, 1.0)" stroke-width="2.0" /><polygon points="216.50635094610962,611.0 216.50635094610962,669.0 166.27687752661217,698.0 116.04740410711472,669.0 116.04740410711473,611.0 166.27687752661217,582.0" fill="rgba(0, 0, 0, 0.0)" stroke="rgba(0, 0, 0, 0.0)" stroke-width="6.0" /><polygon points="271.93197678831365,707.0 271.93197678831365,765.0 221.70250336881622,794.0 171.47302994931877,765.0 171.4730299493188,707.0 221.70250336881622,678.0" fill="rgba(0, 0, 0, 0.0)" stroke="rgba(35, 45, 67, 1.0)" stroke-width="2.0" /><polygon points="271.93197678831365,707.0 271.93197678831365,765.0 221.70250336881622,794.0 171.47302994931877,765.0 171.4730299493188,707.0 221.70250336881622,678.0" fill="rgba(0, 0, 0, 0.0)" stroke="rgba(0, 0, 0, 0.0)" stroke-width="6.0" /><polygon points="327.35760263051776,803.0 327.35760263051776,861.0 277.12812921102034,890.0 226.89865579152288,861.0 226.8986557915229,803.0 277.12812921102034,774.0" fill="rgba(0, 0, 0, 0.0)" stroke="rgba(35, 45, 67, 1.0)" stroke-width="2.0" /><polygon points="327.35760263051776,803.0 327.35760263051776,861.0 277.12812921102034,890.0 226.89865579152288,861.0 226.8986557915229,803.0 277.12812921102034,774.0" fill="rgba(0, 0, 0, 0.0)" stroke="rgba(0, 0, 0, 0.0)" stroke-width="6.0" /><polygon points="382.7832284727218,899.0 382.7832284727218,957.0 332.5537550532244,986.0 282.32428163372697,957.0 282.32428163372697,899.0 332.5537550532244,870.0" fill="rgba(0, 0, 0, 0.0)" stroke="rgba(35, 45, 67, 1.0)" stroke-width="2.0" /><polygon points="382.7832284727218,899.0 382.7832284727218,957.0 332.5537550532244,986.0 282.32428163372697,957.0 282.32428163372697,899.0 332.5537550532244,870.0" fill="rgba(0, 0, 0, 0.0)" stroke="rgba(0, 0, 0, 0.0)" stroke-width="6.0" /><polygon points="438.2088543149259,995.0 438.2088543149259,1053.0 387.97938089542845,1082.0 337.749907475931,1053.0 337.749907475931,995.0 387.97938089542845,966.0" fill="rgba(0, 0, 0, 0.0)" stroke="rgba(35, 45, 67, 1.0)" stroke-width="2.0" /><polygon points="438.2088543149259,995.0 438.2088543149259,1053.0 387.97938089542845,1082.0 337.749907475931,1053.0 337.749907475931,995.0 387.97938089542845,966.0" fill="rgba(0, 0, 0, 0.0)" stroke="rgba(0, 0, 0, 0.0)" stroke-width="6.0" /><polygon points="-116.04740410711477,-157.0 -116.04740410711477,-99.0 -166.27687752661222,-70.0 -216.50635094610968,-99.0 -216.50635094610965,-157.0 -166.27687752661222,-186.0" fill="rgba(0, 0, 0, 0.0)" stroke="rgba(35, 45, 67, 1.0)" stroke-width="2.0" /><polygon points="-116.04740410711477,-157.0 -116.04740410711477,-99.0 -166.27687752661222,-70.0 -216.50635094610968,-99.0 -216.50635094610965,-157.0 -166.27687752661222,-186.0" fill="rgba(0, 0, 0, 0.0)" stroke="rgba(0, 0, 0, 0.0)" stroke-width="6.0" /><polygon points="-60.62177826491072,-61.0 -60.62177826491072,-3.0000000000000036 -110.85125168440817,26.0 -161.08072510390562,-3.0000000000000036 -161.0807251039056,-61.00000000000001 -110.85125168440818,-90.0" fill="rgba(0, 0, 0, 0.0)" stroke="rgba(35, 45, 67, 1.0)" stroke-width="2.0" /><polygon points="-60.62177826491072,-61.0 -60.62177826491072,-3.0000000000000036 -110.85125168440817,26.0 -161.08072510390562,-3.0000000000000036 -161.0807251039056,-61.00000000000001 -110.85125168440818,-90.0" fill="rgba(0, 0, 0, 0.0)" stroke="rgba(0, 0, 0, 0.0)" stroke-width="6.0" /><polygon points="-5.1961524227066676,35.0 -5.1961524227066676,93.0 -55.42562584220411,122.0 -105.65509926170157,93.0 -105.65509926170155,34.99999999999999 -55.42562584220412,6.0" fill="rgba(0, 0, 0, 0.0)" stroke="rgba(35, 45, 67, 1.0)" stroke-width="2.0" /><polygon points="-5.1961524227066676,35.0 -5.1961524227066676,93.0 -55.42562584220411,122.0 -105.65509926170157,93.0 -105.65509926170155,34.99999999999999 -55.42562584220412,6.0" fill="rgba(0, 0, 0, 0.0)" stroke="rgba(0, 0, 0, 0.0)" stroke-width="6.0" /><polygon points="50.229473419497445,131.0 50.229473419497445,189.0 3.5514757175273244E-15,218.0 -50.229473419497445,189.0 -50.22947341949744,131.0 -1.0654427152581972E-14,102.0" fill="rgba(0, 0, 0, 0.0)" stroke="rgba(35, 45, 67, 1.0)" stroke-width="2.0" /><polygon points="50.229473419497445,131.0 50.229473419497445,189.0 3.5514757175273244E-15,218.0 -50.229473419497445,189.0 -50.22947341949744,131.0 -1.0654427152581972E-14,102.0" fill="rgba(0, 0, 0, 0.0)" stroke="rgba(0, 0, 0, 0.0)" stroke-width="6.0" /><polygon points="105.65509926170151,227.0 105.65509926170151,285.0 55.425625842204056,314.0 5.196152422706611,285.0 5.196152422706618,227.0 55.42562584220405,198.0" fill="rgba(0, 0, 0, 0.0)" stroke="rgba(35, 45, 67, 1.0)" stroke-width="2.0" /><polygon points="105.65509926170151,227.0 105.65509926170151,285.0 55.425625842204056,314.0 5.196152422706611,285.0 5.196152422706618,227.0 55.42562584220405,198.0" fill="rgba(0, 0, 0, 0.0)" stroke="rgba(0, 0, 0, 0.0)" stroke-width="6.0" /><polygon points="161.08072510390556,323.0 161.08072510390556,381.0 110.85125168440811,410.0 60.62177826491067,381.0 60.621778264910674,323.0 110.8512516844081,294.0" fill="rgba(0, 0, 0, 0.0)" stroke="rgba(35, 45, 67, 1.0)" stroke-width="2.0" /><polygon points="161.08072510390556,323.0 161.08072510390556,381.0 110.85125168440811,410.0 60.62177826491067,381.0 60.621778264910674,323.0 110.8512516844081,294.0" fill="rgba(0, 0, 0, 0.0)" stroke="rgba(0, 0, 0, 0.0)" stroke-width="6.0" /><polygon points="216.50635094610965,419.0 216.50635094610965,477.0 166.2768775266122,506.0 116.04740410711474,477.0 116.04740410711476,419.0 166.2768775266122,390.0" fill="rgba(0, 0, 0, 0.0)" stroke="rgba(35, 45, 67, 1.0)" stroke-width="2.0" /><polygon points="216.50635094610965,419.0 216.50635094610965,477.0 166.2768775266122,506.0 116.04740410711474,477.0 116.04740410711476,419.0 166.2768775266122,390.0" fill="rgba(0, 0, 0, 0.0)" stroke="rgba(0, 0, 0, 0.0)" stroke-width="6.0" /><polygon points="271.9319767883137,515.0 271.9319767883137,573.0 221.70250336881628,602.0 171.47302994931883,573.0 171.47302994931886,515.0 221.70250336881628,486.0" fill="rgba(0, 0, 0, 0.0)" stroke="rgba(35, 45, 67, 1.0)" stroke-width="2.0" /><polygon points="271.9319767883137,515.0 271.9319767883137,573.0 221.70250336881628,602.0 171.47302994931883,573.0 171.47302994931886,515.0 221.70250336881628,486.0" fill="rgba(0, 0, 0, 0.0)" stroke="rgba(0, 0, 0, 0.0)" stroke-width="6.0" /><polygon points="327.35760263051776,611.0 327.35760263051776,669.0 277.12812921102034,698.0 226.89865579152288,669.0 226.8986557915229,611.0 277.12812921102034,582.0" fill="rgba(0, 0, 0, 0.0)" stroke="rgba(35, 45, 67, 1.0)" stroke-width="2.0" /><polygon points="327.35760263051776,611.0 327.35760263051776,669.0 277.12812921102034,698.0 226.89865579152288,669.0 226.8986557915229,611.0 277.12812921102034,582.0" fill="rgba(0, 0, 0, 0.0)" stroke="rgba(0, 0, 0, 0.0)" stroke-width="6.0" /><polygon points="382.7832284727218,707.0 382.7832284727218,765.0 332.5537550532244,794.0 282.32428163372697,765.0 282.32428163372697,707.0 332.5537550532244,678.0" fill="rgba(0, 0, 0, 0.0)" stroke="rgba(35, 45, 67, 1.0)" stroke-width="2.0" /><polygon points="382.7832284727218,707.0 382.7832284727218,765.0 332.5537550532244,794.0 282.32428163372697,765.0 282.32428163372697,707.0 332.5537550532244,678.0" fill="rgba(0, 0, 0, 0.0)" stroke="rgba(0, 0, 0, 0.0)" stroke-width="6.0" /><polygon points="438.20885431492593,803.0 438.20885431492593,861.0 387.9793808954285,890.0 337.7499074759311,861.0 337.7499074759311,803.0 387.9793808954285,774.0" fill="rgba(0, 0, 0, 0.0)" stroke="rgba(35, 45, 67, 1.0)" stroke-width="2.0" /><polygon points="438.20885431492593,803.0 438.20885431492593,861.0 387.9793808954285,890.0 337.7499074759311,861.0 337.7499074759311,803.0 387.9793808954285,774.0" fill="rgba(0, 0, 0, 0.0)" stroke="rgba(0, 0, 0, 0.0)" stroke-width="6.0" /><polygon points="493.63448015713,899.0 493.63448015713,957.0 443.40500673763256,986.0 393.17553331813514,957.0 393.17553331813514,899.0 443.40500673763256,870.0" fill="rgba(0, 0, 0, 0.0)" stroke="rgba(35, 45, 67, 1.0)" stroke-width="2.0" /><polygon points="493.63448015713,899.0 493.63448015713,957.0 443.40500673763256,986.0 393.17553331813514,957.0 393.17553331813514,899.0 443.40500673763256,870.0" fill="rgba(0, 0, 0, 0.0)" stroke="rgba(0, 0, 0, 0.0)" stroke-width="6.0" /><polygon points="549.060105999334,995.0 549.060105999334,1053.0 498.8306325798366,1082.0 448.6011591603392,1053.0 448.6011591603392,995.0 498.8306325798366,966.0" fill="rgba(0, 0, 0, 0.0)" stroke="rgba(35, 45, 67, 1.0)" stroke-width="2.0" /><polygon points="549.060105999334,995.0 549.060105999334,1053.0 498.8306325798366,1082.0 448.6011591603392,1053.0 448.6011591603392,995.0 498.8306325798366,966.0" fill="rgba(0, 0, 0, 0.0)" stroke="rgba(0, 0, 0, 0.0)" stroke-width="6.0" /><polygon points="-60.62177826491067,-253.0 -60.62177826491067,-195.0 -110.85125168440811,-166.0 -161.08072510390556,-195.0 -161.08072510390554,-253.0 -110.85125168440813,-282.0" fill="rgba(0, 0, 0, 0.0)" stroke="rgba(35, 45, 67, 1.0)" stroke-width="2.0" /><polygon points="-60.62177826491067,-253.0 -60.62177826491067,-195.0 -110.85125168440811,-166.0 -161.08072510390556,-195.0 -161.08072510390554,-253.0 -110.85125168440813,-282.0" fill="rgba(0, 0, 0, 0.0)" stroke="rgba(0, 0, 0, 0.0)" stroke-width="6.0" /><polygon points="-5.1961524227066676,-157.0 -5.1961524227066676,-99.0 -55.42562584220411,-70.0 -105.65509926170157,-99.0 -105.65509926170155,-157.0 -55.42562584220412,-186.0" fill="rgba(0, 0, 0, 0.0)" stroke="rgba(35, 45, 67, 1.0)" stroke-width="2.0" /><polygon points="-5.1961524227066676,-157.0 -5.1961524227066676,-99.0 -55.42562584220411,-70.0 -105.65509926170157,-99.0 -105.65509926170155,-157.0 -55.42562584220412,-186.0" fill="rgba(0, 0, 0, 0.0)" stroke="rgba(0, 0, 0, 0.0)" stroke-width="6.0" /><polygon points="50.229473419497445,-61.0 50.229473419497445,-3.0000000000000036 3.5514757175273244E-15,26.0 -50.229473419497445,-3.0000000000000036 -50.22947341949744,-61.00000000000001 -1.0654427152581972E-14,-90.0" fill="rgba(0, 0, 0, 0.0)" stroke="rgba(35, 45, 67, 1.0)" stroke-width="2.0" /><polygon points="50.229473419497445,-61.0 50.229473419497445,-3.0000000000000036 3.5514757175273244E-15,26.0 -50.229473419497445,-3.0000000000000036 -50.22947341949744,-61.00000000000001 -1.0654427152581972E-14,-90.0" fill="rgba(0, 0, 0, 0.0)" stroke="rgba(0, 0, 0, 0.0)" stroke-width="6.0" /><polygon points="105.65509926170151,35.0 105.65509926170151,93.0 55.425625842204056,122.0 5.196152422706611,93.0 5.196152422706618,34.99999999999999 55.42562584220405,6.0" fill="rgba(0, 0, 0, 0.0)" stroke="rgba(35, 45, 67, 1.0)" stroke-width="2.0" /><polygon points="105.65509926170151,35.0 105.65509926170151,93.0 55.425625842204056,122.0 5.196152422706611,93.0 5.196152422706618,34.99999999999999 55.42562584220405,6.0" fill="rgba(0, 0, 0, 0.0)" stroke="rgba(0, 0, 0, 0.0)" stroke-width="6.0" /><polygon points="161.08072510390556,131.0 161.08072510390556,189.0 110.85125168440811,218.0 60.62177826491067,189.0 60.621778264910674,131.0 110.8512516844081,102.0" fill="rgba(0, 0, 0, 0.0)" stroke="rgba(35, 45, 67, 1.0)" stroke-width="2.0" /><polygon points="161.08072510390556,131.0 161.08072510390556,189.0 110.85125168440811,218.0 60.62177826491067,189.0 60.621778264910674,131.0 110.8512516844081,102.0" fill="rgba(0, 0, 0, 0.0)" stroke="rgba(0, 0, 0, 0.0)" stroke-width="6.0" /><polygon points="216.50635094610965,227.0 216.50635094610965,285.0 166.2768775266122,314.0 116.04740410711474,285.0 116.04740410711476,227.0 166.2768775266122,198.0" fill="rgba(0, 0, 0, 0.0)" stroke="rgba(35, 45, 67, 1.0)" stroke-width="2.0" /><polygon points="216.50635094610965,227.0 216.50635094610965,285.0 166.2768775266122,314.0 116.04740410711474,285.0 116.04740410711476,227.0 166.2768775266122,198.0" fill="rgba(0, 0, 0, 0.0)" stroke="rgba(0, 0, 0, 0.0)" stroke-width="6.0" /><polygon points="271.9319767883137,323.0 271.9319767883137,381.0 221.70250336881628,410.0 171.47302994931883,381.0 171.47302994931886,323.0 221.70250336881628,294.0" fill="rgba(0, 0, 0, 0.0)" stroke="rgba(35, 45, 67, 1.0)" stroke-width="2.0" /><polygon points="271.9319767883137,323.0 271.9319767883137,381.0 221.70250336881628,410.0 171.47302994931883,381.0 171.47302994931886,323.0 221.70250336881628,294.0" fill="rgba(0, 0, 0, 0.0)" stroke="rgba(0, 0, 0, 0.0)" stroke-width="6.0" /><polygon points="327.35760263051776,419.0 327.35760263051776,477.0 277.12812921102034,506.0 226.89865579152288,477.0 226.8986557915229,419.0 277.12812921102034,390.0" fill="rgba(0, 0, 0, 0.0)" stroke="rgba(35, 45, 67, 1.0)" stroke-width="2.0" /><polygon points="327.35760263051776,419.0 327.35760263051776,477.0 277.12812921102034,506.0 226.89865579152288,477.0 226.8986557915229,419.0 277.12812921102034,390.0" fill="rgba(0, 0, 0, 0.0)" stroke="rgba(0, 0, 0, 0.0)" stroke-width="6.0" /><polygon points="382.7832284727219,515.0 382.7832284727219,573.0 332.55375505322445,602.0 282.324281633727,573.0 282.324281633727,515.0 332.55375505322445,486.0" fill="rgba(0, 0, 0, 0.0)" stroke="rgba(35, 45, 67, 1.0)" stroke-width="2.0" /><polygon points="382.7832284727219,515.0 382.7832284727219,573.0 332.55375505322445,602.0 282.324281633727,573.0 282.324281633727,515.0 332.55375505322445,486.0" fill="rgba(0, 0, 0, 0.0)" stroke="rgba(0, 0, 0, 0.0)" stroke-width="6.0" /><polygon points="438.2088543149259,611.0 438.2088543149259,669.0 387.97938089542845,698.0 337.749907475931,669.0 337.749907475931,611.0 387.97938089542845,582.0" fill="rgba(0, 0, 0, 0.0)" stroke="rgba(35, 45, 67, 1.0)" stroke-width="2.0" /><polygon points="438.2088543149259,611.0 438.2088543149259,669.0 387.97938089542845,698.0 337.749907475931,669.0 337.749907475931,611.0 387.97938089542845,582.0" fill="rgba(0, 0, 0, 0.0)" stroke="rgba(0, 0, 0, 0.0)" stroke-width="6.0" /><polygon points="493.63448015713,707.0 493.63448015713,765.0 443.40500673763256,794.0 393.17553331813514,765.0 393.17553331813514,707.0 443.40500673763256,678.0" fill="rgba(0, 0, 0, 0.0)" stroke="rgba(35, 45, 67, 1.0)" stroke-width="2.0" /><polygon points="493.63448015713,707.0 493.63448015713,765.0 443.40500673763256,794.0 393.17553331813514,765.0 393.17553331813514,707.0 443.40500673763256,678.0" fill="rgba(0, 0, 0, 0.0)" stroke="rgba(0, 0, 0, 0.0)" stroke-width="6.0" /><polygon points="549.0601059993342,803.0 549.0601059993342,861.0 498.8306325798367,890.0 448.60115916033925,861.0 448.60115916033925,803.0 498.8306325798367,774.0" fill="rgba(0, 0, 0, 0.0)" stroke="rgba(35, 45, 67, 1.0)" stroke-width="2.0" /><polygon points="549.0601059993342,803.0 549.0601059993342,861.0 498.8306325798367,890.0 448.60115916033925,861.0 448.60115916033925,803.0 498.8306325798367,774.0" fill="rgba(0, 0, 0, 0.0)" stroke="rgba(0, 0, 0, 0.0)" stroke-width="6.0" /><polygon points="604.4857318415382,899.0 604.4857318415382,957.0 554.2562584220407,986.0 504.02678500254325,957.0 504.02678500254325,899.0 554.2562584220407,870.0" fill="rgba(0, 0, 0, 0.0)" stroke="rgba(35, 45, 67, 1.0)" stroke-width="2.0" /><polygon points="604.4857318415382,899.0 604.4857318415382,957.0 554.2562584220407,986.0 504.02678500254325,957.0 504.02678500254325,899.0 554.2562584220407,870.0" fill="rgba(0, 0, 0, 0.0)" stroke="rgba(0, 0, 0, 0.0)" stroke-width="6.0" /><polygon points="659.9113576837423,995.0 659.9113576837423,1053.0 609.6818842642448,1082.0 559.4524108447473,1053.0 559.4524108447473,995.0 609.6818842642448,966.0" fill="rgba(0, 0, 0, 0.0)" stroke="rgba(35, 45, 67, 1.0)" stroke-width="2.0" /><polygon points="659.9113576837423,995.0 659.9113576837423,1053.0 609.6818842642448,1082.0 559.4524108447473,1053.0 559.4524108447473,995.0 609.6818842642448,966.0" fill="rgba(0, 0, 0, 0.0)" stroke="rgba(0, 0, 0, 0.0)" stroke-width="6.0" /><polygon points="-5.1961524227066676,-349.0 -5.1961524227066676,-291.0 -55.42562584220411,-262.0 -105.65509926170157,-291.0 -105.65509926170155,-349.0 -55.42562584220412,-378.0" fill="rgba(0, 0, 0, 0.0)" stroke="rgba(35, 45, 67, 1.0)" stroke-width="2.0" /><polygon points="-5.1961524227066676,-349.0 -5.1961524227066676,-291.0 -55.42562584220411,-262.0 -105.65509926170157,-291.0 -105.65509926170155,-349.0 -55.42562584220412,-378.0" fill="rgba(0, 0, 0, 0.0)" stroke="rgba(0, 0, 0, 0.0)" stroke-width="6.0" /><polygon points="50.229473419497445,-253.0 50.229473419497445,-195.0 3.5514757175273244E-15,-166.0 -50.229473419497445,-195.0 -50.22947341949744,-253.0 -1.0654427152581972E-14,-282.0" fill="rgba(0, 0, 0, 0.0)" stroke="rgba(35, 45, 67, 1.0)" stroke-width="2.0" /><polygon points="50.229473419497445,-253.0 50.229473419497445,-195.0 3.5514757175273244E-15,-166.0 -50.229473419497445,-195.0 -50.22947341949744,-253.0 -1.0654427152581972E-14,-282.0" fill="rgba(0, 0, 0, 0.0)" stroke="rgba(0, 0, 0, 0.0)" stroke-width="6.0" /><polygon points="105.65509926170151,-157.0 105.65509926170151,-99.0 55.425625842204056,-70.0 5.196152422706611,-99.0 5.196152422706618,-157.0 55.42562584220405,-186.0" fill="rgba(0, 0, 0, 0.0)" stroke="rgba(35, 45, 67, 1.0)" stroke-width="2.0" /><polygon points="105.65509926170151,-157.0 105.65509926170151,-99.0 55.425625842204056,-70.0 5.196152422706611,-99.0 5.196152422706618,-157.0 55.42562584220405,-186.0" fill="rgba(0, 0, 0, 0.0)" stroke="rgba(0, 0, 0, 0.0)" stroke-width="6.0" /><polygon points="161.08072510390556,-61.0 161.08072510390556,-3.0000000000000036 110.85125168440811,26.0 60.62177826491067,-3.0000000000000036 60.621778264910674,-61.00000000000001 110.8512516844081,-90.0" fill="rgba(0, 0, 0, 0.0)" stroke="rgba(35, 45, 67, 1.0)" stroke-width="2.0" /><polygon points="161.08072510390556,-61.0 161.08072510390556,-3.0000000000000036 110.85125168440811,26.0 60.62177826491067,-3.0000000000000036 60.621778264910674,-61.00000000000001 110.8512516844081,-90.0" fill="rgba(0, 0, 0, 0.0)" stroke="rgba(0, 0, 0, 0.0)" stroke-width="6.0" /><polygon points="216.50635094610965,35.0 216.50635094610965,93.0 166.2768775266122,122.0 116.04740410711474,93.0 116.04740410711476,34.99999999999999 166.2768775266122,6.0" fill="rgba(0, 0, 0, 0.0)" stroke="rgba(35, 45, 67, 1.0)" stroke-width="2.0" /><polygon points="216.50635094610965,35.0 216.50635094610965,93.0 166.2768775266122,122.0 116.04740410711474,93.0 116.04740410711476,34.99999999999999 166.2768775266122,6.0" fill="rgba(0, 0, 0, 0.0)" stroke="rgba(0, 0, 0, 0.0)" stroke-width="6.0" /><polygon points="271.9319767883137,131.0 271.9319767883137,189.0 221.70250336881628,218.0 171.47302994931883,189.0 171.47302994931886,131.0 221.70250336881628,102.0" fill="rgba(0, 0, 0, 0.0)" stroke="rgba(35, 45, 67, 1.0)" stroke-width="2.0" /><polygon points="271.9319767883137,131.0 271.9319767883137,189.0 221.70250336881628,218.0 171.47302994931883,189.0 171.47302994931886,131.0 221.70250336881628,102.0" fill="rgba(0, 0, 0, 0.0)" stroke="rgba(0, 0, 0, 0.0)" stroke-width="6.0" /><polygon points="327.35760263051776,227.0 327.35760263051776,285.0 277.12812921102034,314.0 226.89865579152288,285.0 226.8986557915229,227.0 277.12812921102034,198.0" fill="rgba(0, 0, 0, 0.0)" stroke="rgba(35, 45, 67, 1.0)" stroke-width="2.0" /><polygon points="327.35760263051776,227.0 327.35760263051776,285.0 277.12812921102034,314.0 226.89865579152288,285.0 226.8986557915229,227.0 277.12812921102034,198.0" fill="rgba(0, 0, 0, 0.0)" stroke="rgba(0, 0, 0, 0.0)" stroke-width="6.0" /><polygon points="382.7832284727218,323.0 382.7832284727218,381.0 332.5537550532244,410.0 282.32428163372697,381.0 282.32428163372697,323.0 332.5537550532244,294.0" fill="rgba(251, 193, 57, 1.0)" stroke="rgba(35, 45, 67, 1.0)" stroke-width="2.0" /><polygon points="382.7832284727218,323.0 382.7832284727218,381.0 332.5537550532244,410.0 282.32428163372697,381.0 282.32428163372697,323.0 332.5537550532244,294.0" fill="rgba(0, 0, 0, 0.0)" stroke="rgba(0, 0, 0, 0.0)" stroke-width="6.0" /><text fill="rgba(87, 67, 19, 1.0)" font-weight="800" font-family="system-ui, -apple-system, BlinkMacSystemFont, sans-serif" font-size="40.6px" text-anchor="middle" dominant-baseline="middle" x="332.5537550532244" y="352.0">a</text><polygon points="438.2088543149259,419.0 438.2088543149259,477.0 387.97938089542845,506.0 337.749907475931,477.0 337.749907475931,419.0 387.97938089542845,390.0" fill="rgba(56, 189, 248, 1.0)" stroke="rgba(35, 45, 67, 1.0)" stroke-width="2.0" /><polygon points="438.2088543149259,419.0 438.2088543149259,477.0 387.97938089542845,506.0 337.749907475931,477.0 337.749907475931,419.0 387.97938089542845,390.0" fill="rgba(0, 0, 0, 0.0)" stroke="rgba(0, 0, 0, 0.0)" stroke-width="6.0" /><polygon points="493.63448015713,515.0 493.63448015713,573.0 443.40500673763256,602.0 393.17553331813514,573.0 393.17553331813514,515.0 443.40500673763256,486.0" fill="rgba(0, 0, 0, 0.0)" stroke="rgba(35, 45, 67, 1.0)" stroke-width="2.0" /><polygon points="493.63448015713,515.0 493.63448015713,573.0 443.40500673763256,602.0 393.17553331813514,573.0 393.17553331813514,515.0 443.40500673763256,486.0" fill="rgba(0, 0, 0, 0.0)" stroke="rgba(0, 0, 0, 0.0)" stroke-width="6.0" /><polygon points="549.060105999334,611.0 549.060105999334,669.0 498.8306325798366,698.0 448.6011591603392,669.0 448.6011591603392,611.0 498.8306325798366,582.0" fill="rgba(0, 0, 0, 0.0)" stroke="rgba(35, 45, 67, 1.0)" stroke-width="2.0" /><polygon points="549.060105999334,611.0 549.060105999334,669.0 498.8306325798366,698.0 448.6011591603392,669.0 448.6011591603392,611.0 498.8306325798366,582.0" fill="rgba(0, 0, 0, 0.0)" stroke="rgba(0, 0, 0, 0.0)" stroke-width="6.0" /><polygon points="604.4857318415382,707.0 604.4857318415382,765.0 554.2562584220407,794.0 504.02678500254325,765.0 504.02678500254325,707.0 554.2562584220407,678.0" fill="rgba(0, 0, 0, 0.0)" stroke="rgba(35, 45, 67, 1.0)" stroke-width="2.0" /><polygon points="604.4857318415382,707.0 604.4857318415382,765.0 554.2562584220407,794.0 504.02678500254325,765.0 504.02678500254325,707.0 554.2562584220407,678.0" fill="rgba(0, 0, 0, 0.0)" stroke="rgba(0, 0, 0, 0.0)" stroke-width="6.0" /><polygon points="659.9113576837423,803.0 659.9113576837423,861.0 609.6818842642448,890.0 559.4524108447473,861.0 559.4524108447473,803.0 609.6818842642448,774.0" fill="rgba(0, 0, 0, 0.0)" stroke="rgba(35, 45, 67, 1.0)" stroke-width="2.0" /><polygon points="659.9113576837423,803.0 659.9113576837423,861.0 609.6818842642448,890.0 559.4524108447473,861.0 559.4524108447473,803.0 609.6818842642448,774.0" fill="rgba(0, 0, 0, 0.0)" stroke="rgba(0, 0, 0, 0.0)" stroke-width="6.0" /><polygon points="715.3369835259464,899.0 715.3369835259464,957.0 665.1075101064489,986.0 614.8780366869514,957.0 614.8780366869514,899.0 665.1075101064489,870.0" fill="rgba(0, 0, 0, 0.0)" stroke="rgba(35, 45, 67, 1.0)" stroke-width="2.0" /><polygon points="715.3369835259464,899.0 715.3369835259464,957.0 665.1075101064489,986.0 614.8780366869514,957.0 614.8780366869514,899.0 665.1075101064489,870.0" fill="rgba(0, 0, 0, 0.0)" stroke="rgba(0, 0, 0, 0.0)" stroke-width="6.0" /><polygon points="770.7626093681504,995.0 770.7626093681504,1053.0 720.5331359486529,1082.0 670.3036625291554,1053.0 670.3036625291554,995.0 720.5331359486529,966.0" fill="rgba(0, 0, 0, 0.0)" stroke="rgba(35, 45, 67, 1.0)" stroke-width="2.0" /><polygon points="770.7626093681504,995.0 770.7626093681504,1053.0 720.5331359486529,1082.0 670.3036625291554,1053.0 670.3036625291554,995.0 720.5331359486529,966.0" fill="rgba(0, 0, 0, 0.0)" stroke="rgba(0, 0, 0, 0.0)" stroke-width="6.0" /><polygon points="105.65509926170148,-349.0 105.65509926170148,-291.0 55.42562584220403,-262.0 5.196152422706582,-291.0 5.196152422706589,-349.0 55.42562584220402,-378.0" fill="rgba(0, 0, 0, 0.0)" stroke="rgba(35, 45, 67, 1.0)" stroke-width="2.0" /><polygon points="105.65509926170148,-349.0 105.65509926170148,-291.0 55.42562584220403,-262.0 5.196152422706582,-291.0 5.196152422706589,-349.0 55.42562584220402,-378.0" fill="rgba(0, 0, 0, 0.0)" stroke="rgba(0, 0, 0, 0.0)" stroke-width="6.0" /><polygon points="161.0807251039056,-253.0 161.0807251039056,-195.0 110.85125168440814,-166.0 60.621778264910695,-195.0 60.6217782649107,-253.0 110.85125168440813,-282.0" fill="rgba(0, 0, 0, 0.0)" stroke="rgba(35, 45, 67, 1.0)" stroke-width="2.0" /><polygon points="161.0807251039056,-253.0 161.0807251039056,-195.0 110.85125168440814,-166.0 60.621778264910695,-195.0 60.6217782649107,-253.0 110.85125168440813,-282.0" fill="rgba(0, 0, 0, 0.0)" stroke="rgba(0, 0, 0, 0.0)" stroke-width="6.0" /><polygon points="216.50635094610965,-157.0 216.50635094610965,-99.0 166.2768775266122,-70.0 116.04740410711474,-99.0 116.04740410711476,-157.0 166.2768775266122,-186.0" fill="rgba(0, 0, 0, 0.0)" stroke="rgba(35, 45, 67, 1.0)" stroke-width="2.0" /><polygon points="216.50635094610965,-157.0 216.50635094610965,-99.0 166.2768775266122,-70.0 116.04740410711474,-99.0 116.04740410711476,-157.0 166.2768775266122,-186.0" fill="rgba(0, 0, 0, 0.0)" stroke="rgba(0, 0, 0, 0.0)" stroke-width="6.0" /><polygon points="271.9319767883137,-61.0 271.9319767883137,-3.0000000000000036 221.70250336881625,26.0 171.4730299493188,-3.0000000000000036 171.4730299493188,-61.00000000000001 221.70250336881625,-90.0" fill="rgba(0, 0, 0, 0.0)" stroke="rgba(35, 45, 67, 1.0)" stroke-width="2.0" /><polygon points="271.9319767883137,-61.0 271.9319767883137,-3.0000000000000036 221.70250336881625,26.0 171.4730299493188,-3.0000000000000036 171.4730299493188,-61.00000000000001 221.70250336881625,-90.0" fill="rgba(0, 0, 0, 0.0)" stroke="rgba(0, 0, 0, 0.0)" stroke-width="6.0" /><polygon points="327.35760263051776,35.0 327.35760263051776,93.0 277.12812921102034,122.0 226.89865579152288,93.0 226.8986557915229,34.99999999999999 277.12812921102034,6.0" fill="rgba(0, 0, 0, 0.0)" stroke="rgba(35, 45, 67, 1.0)" stroke-width="2.0" /><polygon points="327.35760263051776,35.0 327.35760263051776,93.0 277.12812921102034,122.0 226.89865579152288,93.0 226.8986557915229,34.99999999999999 277.12812921102034,6.0" fill="rgba(0, 0, 0, 0.0)" stroke="rgba(0, 0, 0, 0.0)" stroke-width="6.0" /><polygon points="382.7832284727218,131.0 382.7832284727218,189.0 332.5537550532244,218.0 282.32428163372697,189.0 282.32428163372697,131.0 332.5537550532244,102.0" fill="rgba(0, 0, 0, 0.0)" stroke="rgba(35, 45, 67, 1.0)" stroke-width="2.0" /><polygon points="382.7832284727218,131.0 382.7832284727218,189.0 332.5537550532244,218.0 282.32428163372697,189.0 282.32428163372697,131.0 332.5537550532244,102.0" fill="rgba(0, 0, 0, 0.0)" stroke="rgba(0, 0, 0, 0.0)" stroke-width="6.0" /><polygon points="438.2088543149259,227.0 438.2088543149259,285.0 387.97938089542845,314.0 337.749907475931,285.0 337.749907475931,227.0 387.97938089542845,198.0" fill="rgba(0, 0, 0, 0.0)" stroke="rgba(35, 45, 67, 1.0)" stroke-width="2.0" /><polygon points="438.2088543149259,227.0 438.2088543149259,285.0 387.97938089542845,314.0 337.749907475931,285.0 337.749907475931,227.0 387.97938089542845,198.0" fill="rgba(0, 0, 0, 0.0)" stroke="rgba(0, 0, 0, 0.0)" stroke-width="6.0" /><polygon points="493.63448015713,323.0 493.63448015713,381.0 443.40500673763256,410.0 393.17553331813514,381.0 393.17553331813514,323.0 443.40500673763256,294.0" fill="rgba(0, 0, 0, 0.0)" stroke="rgba(35, 45, 67, 1.0)" stroke-width="2.0" /><polygon points="493.63448015713,323.0 493.63448015713,381.0 443.40500673763256,410.0 393.17553331813514,381.0 393.17553331813514,323.0 443.40500673763256,294.0" fill="rgba(0, 0, 0, 0.0)" stroke="rgba(0, 0, 0, 0.0)" stroke-width="6.0" /><polygon points="549.060105999334,419.0 549.060105999334,477.0 498.8306325798366,506.0 448.6011591603392,477.0 448.6011591603392,419.0 498.8306325798366,390.0" fill="rgba(0, 0, 0, 0.0)" stroke="rgba(35, 45, 67, 1.0)" stroke-width="2.0" /><polygon points="549.060105999334,419.0 549.060105999334,477.0 498.8306325798366,506.0 448.6011591603392,477.0 448.6011591603392,419.0 498.8306325798366,390.0" fill="rgba(0, 0, 0, 0.0)" stroke="rgba(0, 0, 0, 0.0)" stroke-width="6.0" /><polygon points="604.4857318415382,515.0 604.4857318415382,573.0 554.2562584220407,602.0 504.02678500254325,573.0 504.02678500254325,515.0 554.2562584220407,486.0" fill="rgba(0, 0, 0, 0.0)" stroke="rgba(35, 45, 67, 1.0)" stroke-width="2.0" /><polygon points="604.4857318415382,515.0 604.4857318415382,573.0 554.2562584220407,602.0 504.02678500254325,573.0 504.02678500254325,515.0 554.2562584220407,486.0" fill="rgba(0, 0, 0, 0.0)" stroke="rgba(0, 0, 0, 0.0)" stroke-width="6.0" /><polygon points="659.9113576837423,611.0 659.9113576837423,669.0 609.6818842642448,698.0 559.4524108447473,669.0 559.4524108447473,611.0 609.6818842642448,582.0" fill="rgba(0, 0, 0, 0.0)" stroke="rgba(35, 45, 67, 1.0)" stroke-width="2.0" /><polygon points="659.9113576837423,611.0 659.9113576837423,669.0 609.6818842642448,698.0 559.4524108447473,669.0 559.4524108447473,611.0 609.6818842642448,582.0" fill="rgba(0, 0, 0, 0.0)" stroke="rgba(0, 0, 0, 0.0)" stroke-width="6.0" /><polygon points="715.3369835259463,707.0 715.3369835259463,765.0 665.1075101064488,794.0 614.8780366869513,765.0 614.8780366869513,707.0 665.1075101064488,678.0" fill="rgba(0, 0, 0, 0.0)" stroke="rgba(35, 45, 67, 1.0)" stroke-width="2.0" /><polygon points="715.3369835259463,707.0 715.3369835259463,765.0 665.1075101064488,794.0 614.8780366869513,765.0 614.8780366869513,707.0 665.1075101064488,678.0" fill="rgba(0, 0, 0, 0.0)" stroke="rgba(0, 0, 0, 0.0)" stroke-width="6.0" /><polygon points="770.7626093681504,803.0 770.7626093681504,861.0 720.5331359486529,890.0 670.3036625291554,861.0 670.3036625291554,803.0 720.5331359486529,774.0" fill="rgba(0, 0, 0, 0.0)" stroke="rgba(35, 45, 67, 1.0)" stroke-width="2.0" /><polygon points="770.7626093681504,803.0 770.7626093681504,861.0 720.5331359486529,890.0 670.3036625291554,861.0 670.3036625291554,803.0 720.5331359486529,774.0" fill="rgba(0, 0, 0, 0.0)" stroke="rgba(0, 0, 0, 0.0)" stroke-width="6.0" /><polygon points="826.1882352103545,899.0 826.1882352103545,957.0 775.958761790857,986.0 725.7292883713595,957.0 725.7292883713595,899.0 775.958761790857,870.0" fill="rgba(0, 0, 0, 0.0)" stroke="rgba(35, 45, 67, 1.0)" stroke-width="2.0" /><polygon points="826.1882352103545,899.0 826.1882352103545,957.0 775.958761790857,986.0 725.7292883713595,957.0 725.7292883713595,899.0 775.958761790857,870.0" fill="rgba(0, 0, 0, 0.0)" stroke="rgba(0, 0, 0, 0.0)" stroke-width="6.0" /><polygon points="216.50635094610962,-349.0 216.50635094610962,-291.0 166.27687752661217,-262.0 116.04740410711472,-291.0 116.04740410711473,-349.0 166.27687752661217,-378.0" fill="rgba(0, 0, 0, 0.0)" stroke="rgba(35, 45, 67, 1.0)" stroke-width="2.0" /><polygon points="216.50635094610962,-349.0 216.50635094610962,-291.0 166.27687752661217,-262.0 116.04740410711472,-291.0 116.04740410711473,-349.0 166.27687752661217,-378.0" fill="rgba(0, 0, 0, 0.0)" stroke="rgba(0, 0, 0, 0.0)" stroke-width="6.0" /><polygon points="271.9319767883137,-253.0 271.9319767883137,-195.0 221.70250336881628,-166.0 171.47302994931883,-195.0 171.47302994931886,-253.0 221.70250336881628,-282.0" fill="rgba(0, 0, 0, 0.0)" stroke="rgba(35, 45, 67, 1.0)" stroke-width="2.0" /><polygon points="271.9319767883137,-253.0 271.9319767883137,-195.0 221.70250336881628,-166.0 171.47302994931883,-195.0 171.47302994931886,-253.0 221.70250336881628,-282.0" fill="rgba(0, 0, 0, 0.0)" stroke="rgba(0, 0, 0, 0.0)" stroke-width="6.0" /><polygon points="327.35760263051776,-157.0 327.35760263051776,-99.0 277.12812921102034,-70.0 226.89865579152288,-99.0 226.8986557915229,-157.0 277.12812921102034,-186.0" fill="rgba(0, 0, 0, 0.0)" stroke="rgba(35, 45, 67, 1.0)" stroke-width="2.0" /><polygon points="327.35760263051776,-157.0 327.35760263051776,-99.0 277.12812921102034,-70.0 226.89865579152288,-99.0 226.8986557915229,-157.0 277.12812921102034,-186.0" fill="rgba(0, 0, 0, 0.0)" stroke="rgba(0, 0, 0, 0.0)" stroke-width="6.0" /><polygon points="382.7832284727218,-61.0 382.7832284727218,-3.0000000000000036 332.5537550532244,26.0 282.32428163372697,-3.0000000000000036 282.32428163372697,-61.00000000000001 332.5537550532244,-90.0" fill="rgba(0, 0, 0, 0.0)" stroke="rgba(35, 45, 67, 1.0)" stroke-width="2.0" /><polygon points="382.7832284727218,-61.0 382.7832284727218,-3.0000000000000036 332.5537550532244,26.0 282.32428163372697,-3.0000000000000036 282.32428163372697,-61.00000000000001 332.5537550532244,-90.0" fill="rgba(0, 0, 0, 0.0)" stroke="rgba(0, 0, 0, 0.0)" stroke-width="6.0" /><polygon points="438.2088543149259,35.0 438.2088543149259,93.0 387.97938089542845,122.0 337.749907475931,93.0 337.749907475931,34.99999999999999 387.97938089542845,6.0" fill="rgba(0, 0, 0, 0.0)" stroke="rgba(35, 45, 67, 1.0)" stroke-width="2.0" /><polygon points="438.2088543149259,35.0 438.2088543149259,93.0 387.97938089542845,122.0 337.749907475931,93.0 337.749907475931,34.99999999999999 387.97938089542845,6.0" fill="rgba(0, 0, 0, 0.0)" stroke="rgba(0, 0, 0, 0.0)" stroke-width="6.0" /><polygon points="493.63448015713,131.0 493.63448015713,189.0 443.40500673763256,218.0 393.17553331813514,189.0 393.17553331813514,131.0 443.40500673763256,102.0" fill="rgba(0, 0, 0, 0.0)" stroke="rgba(35, 45, 67, 1.0)" stroke-width="2.0" /><polygon points="493.63448015713,131.0 493.63448015713,189.0 443.40500673763256,218.0 393.17553331813514,189.0 393.17553331813514,131.0 443.40500673763256,102.0" fill="rgba(0, 0, 0, 0.0)" stroke="rgba(0, 0, 0, 0.0)" stroke-width="6.0" /><polygon points="549.060105999334,227.0 549.060105999334,285.0 498.8306325798366,314.0 448.6011591603392,285.0 448.6011591603392,227.0 498.8306325798366,198.0" fill="rgba(0, 0, 0, 0.0)" stroke="rgba(35, 45, 67, 1.0)" stroke-width="2.0" /><polygon points="549.060105999334,227.0 549.060105999334,285.0 498.8306325798366,314.0 448.6011591603392,285.0 448.6011591603392,227.0 498.8306325798366,198.0" fill="rgba(0, 0, 0, 0.0)" stroke="rgba(0, 0, 0, 0.0)" stroke-width="6.0" /><polygon points="604.4857318415382,323.0 604.4857318415382,381.0 554.2562584220407,410.0 504.02678500254325,381.0 504.02678500254325,323.0 554.2562584220407,294.0" fill="rgba(0, 0, 0, 0.0)" stroke="rgba(35, 45, 67, 1.0)" stroke-width="2.0" /><polygon points="604.4857318415382,323.0 604.4857318415382,381.0 554.2562584220407,410.0 504.02678500254325,381.0 504.02678500254325,323.0 554.2562584220407,294.0" fill="rgba(0, 0, 0, 0.0)" stroke="rgba(0, 0, 0, 0.0)" stroke-width="6.0" /><polygon points="659.9113576837423,419.0 659.9113576837423,477.0 609.6818842642448,506.0 559.4524108447473,477.0 559.4524108447473,419.0 609.6818842642448,390.0" fill="rgba(0, 0, 0, 0.0)" stroke="rgba(35, 45, 67, 1.0)" stroke-width="2.0" /><polygon points="659.9113576837423,419.0 659.9113576837423,477.0 609.6818842642448,506.0 559.4524108447473,477.0 559.4524108447473,419.0 609.6818842642448,390.0" fill="rgba(0, 0, 0, 0.0)" stroke="rgba(0, 0, 0, 0.0)" stroke-width="6.0" /><polygon points="715.3369835259464,515.0 715.3369835259464,573.0 665.1075101064489,602.0 614.8780366869514,573.0 614.8780366869514,515.0 665.1075101064489,486.0" fill="rgba(0, 0, 0, 0.0)" stroke="rgba(35, 45, 67, 1.0)" stroke-width="2.0" /><polygon points="715.3369835259464,515.0 715.3369835259464,573.0 665.1075101064489,602.0 614.8780366869514,573.0 614.8780366869514,515.0 665.1075101064489,486.0" fill="rgba(0, 0, 0, 0.0)" stroke="rgba(0, 0, 0, 0.0)" stroke-width="6.0" /><polygon points="770.7626093681504,611.0 770.7626093681504,669.0 720.5331359486529,698.0 670.3036625291554,669.0 670.3036625291554,611.0 720.5331359486529,582.0" fill="rgba(0, 0, 0, 0.0)" stroke="rgba(35, 45, 67, 1.0)" stroke-width="2.0" /><polygon points="770.7626093681504,611.0 770.7626093681504,669.0 720.5331359486529,698.0 670.3036625291554,669.0 670.3036625291554,611.0 720.5331359486529,582.0" fill="rgba(0, 0, 0, 0.0)" stroke="rgba(0, 0, 0, 0.0)" stroke-width="6.0" /><polygon points="826.1882352103544,707.0 826.1882352103544,765.0 775.9587617908569,794.0 725.7292883713594,765.0 725.7292883713594,707.0 775.9587617908569,678.0" fill="rgba(0, 0, 0, 0.0)" stroke="rgba(35, 45, 67, 1.0)" stroke-width="2.0" /><polygon points="826.1882352103544,707.0 826.1882352103544,765.0 775.9587617908569,794.0 725.7292883713594,765.0 725.7292883713594,707.0 775.9587617908569,678.0" fill="rgba(0, 0, 0, 0.0)" stroke="rgba(0, 0, 0, 0.0)" stroke-width="6.0" /><polygon points="881.6138610525585,803.0 881.6138610525585,861.0 831.384387633061,890.0 781.1549142135635,861.0 781.1549142135635,803.0 831.384387633061,774.0" fill="rgba(0, 0, 0, 0.0)" stroke="rgba(35, 45, 67, 1.0)" stroke-width="2.0" /><polygon points="881.6138610525585,803.0 881.6138610525585,861.0 831.384387633061,890.0 781.1549142135635,861.0 781.1549142135635,803.0 831.384387633061,774.0" fill="rgba(0, 0, 0, 0.0)" stroke="rgba(0, 0, 0, 0.0)" stroke-width="6.0" /><polygon points="327.35760263051776,-349.0 327.35760263051776,-291.0 277.12812921102034,-262.0 226.89865579152288,-291.0 226.8986557915229,-349.0 277.12812921102034,-378.0" fill="rgba(0, 0, 0, 0.0)" stroke="rgba(35, 45, 67, 1.0)" stroke-width="2.0" /><polygon points="327.35760263051776,-349.0 327.35760263051776,-291.0 277.12812921102034,-262.0 226.89865579152288,-291.0 226.8986557915229,-349.0 277.12812921102034,-378.0" fill="rgba(0, 0, 0, 0.0)" stroke="rgba(0, 0, 0, 0.0)" stroke-width="6.0" /><polygon points="382.7832284727219,-253.0 382.7832284727219,-195.0 332.55375505322445,-166.0 282.324281633727,-195.0 282.324281633727,-253.0 332.55375505322445,-282.0" fill="rgba(0, 0, 0, 0.0)" stroke="rgba(35, 45, 67, 1.0)" stroke-width="2.0" /><polygon points="382.7832284727219,-253.0 382.7832284727219,-195.0 332.55375505322445,-166.0 282.324281633727,-195.0 282.324281633727,-253.0 332.55375505322445,-282.0" fill="rgba(0, 0, 0, 0.0)" stroke="rgba(0, 0, 0, 0.0)" stroke-width="6.0" /><polygon points="438.20885431492593,-157.0 438.20885431492593,-99.0 387.9793808954285,-70.0 337.7499074759311,-99.0 337.7499074759311,-157.0 387.9793808954285,-186.0" fill="rgba(0, 0, 0, 0.0)" stroke="rgba(35, 45, 67, 1.0)" stroke-width="2.0" /><polygon points="438.20885431492593,-157.0 438.20885431492593,-99.0 387.9793808954285,-70.0 337.7499074759311,-99.0 337.7499074759311,-157.0 387.9793808954285,-186.0" fill="rgba(0, 0, 0, 0.0)" stroke="rgba(0, 0, 0, 0.0)" stroke-width="6.0" /><polygon points="493.63448015713,-61.0 493.63448015713,-3.0000000000000036 443.40500673763256,26.0 393.17553331813514,-3.0000000000000036 393.17553331813514,-61.00000000000001 443.40500673763256,-90.0" fill="rgba(0, 0, 0, 0.0)" stroke="rgba(35, 45, 67, 1.0)" stroke-width="2.0" /><polygon points="493.63448015713,-61.0 493.63448015713,-3.0000000000000036 443.40500673763256,26.0 393.17553331813514,-3.0000000000000036 393.17553331813514,-61.00000000000001 443.40500673763256,-90.0" fill="rgba(0, 0, 0, 0.0)" stroke="rgba(0, 0, 0, 0.0)" stroke-width="6.0" /><polygon points="549.0601059993342,35.0 549.0601059993342,93.0 498.8306325798367,122.0 448.60115916033925,93.0 448.60115916033925,34.99999999999999 498.8306325798367,6.0" fill="rgba(0, 0, 0, 0.0)" stroke="rgba(35, 45, 67, 1.0)" stroke-width="2.0" /><polygon points="549.0601059993342,35.0 549.0601059993342,93.0 498.8306325798367,122.0 448.60115916033925,93.0 448.60115916033925,34.99999999999999 498.8306325798367,6.0" fill="rgba(0, 0, 0, 0.0)" stroke="rgba(0, 0, 0, 0.0)" stroke-width="6.0" /><polygon points="604.4857318415382,131.0 604.4857318415382,189.0 554.2562584220407,218.0 504.02678500254325,189.0 504.02678500254325,131.0 554.2562584220407,102.0" fill="rgba(0, 0, 0, 0.0)" stroke="rgba(35, 45, 67, 1.0)" stroke-width="2.0" /><polygon points="604.4857318415382,131.0 604.4857318415382,189.0 554.2562584220407,218.0 504.02678500254325,189.0 504.02678500254325,131.0 554.2562584220407,102.0" fill="rgba(0, 0, 0, 0.0)" stroke="rgba(0, 0, 0, 0.0)" stroke-width="6.0" /><polygon points="659.9113576837423,227.0 659.9113576837423,285.0 609.6818842642448,314.0 559.4524108447473,285.0 559.4524108447473,227.0 609.6818842642448,198.0" fill="rgba(0, 0, 0, 0.0)" stroke="rgba(35, 45, 67, 1.0)" stroke-width="2.0" /><polygon points="659.9113576837423,227.0 659.9113576837423,285.0 609.6818842642448,314.0 559.4524108447473,285.0 559.4524108447473,227.0 609.6818842642448,198.0" fill="rgba(0, 0, 0, 0.0)" stroke="rgba(0, 0, 0, 0.0)" stroke-width="6.0" /><polygon points="715.3369835259464,323.0 715.3369835259464,381.0 665.1075101064489,410.0 614.8780366869514,381.0 614.8780366869514,323.0 665.1075101064489,294.0" fill="rgba(0, 0, 0, 0.0)" stroke="rgba(35, 45, 67, 1.0)" stroke-width="2.0" /><polygon points="715.3369835259464,323.0 715.3369835259464,381.0 665.1075101064489,410.0 614.8780366869514,381.0 614.8780366869514,323.0 665.1075101064489,294.0" fill="rgba(0, 0, 0, 0.0)" stroke="rgba(0, 0, 0, 0.0)" stroke-width="6.0" /><polygon points="770.7626093681504,419.0 770.7626093681504,477.0 720.5331359486529,506.0 670.3036625291554,477.0 670.3036625291554,419.0 720.5331359486529,390.0" fill="rgba(0, 0, 0, 0.0)" stroke="rgba(35, 45, 67, 1.0)" stroke-width="2.0" /><polygon points="770.7626093681504,419.0 770.7626093681504,477.0 720.5331359486529,506.0 670.3036625291554,477.0 670.3036625291554,419.0 720.5331359486529,390.0" fill="rgba(0, 0, 0, 0.0)" stroke="rgba(0, 0, 0, 0.0)" stroke-width="6.0" /><polygon points="826.1882352103545,515.0 826.1882352103545,573.0 775.958761790857,602.0 725.7292883713595,573.0 725.7292883713595,515.0 775.958761790857,486.0" fill="rgba(0, 0, 0, 0.0)" stroke="rgba(35, 45, 67, 1.0)" stroke-width="2.0" /><polygon points="826.1882352103545,515.0 826.1882352103545,573.0 775.958761790857,602.0 725.7292883713595,573.0 725.7292883713595,515.0 775.958761790857,486.0" fill="rgba(0, 0, 0, 0.0)" stroke="rgba(0, 0, 0, 0.0)" stroke-width="6.0" /><polygon points="881.6138610525585,611.0 881.6138610525585,669.0 831.384387633061,698.0 781.1549142135635,669.0 781.1549142135635,611.0 831.384387633061,582.0" fill="rgba(0, 0, 0, 0.0)" stroke="rgba(35, 45, 67, 1.0)" stroke-width="2.0" /><polygon points="881.6138610525585,611.0 881.6138610525585,669.0 831.384387633061,698.0 781.1549142135635,669.0 781.1549142135635,611.0 831.384387633061,582.0" fill="rgba(0, 0, 0, 0.0)" stroke="rgba(0, 0, 0, 0.0)" stroke-width="6.0" /><polygon points="937.0394868947626,707.0 937.0394868947626,765.0 886.8100134752651,794.0 836.5805400557676,765.0 836.5805400557676,707.0 886.8100134752651,678.0" fill="rgba(0, 0, 0, 0.0)" stroke="rgba(35, 45, 67, 1.0)" stroke-width="2.0" /><polygon points="937.0394868947626,707.0 937.0394868947626,765.0 886.8100134752651,794.0 836.5805400557676,765.0 836.5805400557676,707.0 886.8100134752651,678.0" fill="rgba(0, 0, 0, 0.0)" stroke="rgba(0, 0, 0, 0.0)" stroke-width="6.0" /><polygon points="438.2088543149259,-349.0 438.2088543149259,-291.0 387.97938089542845,-262.0 337.749907475931,-291.0 337.749907475931,-349.0 387.97938089542845,-378.0" fill="rgba(0, 0, 0, 0.0)" stroke="rgba(35, 45, 67, 1.0)" stroke-width="2.0" /><polygon points="438.2088543149259,-349.0 438.2088543149259,-291.0 387.97938089542845,-262.0 337.749907475931,-291.0 337.749907475931,-349.0 387.97938089542845,-378.0" fill="rgba(0, 0, 0, 0.0)" stroke="rgba(0, 0, 0, 0.0)" stroke-width="6.0" /><polygon points="493.63448015713,-253.0 493.63448015713,-195.0 443.40500673763256,-166.0 393.17553331813514,-195.0 393.17553331813514,-253.0 443.40500673763256,-282.0" fill="rgba(0, 0, 0, 0.0)" stroke="rgba(35, 45, 67, 1.0)" stroke-width="2.0" /><polygon points="493.63448015713,-253.0 493.63448015713,-195.0 443.40500673763256,-166.0 393.17553331813514,-195.0 393.17553331813514,-253.0 443.40500673763256,-282.0" fill="rgba(0, 0, 0, 0.0)" stroke="rgba(0, 0, 0, 0.0)" stroke-width="6.0" /><polygon points="549.060105999334,-157.0 549.060105999334,-99.0 498.8306325798366,-70.0 448.6011591603392,-99.0 448.6011591603392,-157.0 498.8306325798366,-186.0" fill="rgba(0, 0, 0, 0.0)" stroke="rgba(35, 45, 67, 1.0)" stroke-width="2.0" /><polygon points="549.060105999334,-157.0 549.060105999334,-99.0 498.8306325798366,-70.0 448.6011591603392,-99.0 448.6011591603392,-157.0 498.8306325798366,-186.0" fill="rgba(0, 0, 0, 0.0)" stroke="rgba(0, 0, 0, 0.0)" stroke-width="6.0" /><polygon points="604.4857318415382,-61.0 604.4857318415382,-3.0000000000000036 554.2562584220407,26.0 504.02678500254325,-3.0000000000000036 504.02678500254325,-61.00000000000001 554.2562584220407,-90.0" fill="rgba(0, 0, 0, 0.0)" stroke="rgba(35, 45, 67, 1.0)" stroke-width="2.0" /><polygon points="604.4857318415382,-61.0 604.4857318415382,-3.0000000000000036 554.2562584220407,26.0 504.02678500254325,-3.0000000000000036 504.02678500254325,-61.00000000000001 554.2562584220407,-90.0" fill="rgba(0, 0, 0, 0.0)" stroke="rgba(0, 0, 0, 0.0)" stroke-width="6.0" /><polygon points="659.9113576837423,35.0 659.9113576837423,93.0 609.6818842642448,122.0 559.4524108447473,93.0 559.4524108447473,34.99999999999999 609.6818842642448,6.0" fill="rgba(0, 0, 0, 0.0)" stroke="rgba(35, 45, 67, 1.0)" stroke-width="2.0" /><polygon points="659.9113576837423,35.0 659.9113576837423,93.0 609.6818842642448,122.0 559.4524108447473,93.0 559.4524108447473,34.99999999999999 609.6818842642448,6.0" fill="rgba(0, 0, 0, 0.0)" stroke="rgba(0, 0, 0, 0.0)" stroke-width="6.0" /><polygon points="715.3369835259464,131.0 715.3369835259464,189.0 665.1075101064489,218.0 614.8780366869514,189.0 614.8780366869514,131.0 665.1075101064489,102.0" fill="rgba(0, 0, 0, 0.0)" stroke="rgba(35, 45, 67, 1.0)" stroke-width="2.0" /><polygon points="715.3369835259464,131.0 715.3369835259464,189.0 665.1075101064489,218.0 614.8780366869514,189.0 614.8780366869514,131.0 665.1075101064489,102.0" fill="rgba(0, 0, 0, 0.0)" stroke="rgba(0, 0, 0, 0.0)" stroke-width="6.0" /><polygon points="770.7626093681504,227.0 770.7626093681504,285.0 720.5331359486529,314.0 670.3036625291554,285.0 670.3036625291554,227.0 720.5331359486529,198.0" fill="rgba(0, 0, 0, 0.0)" stroke="rgba(35, 45, 67, 1.0)" stroke-width="2.0" /><polygon points="770.7626093681504,227.0 770.7626093681504,285.0 720.5331359486529,314.0 670.3036625291554,285.0 670.3036625291554,227.0 720.5331359486529,198.0" fill="rgba(0, 0, 0, 0.0)" stroke="rgba(0, 0, 0, 0.0)" stroke-width="6.0" /><polygon points="826.1882352103544,323.0 826.1882352103544,381.0 775.9587617908569,410.0 725.7292883713594,381.0 725.7292883713594,323.0 775.9587617908569,294.0" fill="rgba(0, 0, 0, 0.0)" stroke="rgba(35, 45, 67, 1.0)" stroke-width="2.0" /><polygon points="826.1882352103544,323.0 826.1882352103544,381.0 775.9587617908569,410.0 725.7292883713594,381.0 725.7292883713594,323.0 775.9587617908569,294.0" fill="rgba(0, 0, 0, 0.0)" stroke="rgba(0, 0, 0, 0.0)" stroke-width="6.0" /><polygon points="881.6138610525585,419.0 881.6138610525585,477.0 831.384387633061,506.0 781.1549142135635,477.0 781.1549142135635,419.0 831.384387633061,390.0" fill="rgba(0, 0, 0, 0.0)" stroke="rgba(35, 45, 67, 1.0)" stroke-width="2.0" /><polygon points="881.6138610525585,419.0 881.6138610525585,477.0 831.384387633061,506.0 781.1549142135635,477.0 781.1549142135635,419.0 831.384387633061,390.0" fill="rgba(0, 0, 0, 0.0)" stroke="rgba(0, 0, 0, 0.0)" stroke-width="6.0" /><polygon points="937.0394868947626,515.0 937.0394868947626,573.0 886.8100134752651,602.0 836.5805400557676,573.0 836.5805400557676,515.0 886.8100134752651,486.0" fill="rgba(0, 0, 0, 0.0)" stroke="rgba(35, 45, 67, 1.0)" stroke-width="2.0" /><polygon points="937.0394868947626,515.0 937.0394868947626,573.0 886.8100134752651,602.0 836.5805400557676,573.0 836.5805400557676,515.0 886.8100134752651,486.0" fill="rgba(0, 0, 0, 0.0)" stroke="rgba(0, 0, 0, 0.0)" stroke-width="6.0" /><polygon points="992.4651127369667,611.0 992.4651127369667,669.0 942.2356393174692,698.0 892.0061658979718,669.0 892.0061658979718,611.0 942.2356393174692,582.0" fill="rgba(0, 0, 0, 0.0)" stroke="rgba(35, 45, 67, 1.0)" stroke-width="2.0" /><polygon points="992.4651127369667,611.0 992.4651127369667,669.0 942.2356393174692,698.0 892.0061658979718,669.0 892.0061658979718,611.0 942.2356393174692,582.0" fill="rgba(0, 0, 0, 0.0)" stroke="rgba(0, 0, 0, 0.0)" stroke-width="6.0" /><polygon points="549.060105999334,-349.0 549.060105999334,-291.0 498.83063257983656,-262.0 448.60115916033914,-291.0 448.60115916033914,-349.0 498.83063257983656,-378.0" fill="rgba(0, 0, 0, 0.0)" stroke="rgba(35, 45, 67, 1.0)" stroke-width="2.0" /><polygon points="549.060105999334,-349.0 549.060105999334,-291.0 498.83063257983656,-262.0 448.60115916033914,-291.0 448.60115916033914,-349.0 498.83063257983656,-378.0" fill="rgba(0, 0, 0, 0.0)" stroke="rgba(0, 0, 0, 0.0)" stroke-width="6.0" /><polygon points="604.4857318415382,-253.0 604.4857318415382,-195.0 554.2562584220407,-166.0 504.02678500254325,-195.0 504.02678500254325,-253.0 554.2562584220407,-282.0" fill="rgba(0, 0, 0, 0.0)" stroke="rgba(35, 45, 67, 1.0)" stroke-width="2.0" /><polygon points="604.4857318415382,-253.0 604.4857318415382,-195.0 554.2562584220407,-166.0 504.02678500254325,-195.0 504.02678500254325,-253.0 554.2562584220407,-282.0" fill="rgba(0, 0, 0, 0.0)" stroke="rgba(0, 0, 0, 0.0)" stroke-width="6.0" /><polygon points="659.9113576837422,-157.0 659.9113576837422,-99.0 609.6818842642447,-70.0 559.4524108447472,-99.0 559.4524108447472,-157.0 609.6818842642447,-186.0" fill="rgba(0, 0, 0, 0.0)" stroke="rgba(35, 45, 67, 1.0)" stroke-width="2.0" /><polygon points="659.9113576837422,-157.0 659.9113576837422,-99.0 609.6818842642447,-70.0 559.4524108447472,-99.0 559.4524108447472,-157.0 609.6818842642447,-186.0" fill="rgba(0, 0, 0, 0.0)" stroke="rgba(0, 0, 0, 0.0)" stroke-width="6.0" /><polygon points="715.3369835259463,-61.0 715.3369835259463,-3.0000000000000036 665.1075101064488,26.0 614.8780366869513,-3.0000000000000036 614.8780366869513,-61.00000000000001 665.1075101064488,-90.0" fill="rgba(0, 0, 0, 0.0)" stroke="rgba(35, 45, 67, 1.0)" stroke-width="2.0" /><polygon points="715.3369835259463,-61.0 715.3369835259463,-3.0000000000000036 665.1075101064488,26.0 614.8780366869513,-3.0000000000000036 614.8780366869513,-61.00000000000001 665.1075101064488,-90.0" fill="rgba(0, 0, 0, 0.0)" stroke="rgba(0, 0, 0, 0.0)" stroke-width="6.0" /><polygon points="770.7626093681504,35.0 770.7626093681504,93.0 720.5331359486529,122.0 670.3036625291554,93.0 670.3036625291554,34.99999999999999 720.5331359486529,6.0" fill="rgba(0, 0, 0, 0.0)" stroke="rgba(35, 45, 67, 1.0)" stroke-width="2.0" /><polygon points="770.7626093681504,35.0 770.7626093681504,93.0 720.5331359486529,122.0 670.3036625291554,93.0 670.3036625291554,34.99999999999999 720.5331359486529,6.0" fill="rgba(0, 0, 0, 0.0)" stroke="rgba(0, 0, 0, 0.0)" stroke-width="6.0" /><polygon points="826.1882352103544,131.0 826.1882352103544,189.0 775.9587617908569,218.0 725.7292883713594,189.0 725.7292883713594,131.0 775.9587617908569,102.0" fill="rgba(0, 0, 0, 0.0)" stroke="rgba(35, 45, 67, 1.0)" stroke-width="2.0" /><polygon points="826.1882352103544,131.0 826.1882352103544,189.0 775.9587617908569,218.0 725.7292883713594,189.0 725.7292883713594,131.0 775.9587617908569,102.0" fill="rgba(0, 0, 0, 0.0)" stroke="rgba(0, 0, 0, 0.0)" stroke-width="6.0" /><polygon points="881.6138610525585,227.0 881.6138610525585,285.0 831.384387633061,314.0 781.1549142135635,285.0 781.1549142135635,227.0 831.384387633061,198.0" fill="rgba(0, 0, 0, 0.0)" stroke="rgba(35, 45, 67, 1.0)" stroke-width="2.0" /><polygon points="881.6138610525585,227.0 881.6138610525585,285.0 831.384387633061,314.0 781.1549142135635,285.0 781.1549142135635,227.0 831.384387633061,198.0" fill="rgba(0, 0, 0, 0.0)" stroke="rgba(0, 0, 0, 0.0)" stroke-width="6.0" /><polygon points="937.0394868947626,323.0 937.0394868947626,381.0 886.8100134752651,410.0 836.5805400557676,381.0 836.5805400557676,323.0 886.8100134752651,294.0" fill="rgba(0, 0, 0, 0.0)" stroke="rgba(35, 45, 67, 1.0)" stroke-width="2.0" /><polygon points="937.0394868947626,323.0 937.0394868947626,381.0 886.8100134752651,410.0 836.5805400557676,381.0 836.5805400557676,323.0 886.8100134752651,294.0" fill="rgba(0, 0, 0, 0.0)" stroke="rgba(0, 0, 0, 0.0)" stroke-width="6.0" /><polygon points="992.4651127369666,419.0 992.4651127369666,477.0 942.2356393174691,506.0 892.0061658979716,477.0 892.0061658979716,419.0 942.2356393174691,390.0" fill="rgba(0, 0, 0, 0.0)" stroke="rgba(35, 45, 67, 1.0)" stroke-width="2.0" /><polygon points="992.4651127369666,419.0 992.4651127369666,477.0 942.2356393174691,506.0 892.0061658979716,477.0 892.0061658979716,419.0 942.2356393174691,390.0" fill="rgba(0, 0, 0, 0.0)" stroke="rgba(0, 0, 0, 0.0)" stroke-width="6.0" /><polygon points="1047.8907385791706,515.0 1047.8907385791706,573.0 997.6612651596732,602.0 947.4317917401758,573.0 947.4317917401758,515.0 997.6612651596732,486.0" fill="rgba(0, 0, 0, 0.0)" stroke="rgba(35, 45, 67, 1.0)" stroke-width="2.0" /><polygon points="1047.8907385791706,515.0 1047.8907385791706,573.0 997.6612651596732,602.0 947.4317917401758,573.0 947.4317917401758,515.0 997.6612651596732,486.0" fill="rgba(0, 0, 0, 0.0)" stroke="rgba(0, 0, 0, 0.0)" stroke-width="6.0" /><polygon points="659.9113576837423,-349.0 659.9113576837423,-291.0 609.6818842642448,-262.0 559.4524108447473,-291.0 559.4524108447473,-349.0 609.6818842642448,-378.0" fill="rgba(0, 0, 0, 0.0)" stroke="rgba(35, 45, 67, 1.0)" stroke-width="2.0" /><polygon points="659.9113576837423,-349.0 659.9113576837423,-291.0 609.6818842642448,-262.0 559.4524108447473,-291.0 559.4524108447473,-349.0 609.6818842642448,-378.0" fill="rgba(0, 0, 0, 0.0)" stroke="rgba(0, 0, 0, 0.0)" stroke-width="6.0" /><polygon points="715.3369835259464,-253.0 715.3369835259464,-195.0 665.1075101064489,-166.0 614.8780366869514,-195.0 614.8780366869514,-253.0 665.1075101064489,-282.0" fill="rgba(0, 0, 0, 0.0)" stroke="rgba(35, 45, 67, 1.0)" stroke-width="2.0" /><polygon points="715.3369835259464,-253.0 715.3369835259464,-195.0 665.1075101064489,-166.0 614.8780366869514,-195.0 614.8780366869514,-253.0 665.1075101064489,-282.0" fill="rgba(0, 0, 0, 0.0)" stroke="rgba(0, 0, 0, 0.0)" stroke-width="6.0" /><polygon points="770.7626093681504,-157.0 770.7626093681504,-99.0 720.5331359486529,-70.0 670.3036625291554,-99.0 670.3036625291554,-157.0 720.5331359486529,-186.0" fill="rgba(0, 0, 0, 0.0)" stroke="rgba(35, 45, 67, 1.0)" stroke-width="2.0" /><polygon points="770.7626093681504,-157.0 770.7626093681504,-99.0 720.5331359486529,-70.0 670.3036625291554,-99.0 670.3036625291554,-157.0 720.5331359486529,-186.0" fill="rgba(0, 0, 0, 0.0)" stroke="rgba(0, 0, 0, 0.0)" stroke-width="6.0" /><polygon points="826.1882352103545,-61.0 826.1882352103545,-3.0000000000000036 775.958761790857,26.0 725.7292883713595,-3.0000000000000036 725.7292883713595,-61.00000000000001 775.958761790857,-90.0" fill="rgba(0, 0, 0, 0.0)" stroke="rgba(35, 45, 67, 1.0)" stroke-width="2.0" /><polygon points="826.1882352103545,-61.0 826.1882352103545,-3.0000000000000036 775.958761790857,26.0 725.7292883713595,-3.0000000000000036 725.7292883713595,-61.00000000000001 775.958761790857,-90.0" fill="rgba(0, 0, 0, 0.0)" stroke="rgba(0, 0, 0, 0.0)" stroke-width="6.0" /><polygon points="881.6138610525586,35.0 881.6138610525586,93.0 831.3843876330611,122.0 781.1549142135636,93.0 781.1549142135636,34.99999999999999 831.3843876330611,6.0" fill="rgba(0, 0, 0, 0.0)" stroke="rgba(35, 45, 67, 1.0)" stroke-width="2.0" /><polygon points="881.6138610525586,35.0 881.6138610525586,93.0 831.3843876330611,122.0 781.1549142135636,93.0 781.1549142135636,34.99999999999999 831.3843876330611,6.0" fill="rgba(0, 0, 0, 0.0)" stroke="rgba(0, 0, 0, 0.0)" stroke-width="6.0" /><polygon points="937.0394868947626,131.0 937.0394868947626,189.0 886.8100134752651,218.0 836.5805400557676,189.0 836.5805400557676,131.0 886.8100134752651,102.0" fill="rgba(0, 0, 0, 0.0)" stroke="rgba(35, 45, 67, 1.0)" stroke-width="2.0" /><polygon points="937.0394868947626,131.0 937.0394868947626,189.0 886.8100134752651,218.0 836.5805400557676,189.0 836.5805400557676,131.0 886.8100134752651,102.0" fill="rgba(0, 0, 0, 0.0)" stroke="rgba(0, 0, 0, 0.0)" stroke-width="6.0" /><polygon points="992.4651127369667,227.0 992.4651127369667,285.0 942.2356393174692,314.0 892.0061658979718,285.0 892.0061658979718,227.0 942.2356393174692,198.0" fill="rgba(0, 0, 0, 0.0)" stroke="rgba(35, 45, 67, 1.0)" stroke-width="2.0" /><polygon points="992.4651127369667,227.0 992.4651127369667,285.0 942.2356393174692,314.0 892.0061658979718,285.0 892.0061658979718,227.0 942.2356393174692,198.0" fill="rgba(0, 0, 0, 0.0)" stroke="rgba(0, 0, 0, 0.0)" stroke-width="6.0" /><polygon points="1047.8907385791708,323.0 1047.8907385791708,381.0 997.6612651596733,410.0 947.4317917401759,381.0 947.4317917401759,323.0 997.6612651596733,294.0" fill="rgba(0, 0, 0, 0.0)" stroke="rgba(35, 45, 67, 1.0)" stroke-width="2.0" /><polygon points="1047.8907385791708,323.0 1047.8907385791708,381.0 997.6612651596733,410.0 947.4317917401759,381.0 947.4317917401759,323.0 997.6612651596733,294.0" fill="rgba(0, 0, 0, 0.0)" stroke="rgba(0, 0, 0, 0.0)" stroke-width="6.0" /><polygon points="1103.3163644213748,419.0 1103.3163644213748,477.0 1053.0868910018773,506.0 1002.8574175823799,477.0 1002.8574175823799,419.0 1053.0868910018773,390.0" fill="rgba(0, 0, 0, 0.0)" stroke="rgba(35, 45, 67, 1.0)" stroke-width="2.0" /><polygon points="1103.3163644213748,419.0 1103.3163644213748,477.0 1053.0868910018773,506.0 1002.8574175823799,477.0 1002.8574175823799,419.0 1053.0868910018773,390.0" fill="rgba(0, 0, 0, 0.0)" stroke="rgba(0, 0, 0, 0.0)" stroke-width="6.0" /><polygon points="770.7626093681504,-349.0 770.7626093681504,-291.0 720.5331359486529,-262.0 670.3036625291554,-291.0 670.3036625291554,-349.0 720.5331359486529,-378.0" fill="rgba(0, 0, 0, 0.0)" stroke="rgba(35, 45, 67, 1.0)" stroke-width="2.0" /><polygon points="770.7626093681504,-349.0 770.7626093681504,-291.0 720.5331359486529,-262.0 670.3036625291554,-291.0 670.3036625291554,-349.0 720.5331359486529,-378.0" fill="rgba(0, 0, 0, 0.0)" stroke="rgba(0, 0, 0, 0.0)" stroke-width="6.0" /><polygon points="826.1882352103545,-253.0 826.1882352103545,-195.0 775.958761790857,-166.0 725.7292883713595,-195.0 725.7292883713595,-253.0 775.958761790857,-282.0" fill="rgba(0, 0, 0, 0.0)" stroke="rgba(35, 45, 67, 1.0)" stroke-width="2.0" /><polygon points="826.1882352103545,-253.0 826.1882352103545,-195.0 775.958761790857,-166.0 725.7292883713595,-195.0 725.7292883713595,-253.0 775.958761790857,-282.0" fill="rgba(0, 0, 0, 0.0)" stroke="rgba(0, 0, 0, 0.0)" stroke-width="6.0" /><polygon points="881.6138610525585,-157.0 881.6138610525585,-99.0 831.384387633061,-70.0 781.1549142135635,-99.0 781.1549142135635,-157.0 831.384387633061,-186.0" fill="rgba(0, 0, 0, 0.0)" stroke="rgba(35, 45, 67, 1.0)" stroke-width="2.0" /><polygon points="881.6138610525585,-157.0 881.6138610525585,-99.0 831.384387633061,-70.0 781.1549142135635,-99.0 781.1549142135635,-157.0 831.384387633061,-186.0" fill="rgba(0, 0, 0, 0.0)" stroke="rgba(0, 0, 0, 0.0)" stroke-width="6.0" /><polygon points="937.0394868947626,-61.0 937.0394868947626,-3.0000000000000036 886.8100134752651,26.0 836.5805400557676,-3.0000000000000036 836.5805400557676,-61.00000000000001 886.8100134752651,-90.0" fill="rgba(0, 0, 0, 0.0)" stroke="rgba(35, 45, 67, 1.0)" stroke-width="2.0" /><polygon points="937.0394868947626,-61.0 937.0394868947626,-3.0000000000000036 886.8100134752651,26.0 836.5805400557676,-3.0000000000000036 836.5805400557676,-61.00000000000001 886.8100134752651,-90.0" fill="rgba(0, 0, 0, 0.0)" stroke="rgba(0, 0, 0, 0.0)" stroke-width="6.0" /><polygon points="992.4651127369667,35.0 992.4651127369667,93.0 942.2356393174692,122.0 892.0061658979718,93.0 892.0061658979718,34.99999999999999 942.2356393174692,6.0" fill="rgba(0, 0, 0, 0.0)" stroke="rgba(35, 45, 67, 1.0)" stroke-width="2.0" /><polygon points="992.4651127369667,35.0 992.4651127369667,93.0 942.2356393174692,122.0 892.0061658979718,93.0 892.0061658979718,34.99999999999999 942.2356393174692,6.0" fill="rgba(0, 0, 0, 0.0)" stroke="rgba(0, 0, 0, 0.0)" stroke-width="6.0" /><polygon points="1047.8907385791706,131.0 1047.8907385791706,189.0 997.6612651596732,218.0 947.4317917401758,189.0 947.4317917401758,131.0 997.6612651596732,102.0" fill="rgba(0, 0, 0, 0.0)" stroke="rgba(35, 45, 67, 1.0)" stroke-width="2.0" /><polygon points="1047.8907385791706,131.0 1047.8907385791706,189.0 997.6612651596732,218.0 947.4317917401758,189.0 947.4317917401758,131.0 997.6612651596732,102.0" fill="rgba(0, 0, 0, 0.0)" stroke="rgba(0, 0, 0, 0.0)" stroke-width="6.0" /><polygon points="1103.3163644213748,227.0 1103.3163644213748,285.0 1053.0868910018773,314.0 1002.8574175823799,285.0 1002.8574175823799,227.0 1053.0868910018773,198.0" fill="rgba(0, 0, 0, 0.0)" stroke="rgba(35, 45, 67, 1.0)" stroke-width="2.0" /><polygon points="1103.3163644213748,227.0 1103.3163644213748,285.0 1053.0868910018773,314.0 1002.8574175823799,285.0 1002.8574175823799,227.0 1053.0868910018773,198.0" fill="rgba(0, 0, 0, 0.0)" stroke="rgba(0, 0, 0, 0.0)" stroke-width="6.0" /><polygon points="1158.7419902635788,323.0 1158.7419902635788,381.0 1108.5125168440813,410.0 1058.2830434245839,381.0 1058.2830434245839,323.0 1108.5125168440813,294.0" fill="rgba(0, 0, 0, 0.0)" stroke="rgba(35, 45, 67, 1.0)" stroke-width="2.0" /><polygon points="1158.7419902635788,323.0 1158.7419902635788,381.0 1108.5125168440813,410.0 1058.2830434245839,381.0 1058.2830434245839,323.0 1108.5125168440813,294.0" fill="rgba(0, 0, 0, 0.0)" stroke="rgba(0, 0, 0, 0.0)" stroke-width="6.0" /><polygon points="50.22947341949739,1091.0 50.22947341949739,1149.0 -5.329194314328069E-14,1178.0 -50.2294734194975,1149.0 -50.229473419497495,1091.0 -6.749784601338999E-14,1062.0" fill="rgba(0, 0, 0, 0.0)" stroke="rgba(35, 45, 67, 1.0)" stroke-width="2.0" /><polygon points="50.22947341949739,1091.0 50.22947341949739,1149.0 -5.329194314328069E-14,1178.0 -50.2294734194975,1149.0 -50.229473419497495,1091.0 -6.749784601338999E-14,1062.0" fill="rgba(0, 0, 0, 0.0)" stroke="rgba(0, 0, 0, 0.0)" stroke-width="6.0" /><polygon points="161.0807251039055,1091.0 161.0807251039055,1149.0 110.85125168440806,1178.0 60.62177826491061,1149.0 60.62177826491062,1091.0 110.85125168440804,1062.0" fill="rgba(0, 0, 0, 0.0)" stroke="rgba(35, 45, 67, 1.0)" stroke-width="2.0" /><polygon points="161.0807251039055,1091.0 161.0807251039055,1149.0 110.85125168440806,1178.0 60.62177826491061,1149.0 60.62177826491062,1091.0 110.85125168440804,1062.0" fill="rgba(0, 0, 0, 0.0)" stroke="rgba(0, 0, 0, 0.0)" stroke-width="6.0" /><polygon points="271.9319767883137,1091.0 271.9319767883137,1149.0 221.70250336881628,1178.0 171.47302994931883,1149.0 171.47302994931886,1091.0 221.70250336881628,1062.0" fill="rgba(0, 0, 0, 0.0)" stroke="rgba(35, 45, 67, 1.0)" stroke-width="2.0" /><polygon points="271.9319767883137,1091.0 271.9319767883137,1149.0 221.70250336881628,1178.0 171.47302994931883,1149.0 171.47302994931886,1091.0 221.70250336881628,1062.0" fill="rgba(0, 0, 0, 0.0)" stroke="rgba(0, 0, 0, 0.0)" stroke-width="6.0" /><polygon points="382.7832284727218,1091.0 382.7832284727218,1149.0 332.5537550532244,1178.0 282.32428163372697,1149.0 282.32428163372697,1091.0 332.5537550532244,1062.0" fill="rgba(0, 0, 0, 0.0)" stroke="rgba(35, 45, 67, 1.0)" stroke-width="2.0" /><polygon points="382.7832284727218,1091.0 382.7832284727218,1149.0 332.5537550532244,1178.0 282.32428163372697,1149.0 282.32428163372697,1091.0 332.5537550532244,1062.0" fill="rgba(0, 0, 0, 0.0)" stroke="rgba(0, 0, 0, 0.0)" stroke-width="6.0" /><polygon points="493.63448015712993,1091.0 493.63448015712993,1149.0 443.4050067376325,1178.0 393.1755333181351,1149.0 393.1755333181351,1091.0 443.4050067376325,1062.0" fill="rgba(0, 0, 0, 0.0)" stroke="rgba(35, 45, 67, 1.0)" stroke-width="2.0" /><polygon points="493.63448015712993,1091.0 493.63448015712993,1149.0 443.4050067376325,1178.0 393.1755333181351,1149.0 393.1755333181351,1091.0 443.4050067376325,1062.0" fill="rgba(0, 0, 0, 0.0)" stroke="rgba(0, 0, 0, 0.0)" stroke-width="6.0" /><polygon points="604.4857318415382,1091.0 604.4857318415382,1149.0 554.2562584220407,1178.0 504.02678500254325,1149.0 504.02678500254325,1091.0 554.2562584220407,1062.0" fill="rgba(0, 0, 0, 0.0)" stroke="rgba(35, 45, 67, 1.0)" stroke-width="2.0" /><polygon points="604.4857318415382,1091.0 604.4857318415382,1149.0 554.2562584220407,1178.0 504.02678500254325,1149.0 504.02678500254325,1091.0 554.2562584220407,1062.0" fill="rgba(0, 0, 0, 0.0)" stroke="rgba(0, 0, 0, 0.0)" stroke-width="6.0" /><polygon points="715.3369835259463,1091.0 715.3369835259463,1149.0 665.1075101064488,1178.0 614.8780366869513,1149.0 614.8780366869513,1091.0 665.1075101064488,1062.0" fill="rgba(0, 0, 0, 0.0)" stroke="rgba(35, 45, 67, 1.0)" stroke-width="2.0" /><polygon points="715.3369835259463,1091.0 715.3369835259463,1149.0 665.1075101064488,1178.0 614.8780366869513,1149.0 614.8780366869513,1091.0 665.1075101064488,1062.0" fill="rgba(0, 0, 0, 0.0)" stroke="rgba(0, 0, 0, 0.0)" stroke-width="6.0" /><polygon points="826.1882352103544,1091.0 826.1882352103544,1149.0 775.9587617908569,1178.0 725.7292883713594,1149.0 725.7292883713594,1091.0 775.9587617908569,1062.0" fill="rgba(0, 0, 0, 0.0)" stroke="rgba(35, 45, 67, 1.0)" stroke-width="2.0" /><polygon points="826.1882352103544,1091.0 826.1882352103544,1149.0 775.9587617908569,1178.0 725.7292883713594,1149.0 725.7292883713594,1091.0 775.9587617908569,1062.0" fill="rgba(0, 0, 0, 0.0)" stroke="rgba(0, 0, 0, 0.0)" stroke-width="6.0" /><polygon points="881.6138610525585,995.0 881.6138610525585,1053.0 831.384387633061,1082.0 781.1549142135635,1053.0 781.1549142135635,995.0 831.384387633061,966.0" fill="rgba(0, 0, 0, 0.0)" stroke="rgba(35, 45, 67, 1.0)" stroke-width="2.0" /><polygon points="881.6138610525585,995.0 881.6138610525585,1053.0 831.384387633061,1082.0 781.1549142135635,1053.0 781.1549142135635,995.0 831.384387633061,966.0" fill="rgba(0, 0, 0, 0.0)" stroke="rgba(0, 0, 0, 0.0)" stroke-width="6.0" /><polygon points="937.0394868947626,899.0 937.0394868947626,957.0 886.8100134752651,986.0 836.5805400557676,957.0 836.5805400557676,899.0 886.8100134752651,870.0" fill="rgba(0, 0, 0, 0.0)" stroke="rgba(35, 45, 67, 1.0)" stroke-width="2.0" /><polygon points="937.0394868947626,899.0 937.0394868947626,957.0 886.8100134752651,986.0 836.5805400557676,957.0 836.5805400557676,899.0 886.8100134752651,870.0" fill="rgba(0, 0, 0, 0.0)" stroke="rgba(0, 0, 0, 0.0)" stroke-width="6.0" /><polygon points="992.4651127369667,803.0 992.4651127369667,861.0 942.2356393174692,890.0 892.0061658979718,861.0 892.0061658979718,803.0 942.2356393174692,774.0" fill="rgba(0, 0, 0, 0.0)" stroke="rgba(35, 45, 67, 1.0)" stroke-width="2.0" /><polygon points="992.4651127369667,803.0 992.4651127369667,861.0 942.2356393174692,890.0 892.0061658979718,861.0 892.0061658979718,803.0 942.2356393174692,774.0" fill="rgba(0, 0, 0, 0.0)" stroke="rgba(0, 0, 0, 0.0)" stroke-width="6.0" /><polygon points="1047.8907385791706,707.0 1047.8907385791706,765.0 997.6612651596732,794.0 947.4317917401758,765.0 947.4317917401758,707.0 997.6612651596732,678.0" fill="rgba(0, 0, 0, 0.0)" stroke="rgba(35, 45, 67, 1.0)" stroke-width="2.0" /><polygon points="1047.8907385791706,707.0 1047.8907385791706,765.0 997.6612651596732,794.0 947.4317917401758,765.0 947.4317917401758,707.0 997.6612651596732,678.0" fill="rgba(0, 0, 0, 0.0)" stroke="rgba(0, 0, 0, 0.0)" stroke-width="6.0" /><polygon points="1103.3163644213746,611.0 1103.3163644213746,669.0 1053.0868910018771,698.0 1002.8574175823796,669.0 1002.8574175823796,611.0 1053.0868910018771,582.0" fill="rgba(0, 0, 0, 0.0)" stroke="rgba(35, 45, 67, 1.0)" stroke-width="2.0" /><polygon points="1103.3163644213746,611.0 1103.3163644213746,669.0 1053.0868910018771,698.0 1002.8574175823796,669.0 1002.8574175823796,611.0 1053.0868910018771,582.0" fill="rgba(0, 0, 0, 0.0)" stroke="rgba(0, 0, 0, 0.0)" stroke-width="6.0" /><polygon points="1158.7419902635788,515.0 1158.7419902635788,573.0 1108.5125168440813,602.0 1058.2830434245839,573.0 1058.2830434245839,515.0 1108.5125168440813,486.0" fill="rgba(0, 0, 0, 0.0)" stroke="rgba(35, 45, 67, 1.0)" stroke-width="2.0" /><polygon points="1158.7419902635788,515.0 1158.7419902635788,573.0 1108.5125168440813,602.0 1058.2830434245839,573.0 1058.2830434245839,515.0 1108.5125168440813,486.0" fill="rgba(0, 0, 0, 0.0)" stroke="rgba(0, 0, 0, 0.0)" stroke-width="6.0" /><polygon points="1214.167616105783,419.0 1214.167616105783,477.0 1163.9381426862856,506.0 1113.708669266788,477.0 1113.708669266788,419.0 1163.9381426862856,390.0" fill="rgba(0, 0, 0, 0.0)" stroke="rgba(35, 45, 67, 1.0)" stroke-width="2.0" /><polygon points="1214.167616105783,419.0 1214.167616105783,477.0 1163.9381426862856,506.0 1113.708669266788,477.0 1113.708669266788,419.0 1163.9381426862856,390.0" fill="rgba(0, 0, 0, 0.0)" stroke="rgba(0, 0, 0, 0.0)" stroke-width="6.0" /><line x1="387.97938089542845" y1="256.0" x2="55.425625842204056" y2="256.0" stroke="rgba(35, 45, 67, 0.5019607843137255)" stroke-width="16.0" stroke-linecap="round" mask="url(#text-mask)" /><line x1="387.97938089542845" y1="256.0" x2="55.425625842204056" y2="256.0" stroke="rgba(251, 193, 57, 0.9411764705882353)" stroke-width="12.0" stroke-linecap="round" mask="url(#text-mask)" /><line x1="387.97938089542845" y1="448.0" x2="166.2768775266122" y2="64.0" stroke="rgba(35, 45, 67, 0.5019607843137255)" stroke-width="16.0" stroke-linecap="round" mask="url(#text-mask)" /><line x1="387.97938089542845" y1="448.0" x2="166.2768775266122" y2="64.0" stroke="rgba(236, 111, 177, 0.9411764705882353)" stroke-width="12.0" stroke-linecap="round" mask="url(#text-mask)" /><defs><mask id="text-mask" mask-type="luminance"><rect x="0" y="0" width="100%" height="100%" fill="rgba(255, 255, 255, 1.0)" /><text stroke="rgba(51, 51, 51, 1.0)" stroke-width="6.7666664" stroke-linecap="round" stroke-linejoin="round" font-weight="800" font-family="system-ui, -apple-system, BlinkMacSystemFont, sans-serif" font-size="40.6px" text-anchor="middle" dominant-baseline="middle" x="332.5537550532244" y="352.0">a</text><text fill="rgba(0, 0, 0, 1.0)" font-weight="800" font-family="system-ui, -apple-system, BlinkMacSystemFont, sans-serif" font-size="40.6px" text-anchor="middle" dominant-baseline="middle" x="332.5537550532244" y="352.0">a</text></mask></defs></g></svg>